<svg xmlns="http://www.w3.org/2000/svg" width="10.5" height="10.5" viewBox="0 0 10.5 10.5">
  <g id="Icon_ant-exclamation-circle-outlined" data-name="Icon ant-exclamation-circle-outlined" transform="translate(-0.75 -0.75)">
    <path id="Path_35" data-name="Path 35" d="M6,.75A5.25,5.25,0,1,0,11.25,6,5.25,5.25,0,0,0,6,.75Zm0,9.609A4.359,4.359,0,1,1,10.359,6,4.36,4.36,0,0,1,6,10.359Z" fill="#ffba00"/>
    <path id="Path_36" data-name="Path 36" d="M5.438,8.063A.563.563,0,1,0,6,7.5.562.562,0,0,0,5.438,8.063ZM5.719,6.75h.563a.094.094,0,0,0,.094-.094V3.469a.094.094,0,0,0-.094-.094H5.719a.094.094,0,0,0-.094.094V6.656A.094.094,0,0,0,5.719,6.75Z" fill="#ffba00"/>
  </g>
</svg>
