<svg xmlns="http://www.w3.org/2000/svg" width="27.715" height="24.275" viewBox="0 0 27.715 24.275">
  <g id="Icon_solar-siderbar-line-duotone" data-name="Icon solar-siderbar-line-duotone" transform="translate(-1.667 -3)">
    <path id="Path_22" data-name="Path 22" d="M2.667,13.9c0-4.667,0-7,1.507-8.45S8.1,4,12.953,4H18.1c4.849,0,7.274,0,8.779,1.45s1.507,3.783,1.507,8.45v2.475c0,4.667,0,7-1.507,8.45s-3.931,1.45-8.779,1.45H12.953c-4.849,0-7.274,0-8.779-1.45s-1.507-3.783-1.507-8.45Z" fill="none" stroke="#ddd" stroke-width="2"/>
    <path id="Path_23" data-name="Path 23" d="M7.333,13.333h8M8.667,18.667H14" transform="translate(-0.238 -0.862)" fill="none" stroke="#ddd" stroke-linecap="round" stroke-width="2"/>
    <path id="Path_24" data-name="Path 24" d="M20,26.275V4" transform="translate(-0.618)" fill="none" stroke="#ddd" stroke-linecap="round" stroke-width="2" opacity="0.5"/>
  </g>
</svg>
