<svg id="Icon_ming-brush-3-line" data-name="Icon ming-brush-3-line" xmlns="http://www.w3.org/2000/svg" width="35" height="35" viewBox="0 0 35 35">
  <path id="Path_55" data-name="Path 55" d="M35,0V35H0V0ZM18.366,33.918l-.017,0-.1.051-.029.006-.02-.006-.1-.053a.032.032,0,0,0-.035.009l-.006.015-.025.624.007.029.015.019.152.108.022.006.017-.006.152-.108.017-.023.006-.025-.025-.623a.031.031,0,0,0-.023-.026Zm.385-.165-.02,0-.268.136-.015.015,0,.016.026.627.007.018.012.012.293.134a.037.037,0,0,0,.042-.012l.006-.02-.05-.9a.039.039,0,0,0-.029-.032Zm-1.043,0a.034.034,0,0,0-.039.009l-.009.02-.05.9a.036.036,0,0,0,.025.035l.022,0,.293-.136.015-.012,0-.016L18,33.922l0-.018-.015-.015Z" fill="none"/>
  <path id="Path_56" data-name="Path 56" d="M30.47,29.82a1.458,1.458,0,0,1-1.3.805H8.021c-.922,0-1.359-.821-1.75-1.524a16.5,16.5,0,0,1-1.076-2.357,15.773,15.773,0,0,1-.8-8.025A16.965,16.965,0,0,1,6.478,12.9a3.837,3.837,0,0,1,4.362-1.658l3.189.855,1.509-5.635a4.375,4.375,0,1,1,8.453,2.265L22.48,14.357l1.98.531a4.731,4.731,0,0,1,3.321,5.33,9.8,9.8,0,0,0-.093,2.87,11.19,11.19,0,0,0,1.436,3.363c.554.939,1.079,1.665,1.19,1.814A1.5,1.5,0,0,1,30.47,29.82ZM20.142,6.18a1.458,1.458,0,0,0-1.786,1.033l-1.887,7.044a1.458,1.458,0,0,1-1.786,1.031l-4.6-1.232a.929.929,0,0,0-1.1.322,13.281,13.281,0,0,0-1.025,2.18L24.751,21.01c.036-.429.089-.843.147-1.228A1.822,1.822,0,0,0,23.705,17.7L20.317,16.8a1.458,1.458,0,0,1-1.031-1.786l1.887-7.044a1.458,1.458,0,0,0-1.031-1.785ZM24.914,24.07,7.242,19.383a12.916,12.916,0,0,0,.691,6.358,13.629,13.629,0,0,0,.882,1.938l.017.029h2.479a10.6,10.6,0,0,1-1.123-4.365,1.458,1.458,0,1,1,2.915-.02,8.018,8.018,0,0,0,.957,3.366c.2.4.4.751.572,1.021H26.482a14.637,14.637,0,0,1-1.568-3.64Z" fill="#bfd9e4"/>
</svg>
