<svg xmlns="http://www.w3.org/2000/svg" width="51.222" height="52.494" viewBox="0 0 51.222 52.494">
  <path id="Icon_crypto-x" data-name="Icon crypto-x" d="M25.611,52.494C11.466,52.494,0,40.744,0,26.247S11.466,0,25.611,0,51.222,11.75,51.222,26.247,39.756,52.494,25.611,52.494ZM9.62,13.11,21.846,25.78c-.194.212-.392.42-.592.625L9.62,38.462h5.874a6.69,6.69,0,0,0,.748-.016c.435,0,.869.008,1.3,0,.5-.525,1-1.06,1.5-1.591l4.285-4.585c.757-.82,1.529-1.629,2.281-2.449.352.358.691.735,1.037,1.1l3.588,3.842,1.078,1.152c.792.842,1.575,1.69,2.369,2.53.435.016.874,0,1.313.01a3.45,3.45,0,0,0,.471.011h6.131l-1.1-1.142L29.648,26.09c-.083-.108-.182-.208-.275-.31.379-.4.768-.805,1.157-1.2q5.532-5.728,11.061-11.467h-7.9q-1.712,1.831-3.425,3.658c-1.548,1.66-3.1,3.327-4.652,4.982q-4.027-4.331-8.064-8.639H9.62Z" fill="#f84b4b"/>
</svg>
