<svg xmlns="http://www.w3.org/2000/svg" width="17.603" height="17.591" viewBox="0 0 17.603 17.591">
  <path id="Icon_fluent-speaker-2" data-name="Icon fluent-speaker-2" d="M13.2,3.307A1.1,1.1,0,0,0,11.348,2.5L7.088,6.453a.55.55,0,0,1-.374.147H3.846A1.65,1.65,0,0,0,2.2,8.25v5.5a1.65,1.65,0,0,0,1.65,1.65H6.714a.55.55,0,0,1,.374.146L11.348,19.5a1.1,1.1,0,0,0,1.848-.806V3.307ZM7.836,7.259,12.1,3.307V18.693L7.836,14.74a1.65,1.65,0,0,0-1.122-.44H3.846a.55.55,0,0,1-.55-.55V8.25a.55.55,0,0,1,.55-.55H6.714a1.65,1.65,0,0,0,1.122-.44ZM16.782,5.09a.55.55,0,0,1,.777.044,8.8,8.8,0,0,1,0,11.733.55.55,0,1,1-.82-.734,7.7,7.7,0,0,0,0-10.266.55.55,0,0,1,.043-.777Zm-1.294,9.137a.55.55,0,0,1-.2-.751,4.948,4.948,0,0,0,0-4.95.55.55,0,1,1,.951-.55,6.048,6.048,0,0,1,0,6.05.55.55,0,0,1-.751.2Z" transform="translate(-2.196 -2.204)" fill="#bcd7e0"/>
</svg>
