         <svg
                    class="relative h-8 w-8 "
                    xmlns="http://www.w3.org/2000/svg"
                    viewBox="0 0 40 40"
                    fill="rgb(31,213,249)"

                  >
                    <path
                      d="M6.66699 34.166L6.16891 34.1223L6.1212 34.666H6.66699V34.166ZM33.3337 34.166V34.666H33.8794L33.8317 34.1223L33.3337 34.166ZM26.167 10.8327C26.167 14.2384 23.4061 16.9993 20.0003 16.9993V17.9993C23.9584 17.9993 27.167 14.7907 27.167 10.8327H26.167ZM20.0003 16.9993C16.5946 16.9993 13.8337 14.2384 13.8337 10.8327H12.8337C12.8337 14.7907 16.0423 17.9993 20.0003 17.9993V16.9993ZM13.8337 10.8327C13.8337 7.42693 16.5946 4.66602 20.0003 4.66602V3.66602C16.0423 3.66602 12.8337 6.87464 12.8337 10.8327H13.8337ZM20.0003 4.66602C23.4061 4.66602 26.167 7.42693 26.167 10.8327H27.167C27.167 6.87464 23.9584 3.66602 20.0003 3.66602V4.66602ZM7.16508 34.2097C7.80325 26.9364 12.8631 21.3327 20.0003 21.3327V20.3327C12.2391 20.3327 6.84253 26.445 6.16891 34.1223L7.16508 34.2097ZM20.0003 21.3327C27.1376 21.3327 32.1974 26.9364 32.8356 34.2097L33.8317 34.1223C33.1581 26.445 27.7616 20.3327 20.0003 20.3327V21.3327ZM6.66699 34.666H33.3337V33.666H6.66699V34.666Z"
                      fill="rgb(31,213,249)"
                    ></path>
                  </svg>