<svg class="relative h-8 w-8 text-lk-500" xmlns="http://www.w3.org/2000/svg" viewBox="0 0 40 40" fill="none"><path d="M5.83301 11.6673H22.083M34.1663 28.334H21.2497M5.83301 28.334H8.74967M22.4997 11.6673C22.4997 8.4444 25.1101 5.83398 28.333 5.83398C31.5559 5.83398 34.1663 8.4444 34.1663 11.6673C34.1663 14.8902 31.5559 17.5007 28.333 17.5007C25.1101 17.5007 22.4997 14.8902 22.4997 11.6673ZM20.833 28.334C20.833 31.5569 18.2226 34.1673 14.9997 34.1673C11.7768 34.1673 9.16634 31.5569 9.16634 28.334C9.16634 25.1111 11.7768 22.5007 14.9997 22.5007C18.2226 22.5007 20.833 25.1111 20.833 28.334Z" stroke="rgb(31,213,249)" stroke-linecap="square"></path></svg>