<svg xmlns="http://www.w3.org/2000/svg" width="801" height="450" fill="none"><path d="M2.2 91a1.7 1.7 0 1 0 0 3.5 1.7 1.7 0 0 0 0-3.5ZM2.2 107.6a1.7 1.7 0 1 0 0 3.5 1.7 1.7 0 0 0 0-3.5ZM10.5 74.5a1.8 1.8 0 1 0 0 3.5 1.8 1.8 0 0 0 0-3.5ZM10.5 115.8c-1 0-1.8.8-1.8 1.8a1.8 1.8 0 1 0 1.8-1.8ZM10.5 99.3a1.8 1.8 0 0 0 0 3.5 1.8 1.8 0 0 0 0-3.5ZM10.5 82.8a1.8 1.8 0 0 0 0 3.5 1.8 1.8 0 0 0 0-3.5ZM10.5 91a1.8 1.8 0 1 0 0 3.5 1.8 1.8 0 0 0 0-3.5ZM10.5 107.6a1.8 1.8 0 1 0 0 3.5 1.8 1.8 0 0 0 0-3.5ZM18.7 66.2a1.7 1.7 0 1 0 0 3.5 1.7 1.7 0 0 0 0-3.5ZM18.7 74.5a1.7 1.7 0 1 0 0 3.5 1.7 1.7 0 0 0 0-3.5ZM18.7 91a1.7 1.7 0 1 0 0 3.5 1.7 1.7 0 0 0 0-3.5ZM18.7 82.8a1.8 1.8 0 1 0 0 3.5 1.8 1.8 0 0 0 0-3.5ZM18.7 99.3a1.8 1.8 0 1 0 0 3.5 1.8 1.8 0 0 0 0-3.5ZM18.7 107.6a1.7 1.7 0 1 0 0 3.5 1.7 1.7 0 0 0 0-3.5ZM18.7 115.8a1.7 1.7 0 1 0 0 3.5 1.7 1.7 0 0 0 0-3.5ZM18.7 124a1.8 1.8 0 1 0 0 3.6 1.8 1.8 0 0 0 0-3.5ZM26.9 99.3a1.8 1.8 0 1 0 0 3.5 1.8 1.8 0 0 0 0-3.5ZM26.9 91a1.7 1.7 0 1 0 0 3.5 1.7 1.7 0 0 0 0-3.5ZM26.9 115.8a1.7 1.7 0 1 0 0 3.5 1.7 1.7 0 0 0 0-3.5ZM26.9 107.6a1.7 1.7 0 1 0 0 3.5 1.7 1.7 0 0 0 0-3.5ZM26.9 82.8a1.8 1.8 0 1 0 0 3.5 1.8 1.8 0 0 0 0-3.5ZM26.9 66.2a1.7 1.7 0 1 0 0 3.5 1.7 1.7 0 0 0 0-3.5ZM26.9 74.5a1.7 1.7 0 1 0 0 3.5 1.7 1.7 0 0 0 0-3.5ZM35.1 82.8a1.8 1.8 0 1 0 0 3.5 1.8 1.8 0 0 0 0-3.5ZM35.1 74.5a1.7 1.7 0 1 0 0 3.5 1.7 1.7 0 0 0 0-3.5ZM35.1 91a1.7 1.7 0 1 0 0 3.5 1.7 1.7 0 0 0 0-3.5ZM35.1 107.6a1.7 1.7 0 1 0 0 3.5 1.7 1.7 0 0 0 0-3.5ZM35.1 99.3a1.8 1.8 0 1 0 0 3.5 1.8 1.8 0 0 0 0-3.5ZM43.3 91a1.7 1.7 0 1 0 0 3.5 1.7 1.7 0 0 0 0-3.5ZM43.3 74.5a1.7 1.7 0 1 0 0 3.5 1.7 1.7 0 0 0 0-3.5ZM43.3 82.8a1.8 1.8 0 1 0 0 3.5 1.8 1.8 0 0 0 0-3.5ZM43.3 99.3a1.8 1.8 0 1 0 0 3.5 1.8 1.8 0 0 0 0-3.5ZM43.3 107.6a1.7 1.7 0 1 0 0 3.5 1.7 1.7 0 0 0 0-3.5ZM51.5 91a1.7 1.7 0 1 0 0 3.5 1.7 1.7 0 0 0 0-3.5ZM51.5 74.5a1.7 1.7 0 1 0 0 3.5 1.7 1.7 0 0 0 0-3.5ZM51.5 82.8a1.8 1.8 0 1 0 0 3.5 1.8 1.8 0 0 0 0-3.5ZM51.5 99.3a1.8 1.8 0 1 0 0 3.5 1.8 1.8 0 0 0 0-3.5ZM51.5 107.6a1.7 1.7 0 1 0 0 3.5 1.7 1.7 0 0 0 0-3.5ZM59.7 99.3a1.8 1.8 0 1 0 0 3.5 1.8 1.8 0 0 0 0-3.5ZM59.7 74.5a1.7 1.7 0 1 0 0 3.5 1.7 1.7 0 0 0 0-3.5ZM59.7 91a1.7 1.7 0 1 0 0 3.5 1.7 1.7 0 0 0 0-3.5ZM59.7 82.8a1.8 1.8 0 1 0 0 3.5 1.8 1.8 0 0 0 0-3.5ZM59.7 107.6a1.7 1.7 0 1 0 0 3.5 1.7 1.7 0 0 0 0-3.5ZM68 91a1.7 1.7 0 1 0 0 3.5 1.7 1.7 0 0 0 0-3.5ZM68 99.3a1.8 1.8 0 1 0 0 3.5 1.8 1.8 0 0 0 0-3.5ZM68 115.8a1.7 1.7 0 1 0 0 3.5 1.7 1.7 0 0 0 0-3.5ZM68 107.6a1.7 1.7 0 1 0 0 3.5 1.7 1.7 0 0 0 0-3.5ZM68 82.8a1.8 1.8 0 1 0 0 3.5 1.8 1.8 0 0 0 0-3.5ZM76.2 82.8a1.8 1.8 0 1 0 0 3.5 1.8 1.8 0 0 0 0-3.5ZM76.2 74.5a1.8 1.8 0 1 0 0 3.5 1.8 1.8 0 0 0 0-3.5ZM76.2 91a1.7 1.7 0 1 0 0 3.5 1.7 1.7 0 0 0 0-3.5ZM76.2 124a1.8 1.8 0 1 0 0 3.6 1.8 1.8 0 0 0 0-3.5ZM76.2 115.8a1.7 1.7 0 1 0 0 3.5 1.7 1.7 0 0 0 0-3.5ZM76.2 99.3a1.8 1.8 0 1 0 0 3.5 1.8 1.8 0 0 0 0-3.5ZM76.2 107.6a1.7 1.7 0 1 0 0 3.5 1.7 1.7 0 0 0 0-3.5ZM76.2 132.3a1.7 1.7 0 1 0 0 3.5 1.7 1.7 0 0 0 0-3.5ZM84.4 74.5a1.7 1.7 0 1 0 0 3.5 1.7 1.7 0 0 0 0-3.5ZM84.4 82.8a1.8 1.8 0 1 0 0 3.5 1.8 1.8 0 0 0 0-3.5ZM84.4 99.3a1.8 1.8 0 1 0 0 3.5 1.8 1.8 0 0 0 0-3.5ZM84.4 91a1.7 1.7 0 1 0 0 3.5 1.7 1.7 0 0 0 0-3.5ZM84.4 107.6a1.7 1.7 0 1 0 0 3.5 1.7 1.7 0 0 0 0-3.5ZM84.4 124a1.8 1.8 0 1 0 0 3.6 1.8 1.8 0 0 0 0-3.5ZM84.4 132.3a1.7 1.7 0 1 0 0 3.5 1.7 1.7 0 0 0 0-3.5ZM84.4 115.8a1.7 1.7 0 1 0 0 3.5 1.7 1.7 0 0 0 0-3.5ZM92.6 132.3a1.7 1.7 0 1 0 0 3.5 1.7 1.7 0 0 0 0-3.5ZM92.6 140.6a1.7 1.7 0 1 0 0 3.5 1.7 1.7 0 0 0 0-3.5ZM92.6 99.3a1.8 1.8 0 1 0 0 3.5 1.8 1.8 0 0 0 0-3.5ZM92.6 148.9a1.7 1.7 0 1 0 0 3.5 1.7 1.7 0 0 0 0-3.5ZM92.6 107.6a1.7 1.7 0 1 0 0 3.5 1.7 1.7 0 0 0 0-3.5ZM92.6 115.8a1.7 1.7 0 1 0 0 3.5 1.7 1.7 0 0 0 0-3.5ZM92.6 124a1.8 1.8 0 1 0 0 3.6 1.8 1.8 0 0 0 0-3.5ZM92.6 74.5a1.8 1.8 0 1 0 0 3.5 1.8 1.8 0 0 0 0-3.5ZM92.6 58a1.8 1.8 0 1 0 0 3.5 1.8 1.8 0 0 0 0-3.5ZM92.6 91a1.7 1.7 0 1 0 0 3.5 1.7 1.7 0 0 0 0-3.5ZM92.6 82.8a1.8 1.8 0 1 0 0 3.5 1.8 1.8 0 0 0 0-3.5ZM100.8 58a1.8 1.8 0 0 0 0 3.5 1.8 1.8 0 0 0 0-3.5ZM100.8 49.7c-1 0-1.8.8-1.8 1.8a1.8 1.8 0 1 0 1.8-1.8ZM100.8 91a1.8 1.8 0 1 0 0 3.5 1.8 1.8 0 0 0 0-3.5ZM100.8 41.4a1.8 1.8 0 1 0 0 3.5 1.8 1.8 0 0 0 0-3.5ZM100.8 99.3a1.8 1.8 0 0 0 0 3.5c1 0 1.7-.8 1.7-1.8s-.8-1.7-1.7-1.7ZM100.8 82.8a1.8 1.8 0 0 0 0 3.5c1 0 1.7-.8 1.7-1.8s-.8-1.7-1.7-1.7ZM100.8 74.5c-1 0-1.8.8-1.8 1.7a1.8 1.8 0 1 0 1.8-1.7ZM100.8 165.4a1.8 1.8 0 1 0 0 3.5 1.8 1.8 0 0 0 0-3.5ZM100.8 182a1.8 1.8 0 1 0 0 3.4 1.8 1.8 0 0 0 0-3.5ZM100.8 190.2a1.8 1.8 0 1 0 0 3.5 1.8 1.8 0 0 0 0-3.5ZM100.8 173.7a1.8 1.8 0 1 0 0 3.5 1.8 1.8 0 0 0 0-3.5ZM100.8 107.6a1.8 1.8 0 1 0 0 3.5 1.8 1.8 0 0 0 0-3.5ZM100.8 124a1.8 1.8 0 0 0 0 3.6 1.8 1.8 0 0 0 0-3.5ZM100.8 157.1a1.8 1.8 0 1 0 0 3.5 1.8 1.8 0 0 0 0-3.5ZM100.8 132.3c-1 0-1.8.8-1.8 1.8a1.8 1.8 0 0 0 3.5 0c0-1-.8-1.8-1.7-1.8ZM100.8 148.9a1.8 1.8 0 1 0 0 3.5 1.8 1.8 0 0 0 0-3.5ZM100.8 140.6a1.8 1.8 0 1 0 0 3.5 1.8 1.8 0 0 0 0-3.5ZM100.8 115.8c-1 0-1.8.8-1.8 1.8a1.8 1.8 0 0 0 3.5 0c0-1-.8-1.8-1.7-1.8ZM109 124a1.8 1.8 0 1 0 0 3.6 1.8 1.8 0 0 0 0-3.5ZM109 132.3a1.7 1.7 0 1 0 0 3.5 1.7 1.7 0 0 0 0-3.5ZM109 140.6a1.7 1.7 0 1 0 0 3.5 1.7 1.7 0 0 0 0-3.5ZM109 107.6a1.7 1.7 0 1 0 0 3.5 1.7 1.7 0 0 0 0-3.5ZM109 91a1.7 1.7 0 1 0 0 3.5 1.7 1.7 0 0 0 0-3.5ZM109 99.3a1.8 1.8 0 1 0 0 3.5 1.8 1.8 0 0 0 0-3.5ZM109 148.9a1.7 1.7 0 1 0 0 3.5 1.7 1.7 0 0 0 0-3.5ZM109 115.8a1.7 1.7 0 1 0 0 3.5 1.7 1.7 0 0 0 0-3.5ZM109 182a1.7 1.7 0 1 0 0 3.4 1.7 1.7 0 0 0 0-3.5ZM109 165.4a1.7 1.7 0 1 0 0 3.5 1.7 1.7 0 0 0 0-3.5ZM109 157.1a1.7 1.7 0 1 0 0 3.5 1.7 1.7 0 0 0 0-3.5ZM109 173.7a1.7 1.7 0 1 0 0 3.5 1.7 1.7 0 0 0 0-3.5ZM109 82.8a1.8 1.8 0 1 0 0 3.5 1.8 1.8 0 0 0 0-3.5ZM109 58a1.7 1.7 0 1 0 0 3.5 1.7 1.7 0 0 0 0-3.5ZM109 190.2a1.7 1.7 0 1 0 0 3.5 1.7 1.7 0 0 0 0-3.5ZM109 198.5a1.7 1.7 0 1 0 0 3.5 1.7 1.7 0 0 0 0-3.5ZM117.2 132.3a1.7 1.7 0 1 0 0 3.5 1.7 1.7 0 0 0 0-3.5ZM117.2 140.6a1.7 1.7 0 1 0 0 3.5 1.7 1.7 0 0 0 0-3.5ZM117.2 148.9a1.7 1.7 0 1 0 0 3.5 1.7 1.7 0 0 0 0-3.5ZM117.2 124a1.8 1.8 0 1 0 0 3.6 1.8 1.8 0 0 0 0-3.5ZM117.2 107.6a1.7 1.7 0 1 0 0 3.5 1.7 1.7 0 0 0 0-3.5ZM117.2 115.8a1.7 1.7 0 1 0 0 3.5 1.7 1.7 0 0 0 0-3.5ZM117.2 173.7a1.7 1.7 0 1 0 0 3.5 1.7 1.7 0 0 0 0-3.5ZM117.2 182a1.7 1.7 0 1 0 0 3.4 1.7 1.7 0 0 0 0-3.5ZM117.2 190.2a1.7 1.7 0 1 0 0 3.5 1.7 1.7 0 0 0 0-3.5ZM117.2 198.5a1.7 1.7 0 1 0 0 3.5 1.7 1.7 0 0 0 0-3.5ZM117.2 157.1a1.7 1.7 0 1 0 0 3.5 1.7 1.7 0 0 0 0-3.5ZM117.2 99.3a1.8 1.8 0 1 0 0 3.5 1.8 1.8 0 0 0 0-3.5ZM117.2 165.4a1.7 1.7 0 1 0 0 3.5 1.7 1.7 0 0 0 0-3.5ZM117.2 58a1.8 1.8 0 1 0 0 3.5 1.8 1.8 0 0 0 0-3.5ZM117.2 91a1.7 1.7 0 1 0 0 3.5 1.7 1.7 0 0 0 0-3.5ZM117.2 82.8a1.8 1.8 0 1 0 0 3.5 1.8 1.8 0 0 0 0-3.5ZM117.2 41.4a1.7 1.7 0 1 0 0 3.5 1.7 1.7 0 0 0 0-3.5ZM117.2 66.2a1.7 1.7 0 1 0 0 3.5 1.7 1.7 0 0 0 0-3.5ZM117.2 215a1.7 1.7 0 1 0 0 3.5 1.7 1.7 0 0 0 0-3.5ZM125.4 223.3a1.7 1.7 0 1 0 0 3.4 1.7 1.7 0 0 0 0-3.4ZM125.4 66.2a1.7 1.7 0 1 0 0 3.5 1.7 1.7 0 0 0 0-3.5ZM125.4 33.2a1.8 1.8 0 1 0 0 3.5 1.8 1.8 0 0 0 0-3.5ZM125.4 91a1.7 1.7 0 1 0 0 3.5 1.7 1.7 0 0 0 0-3.5ZM125.4 74.5a1.8 1.8 0 1 0 0 3.5 1.8 1.8 0 0 0 0-3.5ZM125.4 82.8a1.8 1.8 0 1 0 0 3.5 1.8 1.8 0 0 0 0-3.5ZM125.4 99.3a1.8 1.8 0 1 0 0 3.5 1.8 1.8 0 0 0 0-3.5ZM125.4 198.5a1.7 1.7 0 1 0 0 3.5 1.7 1.7 0 0 0 0-3.5ZM125.4 173.7a1.7 1.7 0 1 0 0 3.5 1.7 1.7 0 0 0 0-3.5ZM125.4 165.4a1.7 1.7 0 1 0 0 3.5 1.7 1.7 0 0 0 0-3.5ZM125.4 182a1.7 1.7 0 1 0 0 3.4 1.7 1.7 0 0 0 0-3.5ZM125.4 190.2a1.8 1.8 0 1 0 0 3.5 1.8 1.8 0 0 0 0-3.5ZM125.4 107.6a1.7 1.7 0 1 0 0 3.5 1.7 1.7 0 0 0 0-3.5ZM125.4 157.1a1.7 1.7 0 1 0 0 3.5 1.7 1.7 0 0 0 0-3.5ZM125.4 206.7a1.7 1.7 0 1 0 0 3.5 1.7 1.7 0 0 0 0-3.5ZM125.4 124a1.8 1.8 0 1 0 0 3.6 1.8 1.8 0 0 0 0-3.5ZM125.4 148.9a1.8 1.8 0 1 0 0 3.5 1.8 1.8 0 0 0 0-3.5ZM125.4 115.8a1.7 1.7 0 1 0 0 3.5 1.7 1.7 0 0 0 0-3.5ZM125.4 140.6a1.7 1.7 0 1 0 0 3.5 1.7 1.7 0 0 0 0-3.5ZM125.4 132.3a1.7 1.7 0 1 0 0 3.5 1.7 1.7 0 0 0 0-3.5ZM133.6 223.3a1.7 1.7 0 1 0 0 3.4 1.7 1.7 0 0 0 0-3.4ZM133.6 91a1.7 1.7 0 1 0 0 3.5 1.7 1.7 0 0 0 0-3.5ZM133.6 58a1.7 1.7 0 1 0 0 3.5 1.7 1.7 0 0 0 0-3.5ZM133.6 82.8a1.8 1.8 0 1 0 0 3.5 1.8 1.8 0 0 0 0-3.5ZM133.6 66.2a1.7 1.7 0 1 0 0 3.5 1.7 1.7 0 0 0 0-3.5ZM133.6 74.5a1.7 1.7 0 1 0 0 3.5 1.7 1.7 0 0 0 0-3.5ZM133.6 190.2a1.7 1.7 0 1 0 0 3.5 1.7 1.7 0 0 0 0-3.5ZM133.6 99.3a1.8 1.8 0 1 0 0 3.5 1.8 1.8 0 0 0 0-3.5ZM133.6 173.7a1.7 1.7 0 1 0 0 3.5 1.7 1.7 0 0 0 0-3.5ZM133.6 165.4a1.7 1.7 0 1 0 0 3.5 1.7 1.7 0 0 0 0-3.5ZM133.6 198.5a1.7 1.7 0 1 0 0 3.5 1.7 1.7 0 0 0 0-3.5ZM133.6 206.7a1.7 1.7 0 1 0 0 3.5 1.7 1.7 0 0 0 0-3.5ZM133.6 215a1.7 1.7 0 1 0 0 3.5 1.7 1.7 0 0 0 0-3.5ZM133.6 157.1a1.7 1.7 0 1 0 0 3.5 1.7 1.7 0 0 0 0-3.5ZM133.6 182a1.7 1.7 0 1 0 0 3.4 1.7 1.7 0 0 0 0-3.5ZM133.6 124a1.8 1.8 0 1 0 0 3.6 1.8 1.8 0 0 0 0-3.5ZM133.6 115.8a1.7 1.7 0 1 0 0 3.5 1.7 1.7 0 0 0 0-3.5ZM133.6 107.6a1.7 1.7 0 1 0 0 3.5 1.7 1.7 0 0 0 0-3.5ZM133.6 148.9a1.7 1.7 0 1 0 0 3.5 1.7 1.7 0 0 0 0-3.5ZM133.6 140.6a1.7 1.7 0 1 0 0 3.5 1.7 1.7 0 0 0 0-3.5ZM133.6 132.3a1.7 1.7 0 1 0 0 3.5 1.7 1.7 0 0 0 0-3.5ZM141.8 124a1.8 1.8 0 1 0 0 3.6 1.8 1.8 0 0 0 0-3.5ZM141.8 132.3a1.7 1.7 0 1 0 0 3.5 1.7 1.7 0 0 0 0-3.5ZM141.8 91a1.7 1.7 0 1 0 0 3.5 1.7 1.7 0 0 0 0-3.5ZM141.8 99.3a1.8 1.8 0 1 0 0 3.5 1.8 1.8 0 0 0 0-3.5ZM141.8 157.1a1.7 1.7 0 1 0 0 3.5 1.7 1.7 0 0 0 0-3.5ZM141.8 107.6a1.7 1.7 0 1 0 0 3.5 1.7 1.7 0 0 0 0-3.5ZM141.8 115.8a1.7 1.7 0 1 0 0 3.5 1.7 1.7 0 0 0 0-3.5ZM141.8 165.4a1.7 1.7 0 1 0 0 3.5 1.7 1.7 0 0 0 0-3.5ZM141.8 190.2a1.8 1.8 0 1 0 0 3.5 1.8 1.8 0 0 0 0-3.5ZM141.8 206.7a1.7 1.7 0 1 0 0 3.5 1.7 1.7 0 0 0 0-3.5ZM141.8 198.5a1.7 1.7 0 1 0 0 3.5 1.7 1.7 0 0 0 0-3.5ZM141.8 173.7a1.7 1.7 0 1 0 0 3.5 1.7 1.7 0 0 0 0-3.5ZM141.8 182a1.7 1.7 0 1 0 0 3.4 1.7 1.7 0 0 0 0-3.5ZM141.8 215a1.7 1.7 0 1 0 0 3.5 1.7 1.7 0 0 0 0-3.5ZM141.8 25a1.7 1.7 0 1 0 0 3.4 1.7 1.7 0 0 0 0-3.5ZM141.8 74.5a1.8 1.8 0 1 0 0 3.5 1.8 1.8 0 0 0 0-3.5ZM141.8 82.8a1.8 1.8 0 1 0 0 3.5 1.8 1.8 0 0 0 0-3.5ZM141.8 41.4a1.7 1.7 0 1 0 0 3.5 1.7 1.7 0 0 0 0-3.5ZM141.8 140.6a1.7 1.7 0 1 0 0 3.5 1.7 1.7 0 0 0 0-3.5ZM141.8 239.8a1.7 1.7 0 1 0 0 3.5 1.7 1.7 0 0 0 0-3.5ZM141.8 231.5a1.7 1.7 0 1 0 0 3.5 1.7 1.7 0 0 0 0-3.5ZM141.8 223.3a1.7 1.7 0 1 0 0 3.4 1.7 1.7 0 0 0 0-3.4ZM141.8 148.9a1.8 1.8 0 1 0 0 3.5 1.8 1.8 0 0 0 0-3.5ZM150 140.6a1.7 1.7 0 1 0 0 3.5 1.7 1.7 0 0 0 0-3.5ZM150 99.3a1.8 1.8 0 1 0 0 3.5 1.8 1.8 0 0 0 0-3.5ZM150 132.3a1.7 1.7 0 1 0 0 3.5 1.7 1.7 0 0 0 0-3.5ZM150 115.8a1.7 1.7 0 1 0 0 3.5 1.7 1.7 0 0 0 0-3.5ZM150 107.6a1.7 1.7 0 1 0 0 3.5 1.7 1.7 0 0 0 0-3.5ZM150 182a1.7 1.7 0 1 0 0 3.4 1.7 1.7 0 0 0 0-3.5ZM150 148.9a1.7 1.7 0 1 0 0 3.5 1.7 1.7 0 0 0 0-3.5ZM150 190.2a1.7 1.7 0 1 0 0 3.5 1.7 1.7 0 0 0 0-3.5ZM150 173.7a1.7 1.7 0 1 0 0 3.5 1.7 1.7 0 0 0 0-3.5ZM150 157.1a1.7 1.7 0 1 0 0 3.5 1.7 1.7 0 0 0 0-3.5ZM150 165.4a1.7 1.7 0 1 0 0 3.5 1.7 1.7 0 0 0 0-3.5ZM150 198.5a1.7 1.7 0 1 0 0 3.5 1.7 1.7 0 0 0 0-3.5ZM150 91a1.7 1.7 0 1 0 0 3.5 1.7 1.7 0 0 0 0-3.5ZM150 82.8a1.8 1.8 0 1 0 0 3.5 1.8 1.8 0 0 0 0-3.5ZM150 41.4a1.7 1.7 0 1 0 0 3.5 1.7 1.7 0 0 0 0-3.5ZM150 58a1.8 1.8 0 1 0 0 3.5 1.8 1.8 0 0 0 0-3.5ZM150 124a1.8 1.8 0 1 0 0 3.6 1.8 1.8 0 0 0 0-3.5ZM150 206.7a1.7 1.7 0 1 0 0 3.5 1.7 1.7 0 0 0 0-3.5ZM150 239.8a1.7 1.7 0 1 0 0 3.5 1.7 1.7 0 0 0 0-3.5ZM150 215a1.7 1.7 0 1 0 0 3.5 1.7 1.7 0 0 0 0-3.5ZM150 231.5a1.7 1.7 0 1 0 0 3.5 1.7 1.7 0 0 0 0-3.5ZM150 223.3a1.7 1.7 0 1 0 0 3.4 1.7 1.7 0 0 0 0-3.4ZM158.3 140.6a1.7 1.7 0 1 0 0 3.5 1.7 1.7 0 0 0 0-3.5ZM158.3 239.8a1.7 1.7 0 1 0 0 3.5 1.7 1.7 0 0 0 0-3.5ZM158.3 248a1.7 1.7 0 1 0 0 3.5 1.7 1.7 0 0 0 0-3.5ZM158.3 66.2a1.7 1.7 0 1 0 0 3.5 1.7 1.7 0 0 0 0-3.5ZM158.3 74.5a1.7 1.7 0 1 0 0 3.5 1.7 1.7 0 0 0 0-3.5ZM158.3 91a1.7 1.7 0 1 0 0 3.5 1.7 1.7 0 0 0 0-3.5ZM158.3 82.8a1.8 1.8 0 1 0 0 3.5 1.8 1.8 0 0 0 0-3.5ZM158.3 16.6a1.7 1.7 0 1 0 0 3.5 1.7 1.7 0 0 0 0-3.5ZM158.3 99.3a1.8 1.8 0 1 0 0 3.5 1.8 1.8 0 0 0 0-3.5ZM158.3 173.7a1.7 1.7 0 1 0 0 3.5 1.7 1.7 0 0 0 0-3.5ZM158.3 190.2a1.7 1.7 0 1 0 0 3.5 1.7 1.7 0 0 0 0-3.5ZM158.3 206.7a1.7 1.7 0 1 0 0 3.5 1.7 1.7 0 0 0 0-3.5ZM158.3 107.6a1.7 1.7 0 1 0 0 3.5 1.7 1.7 0 0 0 0-3.5ZM158.3 198.5a1.7 1.7 0 1 0 0 3.5 1.7 1.7 0 0 0 0-3.5ZM158.3 124a1.8 1.8 0 1 0 0 3.6 1.8 1.8 0 0 0 0-3.5ZM158.3 132.3a1.7 1.7 0 1 0 0 3.5 1.7 1.7 0 0 0 0-3.5ZM158.3 165.4a1.7 1.7 0 1 0 0 3.5 1.7 1.7 0 0 0 0-3.5ZM158.3 115.8a1.7 1.7 0 1 0 0 3.5 1.7 1.7 0 0 0 0-3.5ZM158.3 148.9a1.7 1.7 0 1 0 0 3.5 1.7 1.7 0 0 0 0-3.5ZM158.3 157.1a1.7 1.7 0 1 0 0 3.5 1.7 1.7 0 0 0 0-3.5ZM158.3 182a1.7 1.7 0 1 0 0 3.4 1.7 1.7 0 0 0 0-3.5ZM166.5 124a1.8 1.8 0 1 0 0 3.6 1.8 1.8 0 0 0 0-3.5ZM166.5 132.3a1.7 1.7 0 1 0 0 3.5 1.7 1.7 0 0 0 0-3.5ZM166.5 140.6a1.7 1.7 0 1 0 0 3.5 1.7 1.7 0 0 0 0-3.5ZM166.5 148.9a1.7 1.7 0 1 0 0 3.5 1.7 1.7 0 0 0 0-3.5ZM166.5 198.5a1.7 1.7 0 1 0 0 3.5 1.7 1.7 0 0 0 0-3.5ZM166.5 157.1a1.7 1.7 0 1 0 0 3.5 1.7 1.7 0 0 0 0-3.5ZM166.5 206.7a1.7 1.7 0 1 0 0 3.5 1.7 1.7 0 0 0 0-3.5ZM166.5 190.2a1.7 1.7 0 1 0 0 3.5 1.7 1.7 0 0 0 0-3.5ZM166.5 99.3a1.8 1.8 0 1 0 0 3.5 1.8 1.8 0 0 0 0-3.5ZM166.5 165.4a1.7 1.7 0 1 0 0 3.5 1.7 1.7 0 0 0 0-3.5ZM166.5 182a1.7 1.7 0 1 0 0 3.4 1.7 1.7 0 0 0 0-3.5ZM166.5 173.7a1.7 1.7 0 1 0 0 3.5 1.7 1.7 0 0 0 0-3.5ZM166.5 58a1.8 1.8 0 1 0 0 3.5 1.8 1.8 0 0 0 0-3.5ZM166.5 16.6a1.7 1.7 0 1 0 0 3.5 1.7 1.7 0 0 0 0-3.5ZM166.5 25a1.7 1.7 0 1 0 0 3.4 1.7 1.7 0 0 0 0-3.5ZM166.5 41.4a1.7 1.7 0 1 0 0 3.5 1.7 1.7 0 0 0 0-3.5ZM166.5 82.8a1.8 1.8 0 1 0 0 3.5 1.8 1.8 0 0 0 0-3.5ZM166.5 74.5a1.7 1.7 0 1 0 0 3.5 1.7 1.7 0 0 0 0-3.5ZM166.5 91a1.7 1.7 0 1 0 0 3.5 1.7 1.7 0 0 0 0-3.5ZM166.5 248a1.7 1.7 0 1 0 0 3.5 1.7 1.7 0 0 0 0-3.5ZM166.5 239.8a1.7 1.7 0 1 0 0 3.5 1.7 1.7 0 0 0 0-3.5ZM174.7 148.9a1.8 1.8 0 1 0 0 3.5 1.8 1.8 0 0 0 0-3.5ZM174.7 140.6a1.7 1.7 0 1 0 0 3.5 1.7 1.7 0 0 0 0-3.5ZM174.7 132.3a1.7 1.7 0 1 0 0 3.5 1.7 1.7 0 0 0 0-3.5ZM174.7 157.1a1.7 1.7 0 1 0 0 3.5 1.7 1.7 0 0 0 0-3.5ZM174.7 124a1.8 1.8 0 1 0 0 3.6 1.8 1.8 0 0 0 0-3.5ZM174.7 198.5a1.7 1.7 0 1 0 0 3.5 1.7 1.7 0 0 0 0-3.5ZM174.7 190.2a1.8 1.8 0 1 0 0 3.5 1.8 1.8 0 0 0 0-3.5ZM174.7 206.7a1.7 1.7 0 1 0 0 3.5 1.7 1.7 0 0 0 0-3.5ZM174.7 165.4a1.7 1.7 0 1 0 0 3.5 1.7 1.7 0 0 0 0-3.5ZM174.7 173.7a1.7 1.7 0 1 0 0 3.5 1.7 1.7 0 0 0 0-3.5ZM174.7 182a1.7 1.7 0 1 0 0 3.4 1.7 1.7 0 0 0 0-3.5ZM174.7 25a1.7 1.7 0 1 0 0 3.4 1.7 1.7 0 0 0 0-3.5ZM174.7 91a1.7 1.7 0 1 0 0 3.5 1.7 1.7 0 0 0 0-3.5ZM174.7 66.2a1.7 1.7 0 1 0 0 3.5 1.7 1.7 0 0 0 0-3.5ZM174.7 82.8a1.8 1.8 0 1 0 0 3.5 1.8 1.8 0 0 0 0-3.5ZM174.7 58a1.8 1.8 0 1 0 0 3.5 1.8 1.8 0 0 0 0-3.5ZM174.7 8.4a1.7 1.7 0 1 0 0 3.5 1.7 1.7 0 0 0 0-3.5ZM174.7 248a1.7 1.7 0 1 0 0 3.5 1.7 1.7 0 0 0 0-3.5ZM174.7 231.5a1.7 1.7 0 1 0 0 3.5 1.7 1.7 0 0 0 0-3.5ZM174.7 239.8a1.7 1.7 0 1 0 0 3.5 1.7 1.7 0 0 0 0-3.5ZM182.9 148.9a1.8 1.8 0 1 0 0 3.5 1.8 1.8 0 0 0 0-3.5ZM182.9 140.6a1.7 1.7 0 1 0 0 3.5 1.7 1.7 0 0 0 0-3.5ZM182.9 132.3a1.7 1.7 0 1 0 0 3.5 1.7 1.7 0 0 0 0-3.5ZM182.9 157.1a1.7 1.7 0 1 0 0 3.5 1.7 1.7 0 0 0 0-3.5ZM182.9 165.4a1.7 1.7 0 1 0 0 3.5 1.7 1.7 0 0 0 0-3.5ZM182.9 99.3a1.8 1.8 0 1 0 0 3.5 1.8 1.8 0 0 0 0-3.5ZM182.9 190.2a1.8 1.8 0 1 0 0 3.5 1.8 1.8 0 0 0 0-3.5ZM182.9 206.7a1.7 1.7 0 1 0 0 3.5 1.7 1.7 0 0 0 0-3.5ZM182.9 198.5a1.7 1.7 0 1 0 0 3.5 1.7 1.7 0 0 0 0-3.5ZM182.9 182a1.7 1.7 0 1 0 0 3.4 1.7 1.7 0 0 0 0-3.5ZM182.9 173.7a1.7 1.7 0 1 0 0 3.5 1.7 1.7 0 0 0 0-3.5ZM182.9 8.4a1.7 1.7 0 1 0 0 3.5 1.7 1.7 0 0 0 0-3.5ZM182.9 25a1.7 1.7 0 1 0 0 3.4 1.7 1.7 0 0 0 0-3.5ZM182.9 91a1.7 1.7 0 1 0 0 3.5 1.7 1.7 0 0 0 0-3.5ZM182.9 66.2a1.7 1.7 0 1 0 0 3.5 1.7 1.7 0 0 0 0-3.5ZM182.9 82.8a1.8 1.8 0 1 0 0 3.5 1.8 1.8 0 0 0 0-3.5ZM182.9 256.3a1.7 1.7 0 1 0 0 3.5 1.7 1.7 0 0 0 0-3.5ZM182.9 248a1.7 1.7 0 1 0 0 3.5 1.7 1.7 0 0 0 0-3.5ZM191.1 140.6a1.8 1.8 0 1 0 0 3.5 1.8 1.8 0 0 0 0-3.5ZM191.1 148.9a1.8 1.8 0 1 0 0 3.5 1.8 1.8 0 0 0 0-3.5ZM191.1 157.1a1.8 1.8 0 1 0 0 3.5 1.8 1.8 0 0 0 0-3.5ZM191.1 190.2a1.8 1.8 0 1 0 0 3.5 1.8 1.8 0 0 0 0-3.5ZM191.1 206.7a1.8 1.8 0 1 0 0 3.5 1.8 1.8 0 0 0 0-3.5ZM191.1 198.5a1.8 1.8 0 1 0 0 3.5 1.8 1.8 0 0 0 0-3.5ZM191.1 165.4a1.8 1.8 0 1 0 0 3.5 1.8 1.8 0 0 0 0-3.5ZM191.1 182a1.8 1.8 0 1 0 0 3.4 1.8 1.8 0 0 0 0-3.5ZM191.1 8.4a1.8 1.8 0 1 0 0 3.5 1.8 1.8 0 0 0 0-3.5ZM191.1 25a1.8 1.8 0 1 0 0 3.4 1.8 1.8 0 0 0 0-3.5ZM191.1 215a1.8 1.8 0 1 0 0 3.5 1.8 1.8 0 0 0 0-3.5ZM191.1 58a1.8 1.8 0 1 0 0 3.5 1.8 1.8 0 0 0 0-3.5ZM191.1 66.2a1.8 1.8 0 1 0 0 3.5 1.8 1.8 0 0 0 0-3.5ZM191.1 74.5c-1 0-1.7.8-1.7 1.7a1.8 1.8 0 1 0 1.7-1.7ZM191.1 33.2c-1 0-1.7.8-1.7 1.7a1.8 1.8 0 1 0 1.7-1.7ZM191.1 173.7a1.8 1.8 0 1 0 0 3.5 1.8 1.8 0 0 0 0-3.5ZM191.1 264.6a1.8 1.8 0 1 0 0 3.5 1.8 1.8 0 0 0 0-3.5ZM199.3 132.3a1.7 1.7 0 1 0 0 3.5 1.7 1.7 0 0 0 0-3.5ZM199.3 140.6a1.7 1.7 0 1 0 0 3.5 1.7 1.7 0 0 0 0-3.5ZM199.3 148.9a1.7 1.7 0 1 0 0 3.5 1.7 1.7 0 0 0 0-3.5ZM199.3 157.1a1.7 1.7 0 1 0 0 3.5 1.7 1.7 0 0 0 0-3.5ZM199.3 115.8a1.7 1.7 0 1 0 0 3.5 1.7 1.7 0 0 0 0-3.5ZM199.3 107.6a1.7 1.7 0 1 0 0 3.5 1.7 1.7 0 0 0 0-3.5ZM199.3 190.2a1.7 1.7 0 1 0 0 3.5 1.7 1.7 0 0 0 0-3.5ZM199.3 165.4a1.7 1.7 0 1 0 0 3.5 1.7 1.7 0 0 0 0-3.5ZM199.3 99.3a1.8 1.8 0 1 0 0 3.5 1.8 1.8 0 0 0 0-3.5ZM199.3 173.7a1.7 1.7 0 1 0 0 3.5 1.7 1.7 0 0 0 0-3.5ZM199.3 182a1.7 1.7 0 1 0 0 3.4 1.7 1.7 0 0 0 0-3.5ZM199.3 16.6a1.7 1.7 0 1 0 0 3.5 1.7 1.7 0 0 0 0-3.5ZM199.3 25a1.7 1.7 0 1 0 0 3.4 1.7 1.7 0 0 0 0-3.5ZM199.3 8.4a1.7 1.7 0 1 0 0 3.5 1.7 1.7 0 0 0 0-3.5ZM199.3 33.2a1.8 1.8 0 1 0 0 3.5 1.8 1.8 0 0 0 0-3.5ZM199.3 58a1.8 1.8 0 1 0 0 3.5 1.8 1.8 0 0 0 0-3.5ZM199.3 66.2a1.7 1.7 0 1 0 0 3.5 1.7 1.7 0 0 0 0-3.5ZM199.3 264.6a1.7 1.7 0 1 0 0 3.5 1.7 1.7 0 0 0 0-3.5ZM199.3 231.5a1.7 1.7 0 1 0 0 3.5 1.7 1.7 0 0 0 0-3.5ZM199.3 289.4a1.7 1.7 0 1 0 0 3.5 1.7 1.7 0 0 0 0-3.5ZM199.3 314.2a1.7 1.7 0 1 0 0 3.5 1.7 1.7 0 0 0 0-3.5ZM199.3 297.6a1.7 1.7 0 1 0 0 3.5 1.7 1.7 0 0 0 0-3.5ZM199.3 305.9a1.8 1.8 0 1 0 0 3.5 1.8 1.8 0 0 0 0-3.5ZM207.5 124a1.7 1.7 0 1 0 0 3.6 1.7 1.7 0 0 0 0-3.5ZM207.5 140.6c-1 0-1.7.8-1.7 1.8a1.7 1.7 0 1 0 3.5 0c0-1-.8-1.8-1.8-1.8ZM207.5 132.3a1.7 1.7 0 1 0 0 3.5 1.7 1.7 0 1 0 0-3.5ZM207.5 107.6c-1 0-1.7.7-1.7 1.7a1.7 1.7 0 1 0 3.5 0c0-1-.8-1.7-1.8-1.7ZM207.5 115.8a1.7 1.7 0 1 0 0 3.5 1.7 1.7 0 0 0 0-3.5ZM207.5 148.9c-1 0-1.7.8-1.7 1.7a1.7 1.7 0 1 0 1.7-1.7ZM207.5 182c-1 0-1.7.7-1.7 1.7a1.7 1.7 0 1 0 3.5 0c0-1-.8-1.8-1.8-1.8ZM207.5 157.1c-1 0-1.7.8-1.7 1.8a1.7 1.7 0 1 0 3.5 0c0-1-.8-1.8-1.8-1.8ZM207.5 173.7c-1 0-1.7.8-1.7 1.7a1.7 1.7 0 1 0 3.5 0c0-1-.8-1.7-1.8-1.7ZM207.5 165.4c-1 0-1.7.8-1.7 1.8a1.7 1.7 0 1 0 1.7-1.8ZM207.5 66.2c-1 0-1.7.8-1.7 1.8a1.7 1.7 0 1 0 3.5 0c0-1-.8-1.8-1.8-1.8ZM207.5 8.4c-1 0-1.7.8-1.7 1.7a1.7 1.7 0 1 0 3.5 0c0-1-.8-1.7-1.8-1.7ZM207.5 16.6c-1 0-1.7.8-1.7 1.8a1.7 1.7 0 1 0 3.5 0c0-1-.8-1.8-1.8-1.8ZM207.5 74.5a1.7 1.7 0 1 0 0 3.5 1.7 1.7 0 0 0 0-3.5ZM207.5 272.8c-1 0-1.7.8-1.7 1.8a1.7 1.7 0 1 0 3.5 0c0-1-.8-1.8-1.8-1.8ZM207.5 264.6c-1 0-1.7.8-1.7 1.7a1.7 1.7 0 1 0 3.5 0c0-1-.8-1.7-1.8-1.7ZM207.5 330.7a1.7 1.7 0 1 0 0 3.5 1.7 1.7 0 0 0 0-3.5ZM207.5 314.2c-1 0-1.7.7-1.7 1.7a1.7 1.7 0 1 0 3.5 0c0-1-.8-1.7-1.8-1.7ZM207.5 322.4c-1 0-1.7.8-1.7 1.8a1.7 1.7 0 1 0 3.5 0c0-1-.8-1.8-1.8-1.8ZM207.5 305.9a1.7 1.7 0 1 0 0 3.5 1.7 1.7 0 0 0 0-3.5ZM207.5 289.4c-1 0-1.7.7-1.7 1.7a1.7 1.7 0 1 0 3.5 0c0-1-.8-1.7-1.8-1.7ZM207.5 297.6c-1 0-1.7.8-1.7 1.8a1.7 1.7 0 1 0 3.5 0c0-1-.8-1.8-1.8-1.8ZM207.5 281.1c-1 0-1.7.8-1.7 1.7a1.7 1.7 0 1 0 1.7-1.7ZM215.7 140.6a1.7 1.7 0 1 0 0 3.5 1.7 1.7 0 0 0 0-3.5ZM215.7 124a1.8 1.8 0 1 0 0 3.6 1.8 1.8 0 0 0 0-3.5ZM215.7 132.3a1.7 1.7 0 1 0 0 3.5 1.7 1.7 0 0 0 0-3.5ZM215.7 148.9a1.7 1.7 0 1 0 0 3.5 1.7 1.7 0 0 0 0-3.5ZM215.7 99.3a1.8 1.8 0 1 0 0 3.5 1.8 1.8 0 0 0 0-3.5ZM215.7 173.7a1.7 1.7 0 1 0 0 3.5 1.7 1.7 0 0 0 0-3.5ZM215.7 157.1a1.7 1.7 0 1 0 0 3.5 1.7 1.7 0 0 0 0-3.5ZM215.7 8.4a1.7 1.7 0 1 0 0 3.5 1.7 1.7 0 0 0 0-3.5ZM215.7 16.6a1.7 1.7 0 1 0 0 3.5 1.7 1.7 0 0 0 0-3.5ZM215.7.1a1.7 1.7 0 1 0 0 3.5 1.7 1.7 0 0 0 0-3.5ZM215.7 91a1.7 1.7 0 1 0 0 3.5 1.7 1.7 0 0 0 0-3.5ZM215.7 74.5a1.7 1.7 0 1 0 0 3.5 1.7 1.7 0 0 0 0-3.5ZM215.7 66.2a1.7 1.7 0 1 0 0 3.5 1.7 1.7 0 0 0 0-3.5ZM215.7 82.8a1.8 1.8 0 1 0 0 3.5 1.8 1.8 0 0 0 0-3.5ZM215.7 115.8a1.7 1.7 0 1 0 0 3.5 1.7 1.7 0 0 0 0-3.5ZM215.7 372a1.8 1.8 0 1 0 0 3.5 1.8 1.8 0 0 0 0-3.5ZM215.7 380.3a1.7 1.7 0 1 0 0 3.5 1.7 1.7 0 0 0 0-3.5ZM215.7 405a1.7 1.7 0 1 0 0 3.6 1.7 1.7 0 0 0 0-3.5ZM215.7 396.8a1.8 1.8 0 1 0 0 3.5 1.8 1.8 0 0 0 0-3.5ZM215.7 347.2a1.7 1.7 0 1 0 0 3.5 1.7 1.7 0 0 0 0-3.5ZM215.7 355.5a1.7 1.7 0 1 0 0 3.5 1.7 1.7 0 0 0 0-3.5ZM215.7 339a1.7 1.7 0 1 0 0 3.4 1.7 1.7 0 0 0 0-3.5ZM215.7 363.7a1.7 1.7 0 1 0 0 3.5 1.7 1.7 0 0 0 0-3.5ZM215.7 413.3a1.7 1.7 0 1 0 0 3.5 1.7 1.7 0 0 0 0-3.5ZM215.7 438.1a1.8 1.8 0 1 0 0 3.5 1.8 1.8 0 0 0 0-3.5ZM215.7 429.9a1.7 1.7 0 1 0 0 3.4 1.7 1.7 0 0 0 0-3.4ZM215.7 421.6a1.7 1.7 0 1 0 0 3.5 1.7 1.7 0 0 0 0-3.5ZM215.7 281.1a1.7 1.7 0 1 0 0 3.5 1.7 1.7 0 0 0 0-3.5ZM215.7 264.6a1.7 1.7 0 1 0 0 3.5 1.7 1.7 0 0 0 0-3.5ZM215.7 239.8a1.7 1.7 0 1 0 0 3.5 1.7 1.7 0 0 0 0-3.5ZM215.7 272.8a1.7 1.7 0 1 0 0 3.5 1.7 1.7 0 0 0 0-3.5ZM215.7 322.4a1.7 1.7 0 1 0 0 3.5 1.7 1.7 0 0 0 0-3.5ZM215.7 314.2a1.7 1.7 0 1 0 0 3.5 1.7 1.7 0 0 0 0-3.5ZM215.7 305.9a1.8 1.8 0 1 0 0 3.5 1.8 1.8 0 0 0 0-3.5ZM215.7 330.7a1.8 1.8 0 1 0 0 3.5 1.8 1.8 0 0 0 0-3.5ZM215.7 297.6a1.7 1.7 0 1 0 0 3.5 1.7 1.7 0 0 0 0-3.5ZM215.7 289.4a1.7 1.7 0 1 0 0 3.5 1.7 1.7 0 0 0 0-3.5ZM215.7 388.5a1.7 1.7 0 1 0 0 3.5 1.7 1.7 0 0 0 0-3.5ZM224 289.4a1.8 1.8 0 1 0 0 3.5 1.8 1.8 0 0 0 0-3.5ZM224 272.8a1.8 1.8 0 1 0 0 3.5 1.8 1.8 0 0 0 0-3.5ZM224 281.1a1.8 1.8 0 1 0 0 3.5 1.8 1.8 0 0 0 0-3.5ZM224 297.6a1.8 1.8 0 1 0 0 3.5 1.8 1.8 0 0 0 0-3.5ZM224 305.9a1.8 1.8 0 1 0 0 3.5 1.8 1.8 0 0 0 0-3.5ZM224 322.4a1.8 1.8 0 1 0 0 3.5 1.8 1.8 0 0 0 0-3.5ZM224 314.2a1.8 1.8 0 1 0 0 3.5 1.8 1.8 0 0 0 0-3.5ZM224 264.6a1.8 1.8 0 1 0 0 3.5 1.8 1.8 0 0 0 0-3.5ZM224 330.7a1.8 1.8 0 1 0 0 3.5 1.8 1.8 0 0 0 0-3.5ZM224 421.6a1.8 1.8 0 1 0 0 3.5 1.8 1.8 0 0 0 0-3.5ZM224 429.9a1.8 1.8 0 1 0 0 3.5 1.8 1.8 0 0 0 0-3.5ZM224 438.1a1.8 1.8 0 1 0 0 3.5 1.8 1.8 0 0 0 0-3.5ZM224 413.3a1.8 1.8 0 1 0 0 3.5 1.8 1.8 0 0 0 0-3.5ZM224 405a1.8 1.8 0 1 0 0 3.6 1.8 1.8 0 0 0 0-3.5ZM224 446.4a1.8 1.8 0 1 0 0 3.5 1.8 1.8 0 0 0 0-3.5ZM232.2 446.4a1.8 1.8 0 1 0 0 3.5 1.8 1.8 0 0 0 0-3.5ZM224 396.8a1.8 1.8 0 1 0 0 3.5 1.8 1.8 0 0 0 0-3.5ZM224 388.5a1.8 1.8 0 1 0 0 3.5 1.8 1.8 0 0 0 0-3.5ZM224 355.5a1.8 1.8 0 1 0 0 3.5 1.8 1.8 0 0 0 0-3.5ZM224 363.7a1.8 1.8 0 1 0 0 3.5 1.8 1.8 0 0 0 0-3.5ZM224 347.2a1.8 1.8 0 1 0 0 3.5 1.8 1.8 0 0 0 0-3.5ZM224 339a1.8 1.8 0 1 0 0 3.4 1.8 1.8 0 0 0 0-3.5ZM224 380.3a1.8 1.8 0 1 0 0 3.5 1.8 1.8 0 0 0 0-3.5ZM224 372a1.8 1.8 0 1 0 0 3.5 1.8 1.8 0 0 0 0-3.5ZM224 41.4a1.8 1.8 0 1 0 0 3.5 1.8 1.8 0 0 0 0-3.5ZM224 82.8a1.8 1.8 0 1 0 0 3.5 1.8 1.8 0 0 0 0-3.5ZM224 33.2a1.8 1.8 0 0 0 0 3.5 1.8 1.8 0 1 0 0-3.5ZM224 8.4a1.8 1.8 0 1 0 0 3.5 1.8 1.8 0 0 0 0-3.5ZM224 157.1a1.8 1.8 0 1 0 0 3.5 1.8 1.8 0 0 0 0-3.5ZM224 124a1.8 1.8 0 1 0 0 3.6 1.8 1.8 0 0 0 0-3.5ZM224 148.9a1.8 1.8 0 1 0 0 3.5 1.8 1.8 0 0 0 0-3.5ZM224 99.3a1.8 1.8 0 1 0 0 3.5 1.8 1.8 0 0 0 0-3.5ZM224 132.3a1.7 1.7 0 1 0 0 3.5 1.7 1.7 0 0 0 0-3.5ZM224 140.6a1.8 1.8 0 1 0 0 3.5 1.8 1.8 0 0 0 0-3.5ZM232.2 91a1.7 1.7 0 1 0 0 3.5 1.7 1.7 0 0 0 0-3.5ZM232.2 132.3a1.7 1.7 0 1 0 0 3.5 1.7 1.7 0 0 0 0-3.5ZM232.2 115.8a1.7 1.7 0 1 0 0 3.5 1.7 1.7 0 0 0 0-3.5ZM232.2 124a1.8 1.8 0 1 0 0 3.6 1.8 1.8 0 0 0 0-3.5ZM232.2 165.4a1.7 1.7 0 1 0 0 3.5 1.7 1.7 0 0 0 0-3.5ZM232.2 140.6a1.7 1.7 0 1 0 0 3.5 1.7 1.7 0 0 0 0-3.5ZM232.2 25a1.7 1.7 0 1 0 0 3.4 1.7 1.7 0 0 0 0-3.5ZM232.2 16.6a1.7 1.7 0 1 0 0 3.5 1.7 1.7 0 0 0 0-3.5ZM232.2 33.2a1.8 1.8 0 1 0 0 3.5 1.8 1.8 0 0 0 0-3.5ZM232.2 82.8a1.8 1.8 0 1 0 0 3.5 1.8 1.8 0 0 0 0-3.5ZM232.2 372a1.8 1.8 0 1 0 0 3.5 1.8 1.8 0 0 0 0-3.5ZM232.2 355.5a1.7 1.7 0 1 0 0 3.5 1.7 1.7 0 0 0 0-3.5ZM232.2 363.7a1.7 1.7 0 1 0 0 3.5 1.7 1.7 0 0 0 0-3.5ZM232.2 347.2a1.7 1.7 0 1 0 0 3.5 1.7 1.7 0 0 0 0-3.5ZM232.2 380.3a1.7 1.7 0 1 0 0 3.5 1.7 1.7 0 0 0 0-3.5ZM232.2 339a1.7 1.7 0 1 0 0 3.4 1.7 1.7 0 0 0 0-3.5ZM232.2 396.8a1.8 1.8 0 1 0 0 3.5 1.8 1.8 0 0 0 0-3.5ZM232.2 330.7a1.8 1.8 0 1 0 0 3.5 1.8 1.8 0 0 0 0-3.5ZM232.2 388.5a1.7 1.7 0 1 0 0 3.5 1.7 1.7 0 0 0 0-3.5ZM232.2 264.6a1.7 1.7 0 1 0 0 3.5 1.7 1.7 0 0 0 0-3.5ZM232.2 297.6a1.7 1.7 0 1 0 0 3.5 1.7 1.7 0 0 0 0-3.5ZM232.2 305.9a1.8 1.8 0 1 0 0 3.5 1.8 1.8 0 0 0 0-3.5ZM232.2 314.2a1.7 1.7 0 1 0 0 3.5 1.7 1.7 0 0 0 0-3.5ZM232.2 322.4a1.7 1.7 0 1 0 0 3.5 1.7 1.7 0 0 0 0-3.5ZM232.2 281.1a1.8 1.8 0 1 0 0 3.5 1.8 1.8 0 0 0 0-3.5ZM232.2 289.4a1.7 1.7 0 1 0 0 3.5 1.7 1.7 0 0 0 0-3.5ZM232.2 272.8a1.7 1.7 0 1 0 0 3.5 1.7 1.7 0 0 0 0-3.5ZM240.4 297.6a1.7 1.7 0 1 0 0 3.5 1.7 1.7 0 0 0 0-3.5ZM240.4 305.9a1.8 1.8 0 1 0 0 3.5 1.8 1.8 0 0 0 0-3.5ZM240.4 289.4a1.7 1.7 0 1 0 0 3.5 1.7 1.7 0 0 0 0-3.5ZM240.4 281.1a1.8 1.8 0 1 0 0 3.5 1.8 1.8 0 0 0 0-3.5ZM240.4 322.4a1.7 1.7 0 1 0 0 3.5 1.7 1.7 0 0 0 0-3.5ZM240.4 314.2a1.7 1.7 0 1 0 0 3.5 1.7 1.7 0 0 0 0-3.5ZM240.4 272.8a1.7 1.7 0 1 0 0 3.5 1.7 1.7 0 0 0 0-3.5ZM240.4 330.7a1.8 1.8 0 1 0 0 3.5 1.8 1.8 0 0 0 0-3.5ZM240.4 347.2a1.8 1.8 0 1 0 0 3.5 1.8 1.8 0 0 0 0-3.5ZM240.4 339a1.7 1.7 0 1 0 0 3.4 1.7 1.7 0 0 0 0-3.5ZM240.4 388.5a1.7 1.7 0 1 0 0 3.5 1.7 1.7 0 0 0 0-3.5ZM240.4 429.9a1.8 1.8 0 1 0 0 3.5 1.8 1.8 0 0 0 0-3.5ZM240.4 363.7a1.7 1.7 0 1 0 0 3.5 1.7 1.7 0 0 0 0-3.5ZM240.4 355.5a1.7 1.7 0 1 0 0 3.5 1.7 1.7 0 0 0 0-3.5ZM240.4 380.3a1.8 1.8 0 1 0 0 3.5 1.8 1.8 0 0 0 0-3.5ZM240.4 372a1.8 1.8 0 1 0 0 3.5 1.8 1.8 0 0 0 0-3.5ZM240.4 33.2a1.8 1.8 0 1 0 0 3.5 1.8 1.8 0 0 0 0-3.5ZM240.4 41.4a1.7 1.7 0 1 0 0 3.5 1.7 1.7 0 0 0 0-3.5ZM240.4 16.6a1.7 1.7 0 1 0 0 3.5 1.7 1.7 0 0 0 0-3.5ZM240.4 25a1.7 1.7 0 1 0 0 3.4 1.7 1.7 0 0 0 0-3.5ZM240.4 8.4a1.7 1.7 0 1 0 0 3.5 1.7 1.7 0 0 0 0-3.5ZM240.4 132.3a1.7 1.7 0 1 0 0 3.5 1.7 1.7 0 0 0 0-3.5ZM240.4 140.6a1.7 1.7 0 1 0 0 3.5 1.7 1.7 0 0 0 0-3.5ZM248.6 297.6a1.7 1.7 0 1 0 0 3.5 1.7 1.7 0 0 0 0-3.5ZM248.6 289.4a1.7 1.7 0 1 0 0 3.5 1.7 1.7 0 0 0 0-3.5ZM248.6 281.1a1.7 1.7 0 1 0 0 3.5 1.7 1.7 0 0 0 0-3.5ZM248.6 330.7a1.8 1.8 0 1 0 0 3.5 1.8 1.8 0 0 0 0-3.5ZM248.6 314.2a1.7 1.7 0 1 0 0 3.5 1.7 1.7 0 0 0 0-3.5ZM248.6 305.9a1.8 1.8 0 1 0 0 3.5 1.8 1.8 0 0 0 0-3.5ZM248.6 322.4a1.7 1.7 0 1 0 0 3.5 1.7 1.7 0 0 0 0-3.5ZM248.6 339a1.7 1.7 0 1 0 0 3.4 1.7 1.7 0 0 0 0-3.5ZM248.6 355.5a1.7 1.7 0 1 0 0 3.5 1.7 1.7 0 0 0 0-3.5ZM248.6 347.2a1.7 1.7 0 1 0 0 3.5 1.7 1.7 0 0 0 0-3.5ZM248.6 363.7a1.7 1.7 0 1 0 0 3.5 1.7 1.7 0 0 0 0-3.5ZM248.6 372a1.8 1.8 0 1 0 0 3.5 1.8 1.8 0 0 0 0-3.5ZM248.6 380.3a1.7 1.7 0 1 0 0 3.5 1.7 1.7 0 0 0 0-3.5ZM248.6 429.9a1.7 1.7 0 1 0 0 3.4 1.7 1.7 0 0 0 0-3.4ZM248.6 33.2a1.8 1.8 0 1 0 0 3.5 1.8 1.8 0 0 0 0-3.5ZM248.6 41.4a1.7 1.7 0 1 0 0 3.5 1.7 1.7 0 0 0 0-3.5ZM248.6 49.7a1.7 1.7 0 1 0 0 3.5 1.7 1.7 0 0 0 0-3.5ZM248.6 25a1.7 1.7 0 1 0 0 3.4 1.7 1.7 0 0 0 0-3.5ZM248.6 16.6a1.7 1.7 0 1 0 0 3.5 1.7 1.7 0 0 0 0-3.5ZM248.6 8.4a1.7 1.7 0 1 0 0 3.5 1.7 1.7 0 0 0 0-3.5ZM248.6 157.1a1.7 1.7 0 1 0 0 3.5 1.7 1.7 0 0 0 0-3.5ZM248.6 148.9a1.7 1.7 0 1 0 0 3.5 1.7 1.7 0 0 0 0-3.5ZM248.6 140.6a1.7 1.7 0 1 0 0 3.5 1.7 1.7 0 0 0 0-3.5ZM256.8 16.6a1.7 1.7 0 1 0 0 3.5 1.7 1.7 0 0 0 0-3.5ZM256.8 25a1.7 1.7 0 1 0 0 3.4 1.7 1.7 0 0 0 0-3.5ZM256.8 58a1.7 1.7 0 1 0 0 3.5 1.7 1.7 0 0 0 0-3.5ZM256.8 82.8a1.8 1.8 0 1 0 0 3.5 1.8 1.8 0 0 0 0-3.5ZM256.8 33.2a1.8 1.8 0 1 0 0 3.5 1.8 1.8 0 0 0 0-3.5ZM256.8 41.4a1.7 1.7 0 1 0 0 3.5 1.7 1.7 0 0 0 0-3.5ZM256.8 49.7a1.7 1.7 0 1 0 0 3.5 1.7 1.7 0 0 0 0-3.5ZM256.8 372a1.8 1.8 0 1 0 0 3.5 1.8 1.8 0 0 0 0-3.5ZM256.8 363.7a1.7 1.7 0 1 0 0 3.5 1.7 1.7 0 0 0 0-3.5ZM256.8 347.2a1.7 1.7 0 1 0 0 3.5 1.7 1.7 0 0 0 0-3.5ZM256.8 355.5a1.7 1.7 0 1 0 0 3.5 1.7 1.7 0 0 0 0-3.5ZM256.8 339a1.7 1.7 0 1 0 0 3.4 1.7 1.7 0 0 0 0-3.5ZM256.8 322.4a1.7 1.7 0 1 0 0 3.5 1.7 1.7 0 0 0 0-3.5ZM256.8 330.7a1.8 1.8 0 1 0 0 3.5 1.8 1.8 0 0 0 0-3.5ZM256.8 305.9a1.8 1.8 0 1 0 0 3.5 1.8 1.8 0 0 0 0-3.5ZM256.8 281.1a1.7 1.7 0 1 0 0 3.5 1.7 1.7 0 0 0 0-3.5ZM256.8 314.2a1.7 1.7 0 1 0 0 3.5 1.7 1.7 0 0 0 0-3.5ZM256.8 297.6a1.7 1.7 0 1 0 0 3.5 1.7 1.7 0 0 0 0-3.5ZM256.8 289.4a1.7 1.7 0 1 0 0 3.5 1.7 1.7 0 0 0 0-3.5ZM265 99.3a1.8 1.8 0 1 0 0 3.5 1.8 1.8 0 0 0 0-3.5ZM265 91a1.7 1.7 0 1 0 0 3.5 1.7 1.7 0 0 0 0-3.5ZM265 8.4a1.7 1.7 0 1 0 0 3.5 1.7 1.7 0 0 0 0-3.5ZM265 16.6a1.7 1.7 0 1 0 0 3.5 1.7 1.7 0 0 0 0-3.5ZM265 25a1.7 1.7 0 1 0 0 3.4 1.7 1.7 0 0 0 0-3.5ZM265 82.8a1.8 1.8 0 1 0 0 3.5 1.8 1.8 0 0 0 0-3.5ZM265 74.5a1.8 1.8 0 1 0 0 3.5 1.8 1.8 0 0 0 0-3.5ZM265 66.2a1.7 1.7 0 1 0 0 3.5 1.7 1.7 0 0 0 0-3.5ZM265 41.4a1.7 1.7 0 1 0 0 3.5 1.7 1.7 0 0 0 0-3.5ZM265 49.7a1.8 1.8 0 1 0 0 3.5 1.8 1.8 0 0 0 0-3.5ZM265 58a1.8 1.8 0 1 0 0 3.5 1.8 1.8 0 0 0 0-3.5ZM265 363.7a1.7 1.7 0 1 0 0 3.5 1.7 1.7 0 0 0 0-3.5ZM265 339a1.7 1.7 0 1 0 0 3.4 1.7 1.7 0 0 0 0-3.5ZM265 355.5a1.7 1.7 0 1 0 0 3.5 1.7 1.7 0 0 0 0-3.5ZM265 330.7a1.8 1.8 0 1 0 0 3.5 1.8 1.8 0 0 0 0-3.5ZM265 347.2a1.8 1.8 0 1 0 0 3.5 1.8 1.8 0 0 0 0-3.5ZM265 289.4a1.7 1.7 0 1 0 0 3.5 1.7 1.7 0 0 0 0-3.5ZM265 297.6a1.7 1.7 0 1 0 0 3.5 1.7 1.7 0 0 0 0-3.5ZM265 314.2a1.7 1.7 0 1 0 0 3.5 1.7 1.7 0 0 0 0-3.5ZM265 305.9a1.8 1.8 0 1 0 0 3.5 1.8 1.8 0 0 0 0-3.5ZM265 322.4a1.7 1.7 0 1 0 0 3.5 1.7 1.7 0 0 0 0-3.5ZM265 33.2a1.8 1.8 0 1 0 0 3.5 1.8 1.8 0 0 0 0-3.5ZM273.2 297.6a1.7 1.7 0 1 0 0 3.5 1.7 1.7 0 0 0 0-3.5ZM273.2 314.2a1.7 1.7 0 1 0 0 3.5 1.7 1.7 0 0 0 0-3.5ZM273.2 305.9a1.8 1.8 0 1 0 0 3.5 1.8 1.8 0 0 0 0-3.5ZM273.2 322.4a1.7 1.7 0 1 0 0 3.5 1.7 1.7 0 0 0 0-3.5ZM273.2 330.7a1.8 1.8 0 1 0 0 3.5 1.8 1.8 0 0 0 0-3.5ZM273.2 339a1.7 1.7 0 1 0 0 3.4 1.7 1.7 0 0 0 0-3.5ZM273.2 58a1.7 1.7 0 1 0 0 3.5 1.7 1.7 0 0 0 0-3.5ZM273.2 49.7a1.7 1.7 0 1 0 0 3.5 1.7 1.7 0 0 0 0-3.5ZM273.2 33.2a1.8 1.8 0 1 0 0 3.5 1.8 1.8 0 0 0 0-3.5ZM273.2 41.4a1.7 1.7 0 1 0 0 3.5 1.7 1.7 0 0 0 0-3.5ZM273.2 66.2a1.7 1.7 0 1 0 0 3.5 1.7 1.7 0 0 0 0-3.5ZM273.2 82.8a1.8 1.8 0 1 0 0 3.5 1.8 1.8 0 0 0 0-3.5ZM273.2 74.5a1.7 1.7 0 1 0 0 3.5 1.7 1.7 0 0 0 0-3.5ZM273.2 16.6a1.7 1.7 0 1 0 0 3.5 1.7 1.7 0 0 0 0-3.5ZM273.2.1a1.7 1.7 0 1 0 0 3.5 1.7 1.7 0 0 0 0-3.5ZM273.2 25a1.7 1.7 0 1 0 0 3.4 1.7 1.7 0 0 0 0-3.5ZM273.2 91a1.7 1.7 0 1 0 0 3.5 1.7 1.7 0 0 0 0-3.5ZM273.2 107.6a1.7 1.7 0 1 0 0 3.5 1.7 1.7 0 0 0 0-3.5ZM273.2 99.3a1.8 1.8 0 1 0 0 3.5 1.8 1.8 0 0 0 0-3.5ZM273.2 347.2a1.7 1.7 0 1 0 0 3.5 1.7 1.7 0 0 0 0-3.5ZM281.4 16.6a1.7 1.7 0 1 0 0 3.5 1.7 1.7 0 0 0 0-3.5ZM281.4 25a1.7 1.7 0 1 0 0 3.4 1.7 1.7 0 0 0 0-3.5ZM281.4 33.2a1.8 1.8 0 1 0 0 3.5 1.8 1.8 0 0 0 0-3.5ZM281.4 8.4a1.7 1.7 0 1 0 0 3.5 1.7 1.7 0 0 0 0-3.5ZM281.4 41.4a1.7 1.7 0 1 0 0 3.5 1.7 1.7 0 0 0 0-3.5ZM281.4.1a1.7 1.7 0 1 0 0 3.5 1.7 1.7 0 0 0 0-3.5ZM281.4 99.3a1.8 1.8 0 1 0 0 3.5 1.8 1.8 0 0 0 0-3.5ZM281.4 82.8a1.8 1.8 0 1 0 0 3.5 1.8 1.8 0 0 0 0-3.5ZM281.4 74.5a1.7 1.7 0 1 0 0 3.5 1.7 1.7 0 0 0 0-3.5ZM281.4 91a1.7 1.7 0 1 0 0 3.5 1.7 1.7 0 0 0 0-3.5ZM281.4 49.7a1.7 1.7 0 1 0 0 3.5 1.7 1.7 0 0 0 0-3.5ZM281.4 66.2a1.7 1.7 0 1 0 0 3.5 1.7 1.7 0 0 0 0-3.5ZM281.4 58a1.7 1.7 0 1 0 0 3.5 1.7 1.7 0 0 0 0-3.5ZM281.4 314.2a1.7 1.7 0 1 0 0 3.5 1.7 1.7 0 0 0 0-3.5ZM281.4 347.2a1.7 1.7 0 1 0 0 3.5 1.7 1.7 0 0 0 0-3.5ZM281.4 297.6a1.7 1.7 0 1 0 0 3.5 1.7 1.7 0 0 0 0-3.5ZM281.4 322.4a1.7 1.7 0 1 0 0 3.5 1.7 1.7 0 0 0 0-3.5ZM281.4 330.7a1.8 1.8 0 1 0 0 3.5 1.8 1.8 0 0 0 0-3.5ZM281.4 305.9a1.8 1.8 0 1 0 0 3.5 1.8 1.8 0 0 0 0-3.5ZM281.4 339a1.7 1.7 0 1 0 0 3.4 1.7 1.7 0 0 0 0-3.5ZM289.6.1a1.8 1.8 0 1 0 0 3.5 1.8 1.8 0 0 0 0-3.5ZM289.6 8.4a1.8 1.8 0 1 0 0 3.5 1.8 1.8 0 0 0 0-3.5ZM289.6 16.6a1.8 1.8 0 1 0 0 3.5 1.8 1.8 0 0 0 0-3.5ZM289.6 25a1.8 1.8 0 1 0 0 3.4 1.8 1.8 0 0 0 0-3.5ZM289.6 49.7a1.8 1.8 0 1 0 0 3.5 1.8 1.8 0 0 0 0-3.5ZM289.6 66.2a1.8 1.8 0 1 0 0 3.5 1.8 1.8 0 0 0 0-3.5ZM289.6 74.5a1.8 1.8 0 1 0 0 3.5 1.8 1.8 0 0 0 0-3.5ZM289.6 41.4a1.8 1.8 0 1 0 0 3.5 1.8 1.8 0 0 0 0-3.5ZM289.6 33.2a1.8 1.8 0 0 0 0 3.5 1.8 1.8 0 0 0 0-3.5ZM289.6 82.8a1.8 1.8 0 1 0 0 3.5 1.8 1.8 0 0 0 0-3.5ZM289.6 322.4a1.8 1.8 0 1 0 0 3.5 1.8 1.8 0 0 0 0-3.5ZM289.6 305.9a1.8 1.8 0 1 0 0 3.5 1.8 1.8 0 0 0 0-3.5ZM289.6 314.2a1.8 1.8 0 1 0 0 3.5 1.8 1.8 0 0 0 0-3.5ZM289.6 58a1.8 1.8 0 1 0 0 3.5 1.8 1.8 0 0 0 0-3.5ZM297.9 58a1.7 1.7 0 1 0 0 3.5 1.7 1.7 0 0 0 0-3.5ZM297.9 49.7a1.7 1.7 0 1 0 0 3.5 1.7 1.7 0 0 0 0-3.5ZM297.9 41.4a1.7 1.7 0 1 0 0 3.5 1.7 1.7 0 0 0 0-3.5ZM297.9 66.2a1.7 1.7 0 1 0 0 3.5 1.7 1.7 0 0 0 0-3.5ZM297.9 82.8a1.8 1.8 0 1 0 0 3.5 1.8 1.8 0 0 0 0-3.5ZM297.9 33.2a1.8 1.8 0 1 0 0 3.5 1.8 1.8 0 0 0 0-3.5ZM297.9 74.5a1.7 1.7 0 1 0 0 3.5 1.7 1.7 0 0 0 0-3.5ZM297.9 25a1.7 1.7 0 1 0 0 3.4 1.7 1.7 0 0 0 0-3.5ZM297.9.1a1.7 1.7 0 1 0 0 3.5 1.7 1.7 0 0 0 0-3.5ZM297.9 16.6a1.7 1.7 0 1 0 0 3.5 1.7 1.7 0 0 0 0-3.5ZM297.9 8.4a1.7 1.7 0 1 0 0 3.5 1.7 1.7 0 0 0 0-3.5ZM306 74.5a1.8 1.8 0 1 0 0 3.5 1.8 1.8 0 0 0 0-3.5ZM306 8.4a1.7 1.7 0 1 0 0 3.5 1.7 1.7 0 0 0 0-3.5ZM306 .1a1.7 1.7 0 1 0 0 3.5 1.7 1.7 0 0 0 0-3.5ZM306 66.2a1.7 1.7 0 1 0 0 3.5 1.7 1.7 0 0 0 0-3.5ZM306 41.4a1.7 1.7 0 1 0 0 3.5 1.7 1.7 0 0 0 0-3.5ZM306 49.7a1.8 1.8 0 1 0 0 3.5 1.8 1.8 0 0 0 0-3.5ZM306 58a1.8 1.8 0 1 0 0 3.5 1.8 1.8 0 0 0 0-3.5ZM306 25a1.7 1.7 0 1 0 0 3.4 1.7 1.7 0 0 0 0-3.5ZM306 16.6a1.7 1.7 0 1 0 0 3.5 1.7 1.7 0 0 0 0-3.5ZM306 33.2a1.8 1.8 0 1 0 0 3.5 1.8 1.8 0 0 0 0-3.5ZM314.3 61.5a1.7 1.7 0 1 0 0-3.5 1.7 1.7 0 0 0 0 3.5ZM314.3 28.4a1.7 1.7 0 1 0 0-3.5 1.7 1.7 0 0 0 0 3.5ZM314.3 11.9a1.7 1.7 0 1 0 0-3.5 1.7 1.7 0 0 0 0 3.5ZM314.3 20.1a1.7 1.7 0 1 0 0-3.4 1.7 1.7 0 0 0 0 3.4ZM314.3 3.6a1.7 1.7 0 1 0 0-3.5 1.7 1.7 0 0 0 0 3.5ZM314.3 53.2a1.7 1.7 0 1 0 0-3.5 1.7 1.7 0 0 0 0 3.5ZM314.3 36.7a1.7 1.7 0 1 0 0-3.5 1.7 1.7 0 0 0 0 3.5ZM314.3 78a1.7 1.7 0 1 0 0-3.5 1.7 1.7 0 0 0 0 3.5ZM314.3 69.7a1.7 1.7 0 1 0 0-3.5 1.7 1.7 0 0 0 0 3.5ZM314.3 45a1.7 1.7 0 1 0 0-3.6 1.7 1.7 0 0 0 0 3.5ZM322.5 25a1.7 1.7 0 1 0 0 3.4 1.7 1.7 0 0 0 0-3.5ZM322.5 16.6a1.7 1.7 0 1 0 0 3.5 1.7 1.7 0 0 0 0-3.5ZM322.5 99.3a1.8 1.8 0 1 0 0 3.5 1.8 1.8 0 0 0 0-3.5ZM322.5 33.2a1.8 1.8 0 1 0 0 3.5 1.8 1.8 0 0 0 0-3.5ZM322.5 8.4a1.7 1.7 0 1 0 0 3.5 1.7 1.7 0 0 0 0-3.5ZM322.5 41.4a1.7 1.7 0 1 0 0 3.5 1.7 1.7 0 0 0 0-3.5ZM322.5 49.7a1.7 1.7 0 1 0 0 3.5 1.7 1.7 0 0 0 0-3.5ZM322.5 91a1.7 1.7 0 1 0 0 3.5 1.7 1.7 0 0 0 0-3.5ZM322.5 58a1.8 1.8 0 1 0 0 3.5 1.8 1.8 0 0 0 0-3.5ZM322.5 66.2a1.7 1.7 0 1 0 0 3.5 1.7 1.7 0 0 0 0-3.5ZM330.7 99.3a1.8 1.8 0 0 0 0 3.5 1.8 1.8 0 0 0 0-3.5ZM330.7 16.6a1.8 1.8 0 1 0 0 3.6 1.8 1.8 0 0 0 0-3.6ZM330.7 25a1.8 1.8 0 1 0 0 3.4 1.8 1.8 0 0 0 0-3.5ZM330.7 41.4a1.8 1.8 0 1 0 0 3.5 1.8 1.8 0 0 0 0-3.5ZM330.7 49.7c-1 0-1.8.8-1.8 1.8a1.8 1.8 0 1 0 1.8-1.8ZM339 99.3a1.8 1.8 0 1 0 0 3.5 1.8 1.8 0 0 0 0-3.5ZM339 8.4a1.7 1.7 0 1 0 0 3.5 1.7 1.7 0 0 0 0-3.5ZM339 16.6a1.7 1.7 0 1 0 0 3.5 1.7 1.7 0 0 0 0-3.5ZM339 91a1.7 1.7 0 1 0 0 3.5 1.7 1.7 0 0 0 0-3.5ZM339 256.3a1.7 1.7 0 1 0 0 3.5 1.7 1.7 0 0 0 0-3.5ZM339 248a1.7 1.7 0 1 0 0 3.5 1.7 1.7 0 0 0 0-3.5ZM339 231.5a1.7 1.7 0 1 0 0 3.5 1.7 1.7 0 0 0 0-3.5ZM339 239.8a1.7 1.7 0 1 0 0 3.5 1.7 1.7 0 0 0 0-3.5ZM347.1 215a1.7 1.7 0 1 0 0 3.5 1.7 1.7 0 0 0 0-3.5ZM347.1 8.4a1.7 1.7 0 1 0 0 3.5 1.7 1.7 0 0 0 0-3.5ZM347.1 223.3a1.7 1.7 0 1 0 0 3.4 1.7 1.7 0 0 0 0-3.4ZM347.1 231.5a1.7 1.7 0 1 0 0 3.5 1.7 1.7 0 0 0 0-3.5ZM347.1 264.6a1.7 1.7 0 1 0 0 3.5 1.7 1.7 0 0 0 0-3.5ZM347.1 256.3a1.7 1.7 0 1 0 0 3.5 1.7 1.7 0 0 0 0-3.5ZM347.1 248a1.7 1.7 0 1 0 0 3.5 1.7 1.7 0 0 0 0-3.5ZM347.1 239.8a1.7 1.7 0 1 0 0 3.5 1.7 1.7 0 0 0 0-3.5ZM355.3 140.6a1.7 1.7 0 1 0 0 3.5 1.7 1.7 0 0 0 0-3.5ZM355.3 132.3a1.7 1.7 0 1 0 0 3.5 1.7 1.7 0 0 0 0-3.5ZM355.3 223.3a1.7 1.7 0 1 0 0 3.5 1.7 1.7 0 0 0 0-3.5ZM355.3 206.7a1.7 1.7 0 1 0 0 3.5 1.7 1.7 0 0 0 0-3.5ZM355.3 215a1.8 1.8 0 1 0 0 3.5 1.8 1.8 0 0 0 0-3.5ZM355.3 190.2a1.8 1.8 0 1 0 0 3.5 1.8 1.8 0 0 0 0-3.5ZM355.3 173.7a1.7 1.7 0 1 0 0 3.5 1.7 1.7 0 0 0 0-3.5ZM355.3 182a1.7 1.7 0 1 0 0 3.4 1.7 1.7 0 0 0 0-3.5ZM355.3 231.5a1.7 1.7 0 1 0 0 3.5 1.7 1.7 0 0 0 0-3.5ZM355.3 256.3a1.7 1.7 0 1 0 0 3.5 1.7 1.7 0 0 0 0-3.5ZM355.3 264.6a1.7 1.7 0 1 0 0 3.5 1.7 1.7 0 0 0 0-3.5ZM355.3 272.8a1.7 1.7 0 1 0 0 3.5 1.7 1.7 0 0 0 0-3.5ZM355.3 239.8a1.7 1.7 0 1 0 0 3.5 1.7 1.7 0 0 0 0-3.5ZM355.3 248a1.7 1.7 0 1 0 0 3.5 1.7 1.7 0 0 0 0-3.5ZM363.5 223.3a1.7 1.7 0 1 0 0 3.4 1.7 1.7 0 0 0 0-3.4ZM363.5 148.9a1.7 1.7 0 1 0 0 3.5 1.7 1.7 0 0 0 0-3.5ZM363.5 115.8a1.7 1.7 0 1 0 0 3.5 1.7 1.7 0 0 0 0-3.5ZM363.5 124a1.8 1.8 0 1 0 0 3.6 1.8 1.8 0 0 0 0-3.5ZM363.5 132.3a1.7 1.7 0 1 0 0 3.5 1.7 1.7 0 0 0 0-3.5ZM363.5 206.7a1.7 1.7 0 1 0 0 3.5 1.7 1.7 0 0 0 0-3.5ZM363.5 173.7a1.7 1.7 0 1 0 0 3.5 1.7 1.7 0 0 0 0-3.5ZM363.5 215a1.7 1.7 0 1 0 0 3.5 1.7 1.7 0 0 0 0-3.5ZM363.5 198.5a1.7 1.7 0 1 0 0 3.5 1.7 1.7 0 0 0 0-3.5ZM363.5 190.2a1.7 1.7 0 1 0 0 3.5 1.7 1.7 0 0 0 0-3.5ZM363.5 231.5a1.7 1.7 0 1 0 0 3.5 1.7 1.7 0 0 0 0-3.5ZM363.5 182a1.7 1.7 0 1 0 0 3.4 1.7 1.7 0 0 0 0-3.5ZM363.5 239.8a1.7 1.7 0 1 0 0 3.5 1.7 1.7 0 0 0 0-3.5ZM363.5 264.6a1.7 1.7 0 1 0 0 3.5 1.7 1.7 0 0 0 0-3.5ZM363.5 272.8a1.7 1.7 0 1 0 0 3.5 1.7 1.7 0 0 0 0-3.5ZM363.5 248a1.7 1.7 0 1 0 0 3.5 1.7 1.7 0 0 0 0-3.5ZM363.5 256.3a1.7 1.7 0 1 0 0 3.5 1.7 1.7 0 0 0 0-3.5ZM371.8 140.6a1.7 1.7 0 1 0 0 3.5 1.7 1.7 0 0 0 0-3.5ZM371.8 132.3a1.7 1.7 0 1 0 0 3.5 1.7 1.7 0 0 0 0-3.5ZM371.8 148.9a1.7 1.7 0 1 0 0 3.5 1.7 1.7 0 0 0 0-3.5ZM371.8 157.1a1.7 1.7 0 1 0 0 3.5 1.7 1.7 0 0 0 0-3.5ZM371.8 124a1.8 1.8 0 1 0 0 3.6 1.8 1.8 0 0 0 0-3.5ZM371.8 190.2a1.7 1.7 0 1 0 0 3.5 1.7 1.7 0 0 0 0-3.5ZM371.8 198.5a1.7 1.7 0 1 0 0 3.5 1.7 1.7 0 0 0 0-3.5ZM371.8 206.7a1.7 1.7 0 1 0 0 3.5 1.7 1.7 0 0 0 0-3.5ZM371.8 182a1.7 1.7 0 1 0 0 3.4 1.7 1.7 0 0 0 0-3.5ZM371.8 165.4a1.7 1.7 0 1 0 0 3.5 1.7 1.7 0 0 0 0-3.5ZM371.8 173.7a1.7 1.7 0 1 0 0 3.5 1.7 1.7 0 0 0 0-3.5ZM371.8 215a1.7 1.7 0 1 0 0 3.5 1.7 1.7 0 0 0 0-3.5ZM371.8 223.3a1.7 1.7 0 1 0 0 3.4 1.7 1.7 0 0 0 0-3.4ZM371.8 256.3a1.7 1.7 0 1 0 0 3.5 1.7 1.7 0 0 0 0-3.5ZM371.8 264.6a1.7 1.7 0 1 0 0 3.5 1.7 1.7 0 0 0 0-3.5ZM371.8 272.8a1.7 1.7 0 1 0 0 3.5 1.7 1.7 0 0 0 0-3.5ZM371.8 231.5a1.7 1.7 0 1 0 0 3.5 1.7 1.7 0 0 0 0-3.5ZM371.8 239.8a1.7 1.7 0 1 0 0 3.5 1.7 1.7 0 0 0 0-3.5ZM371.8 248a1.7 1.7 0 1 0 0 3.5 1.7 1.7 0 0 0 0-3.5ZM380 148.9a1.8 1.8 0 1 0 0 3.5 1.8 1.8 0 0 0 0-3.5ZM380 198.5a1.8 1.8 0 1 0 0 3.5 1.8 1.8 0 0 0 0-3.5ZM380 206.7a1.8 1.8 0 1 0 0 3.5 1.8 1.8 0 0 0 0-3.5ZM380 182a1.8 1.8 0 1 0 0 3.4 1.8 1.8 0 0 0 0-3.5ZM380 165.4a1.8 1.8 0 1 0 0 3.5 1.8 1.8 0 0 0 0-3.5ZM380 157.1a1.8 1.8 0 1 0 0 3.5 1.8 1.8 0 0 0 0-3.5ZM380 173.7a1.8 1.8 0 1 0 0 3.5 1.8 1.8 0 0 0 0-3.5ZM380 215a1.8 1.8 0 1 0 0 3.5 1.8 1.8 0 0 0 0-3.5ZM380 256.3a1.8 1.8 0 1 0 0 3.5 1.8 1.8 0 0 0 0-3.5ZM380 239.8a1.8 1.8 0 1 0 0 3.5 1.8 1.8 0 0 0 0-3.5ZM380 264.6a1.8 1.8 0 1 0 0 3.5 1.8 1.8 0 0 0 0-3.5ZM380 272.8a1.8 1.8 0 1 0 0 3.5 1.8 1.8 0 0 0 0-3.5ZM380 248a1.8 1.8 0 1 0 0 3.5 1.8 1.8 0 0 0 0-3.5ZM380 223.3a1.8 1.8 0 1 0 0 3.5 1.8 1.8 0 0 0 0-3.5ZM380 231.5a1.8 1.8 0 1 0 0 3.5 1.8 1.8 0 0 0 0-3.5ZM388.2 148.9a1.7 1.7 0 1 0 0 3.5 1.7 1.7 0 0 0 0-3.5ZM388.2 140.6a1.7 1.7 0 1 0 0 3.5 1.7 1.7 0 0 0 0-3.5ZM388.2 198.5a1.7 1.7 0 1 0 0 3.5 1.7 1.7 0 0 0 0-3.5ZM388.2 157.1a1.7 1.7 0 1 0 0 3.5 1.7 1.7 0 0 0 0-3.5ZM388.2 206.7a1.7 1.7 0 1 0 0 3.5 1.7 1.7 0 0 0 0-3.5ZM388.2 215a1.7 1.7 0 1 0 0 3.5 1.7 1.7 0 0 0 0-3.5ZM388.2 165.4a1.7 1.7 0 1 0 0 3.5 1.7 1.7 0 0 0 0-3.5ZM388.2 223.3a1.7 1.7 0 1 0 0 3.4 1.7 1.7 0 0 0 0-3.4ZM388.2 264.6a1.7 1.7 0 1 0 0 3.5 1.7 1.7 0 0 0 0-3.5ZM388.2 272.8a1.7 1.7 0 1 0 0 3.5 1.7 1.7 0 0 0 0-3.5ZM388.2 248a1.7 1.7 0 1 0 0 3.5 1.7 1.7 0 0 0 0-3.5ZM388.2 231.5a1.7 1.7 0 1 0 0 3.5 1.7 1.7 0 0 0 0-3.5ZM388.2 239.8a1.7 1.7 0 1 0 0 3.5 1.7 1.7 0 0 0 0-3.5ZM388.2 256.3a1.7 1.7 0 1 0 0 3.5 1.7 1.7 0 0 0 0-3.5ZM388.2 115.8a1.7 1.7 0 1 0 0 3.5 1.7 1.7 0 0 0 0-3.5ZM396.4 239.8a1.7 1.7 0 1 0 0 3.5 1.7 1.7 0 0 0 0-3.5ZM396.4 264.6a1.7 1.7 0 1 0 0 3.5 1.7 1.7 0 0 0 0-3.5ZM396.4 256.3a1.7 1.7 0 1 0 0 3.5 1.7 1.7 0 0 0 0-3.5ZM396.4 248a1.7 1.7 0 1 0 0 3.5 1.7 1.7 0 0 0 0-3.5ZM396.4 281.1a1.8 1.8 0 1 0 0 3.5 1.8 1.8 0 0 0 0-3.5ZM396.4 272.8a1.7 1.7 0 1 0 0 3.5 1.7 1.7 0 0 0 0-3.5ZM396.4 289.4a1.7 1.7 0 1 0 0 3.5 1.7 1.7 0 0 0 0-3.5ZM396.4 99.3a1.8 1.8 0 1 0 0 3.5 1.8 1.8 0 0 0 0-3.5ZM396.4 33.2a1.8 1.8 0 1 0 0 3.5 1.8 1.8 0 0 0 0-3.5ZM396.4 231.5a1.7 1.7 0 1 0 0 3.5 1.7 1.7 0 0 0 0-3.5ZM396.4 107.6a1.7 1.7 0 1 0 0 3.5 1.7 1.7 0 0 0 0-3.5ZM396.4 115.8a1.7 1.7 0 1 0 0 3.5 1.7 1.7 0 0 0 0-3.5ZM396.4 206.7a1.7 1.7 0 1 0 0 3.5 1.7 1.7 0 0 0 0-3.5ZM396.4 223.3a1.7 1.7 0 1 0 0 3.4 1.7 1.7 0 0 0 0-3.4ZM396.4 215a1.8 1.8 0 1 0 0 3.5 1.8 1.8 0 0 0 0-3.5ZM396.4 198.5a1.7 1.7 0 1 0 0 3.5 1.7 1.7 0 0 0 0-3.5ZM396.4 132.3a1.7 1.7 0 1 0 0 3.5 1.7 1.7 0 0 0 0-3.5ZM396.4 165.4a1.7 1.7 0 1 0 0 3.5 1.7 1.7 0 0 0 0-3.5ZM396.4 140.6a1.7 1.7 0 1 0 0 3.5 1.7 1.7 0 0 0 0-3.5ZM396.4 124a1.8 1.8 0 1 0 0 3.6 1.8 1.8 0 0 0 0-3.5ZM396.4 157.1a1.7 1.7 0 1 0 0 3.5 1.7 1.7 0 0 0 0-3.5ZM396.4 148.9a1.8 1.8 0 1 0 0 3.5 1.8 1.8 0 0 0 0-3.5ZM404.6 124a1.8 1.8 0 1 0 0 3.6 1.8 1.8 0 0 0 0-3.5ZM404.6 132.3a1.7 1.7 0 1 0 0 3.5 1.7 1.7 0 0 0 0-3.5ZM404.6 115.8a1.7 1.7 0 1 0 0 3.5 1.7 1.7 0 0 0 0-3.5ZM404.6 140.6a1.7 1.7 0 1 0 0 3.5 1.7 1.7 0 0 0 0-3.5ZM404.6 107.6a1.7 1.7 0 1 0 0 3.5 1.7 1.7 0 0 0 0-3.5ZM404.6 148.9a1.8 1.8 0 1 0 0 3.5 1.8 1.8 0 0 0 0-3.5ZM404.6 99.3a1.8 1.8 0 1 0 0 3.5 1.8 1.8 0 0 0 0-3.5ZM404.6 157.1a1.7 1.7 0 1 0 0 3.5 1.7 1.7 0 0 0 0-3.5ZM404.6 198.5a1.7 1.7 0 1 0 0 3.5 1.7 1.7 0 0 0 0-3.5ZM404.6 206.7a1.7 1.7 0 1 0 0 3.5 1.7 1.7 0 0 0 0-3.5ZM404.6 173.7a1.7 1.7 0 1 0 0 3.5 1.7 1.7 0 0 0 0-3.5ZM404.6 91a1.7 1.7 0 1 0 0 3.5 1.7 1.7 0 0 0 0-3.5ZM404.6 33.2a1.8 1.8 0 1 0 0 3.5 1.8 1.8 0 0 0 0-3.5ZM404.6 41.4a1.7 1.7 0 1 0 0 3.5 1.7 1.7 0 0 0 0-3.5ZM404.6 256.3a1.7 1.7 0 1 0 0 3.5 1.7 1.7 0 0 0 0-3.5ZM404.6 339a1.7 1.7 0 1 0 0 3.4 1.7 1.7 0 0 0 0-3.5ZM404.6 347.2a1.8 1.8 0 1 0 0 3.5 1.8 1.8 0 0 0 0-3.5ZM404.6 215a1.8 1.8 0 1 0 0 3.5 1.8 1.8 0 0 0 0-3.5ZM404.6 272.8a1.7 1.7 0 1 0 0 3.5 1.7 1.7 0 0 0 0-3.5ZM404.6 264.6a1.7 1.7 0 1 0 0 3.5 1.7 1.7 0 0 0 0-3.5ZM404.6 239.8a1.7 1.7 0 1 0 0 3.5 1.7 1.7 0 0 0 0-3.5ZM404.6 248a1.7 1.7 0 1 0 0 3.5 1.7 1.7 0 0 0 0-3.5ZM404.6 330.7a1.8 1.8 0 1 0 0 3.5 1.8 1.8 0 0 0 0-3.5ZM404.6 223.3a1.7 1.7 0 1 0 0 3.4 1.7 1.7 0 0 0 0-3.4ZM404.6 231.5a1.7 1.7 0 1 0 0 3.5 1.7 1.7 0 0 0 0-3.5ZM404.6 314.2a1.7 1.7 0 1 0 0 3.5 1.7 1.7 0 0 0 0-3.5ZM404.6 281.1a1.8 1.8 0 1 0 0 3.5 1.8 1.8 0 0 0 0-3.5ZM404.6 322.4a1.7 1.7 0 1 0 0 3.5 1.7 1.7 0 0 0 0-3.5ZM404.6 305.9a1.8 1.8 0 1 0 0 3.5 1.8 1.8 0 0 0 0-3.5ZM404.6 289.4a1.7 1.7 0 1 0 0 3.5 1.7 1.7 0 0 0 0-3.5ZM404.6 297.6a1.7 1.7 0 1 0 0 3.5 1.7 1.7 0 0 0 0-3.5ZM412.8 124a1.8 1.8 0 1 0 0 3.6 1.8 1.8 0 0 0 0-3.5ZM412.8 140.6a1.7 1.7 0 1 0 0 3.5 1.7 1.7 0 0 0 0-3.5ZM412.8 132.3a1.7 1.7 0 1 0 0 3.5 1.7 1.7 0 0 0 0-3.5ZM412.8 107.6a1.7 1.7 0 1 0 0 3.5 1.7 1.7 0 0 0 0-3.5ZM412.8 115.8a1.7 1.7 0 1 0 0 3.5 1.7 1.7 0 0 0 0-3.5ZM412.8 148.9a1.7 1.7 0 1 0 0 3.5 1.7 1.7 0 0 0 0-3.5ZM412.8 99.3a1.8 1.8 0 1 0 0 3.5 1.8 1.8 0 0 0 0-3.5ZM412.8 157.1a1.7 1.7 0 1 0 0 3.5 1.7 1.7 0 0 0 0-3.5ZM412.8 206.7a1.7 1.7 0 1 0 0 3.5 1.7 1.7 0 0 0 0-3.5ZM412.8 165.4a1.7 1.7 0 1 0 0 3.5 1.7 1.7 0 0 0 0-3.5ZM412.8 182a1.7 1.7 0 1 0 0 3.4 1.7 1.7 0 0 0 0-3.5ZM412.8 25a1.7 1.7 0 1 0 0 3.4 1.7 1.7 0 0 0 0-3.5ZM412.8 215a1.7 1.7 0 1 0 0 3.5 1.7 1.7 0 0 0 0-3.5ZM412.8 91a1.7 1.7 0 1 0 0 3.5 1.7 1.7 0 0 0 0-3.5ZM412.8 82.8a1.8 1.8 0 1 0 0 3.5 1.8 1.8 0 0 0 0-3.5ZM412.8 33.2a1.8 1.8 0 1 0 0 3.5 1.8 1.8 0 0 0 0-3.5ZM412.8 372a1.8 1.8 0 1 0 0 3.5 1.8 1.8 0 0 0 0-3.5ZM412.8 355.5a1.7 1.7 0 1 0 0 3.5 1.7 1.7 0 0 0 0-3.5ZM412.8 363.7a1.7 1.7 0 1 0 0 3.5 1.7 1.7 0 0 0 0-3.5ZM412.8 347.2a1.7 1.7 0 1 0 0 3.5 1.7 1.7 0 0 0 0-3.5ZM412.8 223.3a1.7 1.7 0 1 0 0 3.4 1.7 1.7 0 0 0 0-3.4ZM412.8 322.4a1.7 1.7 0 1 0 0 3.5 1.7 1.7 0 0 0 0-3.5ZM412.8 264.6a1.7 1.7 0 1 0 0 3.5 1.7 1.7 0 0 0 0-3.5ZM412.8 272.8a1.7 1.7 0 1 0 0 3.5 1.7 1.7 0 0 0 0-3.5ZM412.8 281.1a1.7 1.7 0 1 0 0 3.5 1.7 1.7 0 0 0 0-3.5ZM412.8 339a1.7 1.7 0 1 0 0 3.4 1.7 1.7 0 0 0 0-3.5ZM412.8 248a1.7 1.7 0 1 0 0 3.5 1.7 1.7 0 0 0 0-3.5ZM412.8 231.5a1.7 1.7 0 1 0 0 3.5 1.7 1.7 0 0 0 0-3.5ZM412.8 239.8a1.7 1.7 0 1 0 0 3.5 1.7 1.7 0 0 0 0-3.5ZM412.8 256.3a1.7 1.7 0 1 0 0 3.5 1.7 1.7 0 0 0 0-3.5ZM412.8 314.2a1.7 1.7 0 1 0 0 3.5 1.7 1.7 0 0 0 0-3.5ZM412.8 305.9a1.8 1.8 0 1 0 0 3.5 1.8 1.8 0 0 0 0-3.5ZM412.8 330.7a1.8 1.8 0 1 0 0 3.5 1.8 1.8 0 0 0 0-3.5ZM412.8 289.4a1.7 1.7 0 1 0 0 3.5 1.7 1.7 0 0 0 0-3.5ZM412.8 297.6a1.7 1.7 0 1 0 0 3.5 1.7 1.7 0 0 0 0-3.5ZM421 132.3a1.7 1.7 0 1 0 0 3.5 1.7 1.7 0 0 0 0-3.5ZM421 140.6a1.7 1.7 0 1 0 0 3.5 1.7 1.7 0 0 0 0-3.5ZM421 148.9a1.7 1.7 0 1 0 0 3.5 1.7 1.7 0 0 0 0-3.5ZM421 206.7a1.7 1.7 0 1 0 0 3.5 1.7 1.7 0 0 0 0-3.5ZM421 182a1.7 1.7 0 1 0 0 3.4 1.7 1.7 0 0 0 0-3.5ZM421 157.1a1.7 1.7 0 1 0 0 3.5 1.7 1.7 0 0 0 0-3.5ZM421 165.4a1.7 1.7 0 1 0 0 3.5 1.7 1.7 0 0 0 0-3.5ZM421 173.7a1.7 1.7 0 1 0 0 3.5 1.7 1.7 0 0 0 0-3.5ZM421 25a1.7 1.7 0 1 0 0 3.4 1.7 1.7 0 0 0 0-3.5ZM421 215a1.7 1.7 0 1 0 0 3.5 1.7 1.7 0 0 0 0-3.5ZM421 74.5a1.7 1.7 0 1 0 0 3.5 1.7 1.7 0 0 0 0-3.5ZM421 82.8a1.8 1.8 0 1 0 0 3.5 1.8 1.8 0 0 0 0-3.5ZM421 91a1.7 1.7 0 1 0 0 3.5 1.7 1.7 0 0 0 0-3.5ZM421 41.4a1.7 1.7 0 1 0 0 3.5 1.7 1.7 0 0 0 0-3.5ZM421 330.7a1.8 1.8 0 1 0 0 3.5 1.8 1.8 0 0 0 0-3.5ZM421 380.3a1.7 1.7 0 1 0 0 3.5 1.7 1.7 0 0 0 0-3.5ZM421 363.7a1.7 1.7 0 1 0 0 3.5 1.7 1.7 0 0 0 0-3.5ZM421 347.2a1.7 1.7 0 1 0 0 3.5 1.7 1.7 0 0 0 0-3.5ZM421 355.5a1.7 1.7 0 1 0 0 3.5 1.7 1.7 0 0 0 0-3.5ZM421 372a1.8 1.8 0 1 0 0 3.5 1.8 1.8 0 0 0 0-3.5ZM421 256.3a1.7 1.7 0 1 0 0 3.5 1.7 1.7 0 0 0 0-3.5ZM421 223.3a1.7 1.7 0 1 0 0 3.4 1.7 1.7 0 0 0 0-3.4ZM421 248a1.7 1.7 0 1 0 0 3.5 1.7 1.7 0 0 0 0-3.5ZM421 264.6a1.7 1.7 0 1 0 0 3.5 1.7 1.7 0 0 0 0-3.5ZM421 239.8a1.7 1.7 0 1 0 0 3.5 1.7 1.7 0 0 0 0-3.5ZM421 231.5a1.7 1.7 0 1 0 0 3.5 1.7 1.7 0 0 0 0-3.5ZM421 272.8a1.7 1.7 0 1 0 0 3.5 1.7 1.7 0 0 0 0-3.5ZM421 281.1a1.7 1.7 0 1 0 0 3.5 1.7 1.7 0 0 0 0-3.5ZM421 305.9a1.8 1.8 0 1 0 0 3.5 1.8 1.8 0 0 0 0-3.5ZM421 314.2a1.7 1.7 0 1 0 0 3.5 1.7 1.7 0 0 0 0-3.5ZM421 339a1.7 1.7 0 1 0 0 3.4 1.7 1.7 0 0 0 0-3.5ZM421 322.4a1.7 1.7 0 1 0 0 3.5 1.7 1.7 0 0 0 0-3.5ZM421 289.4a1.7 1.7 0 1 0 0 3.5 1.7 1.7 0 0 0 0-3.5ZM421 297.6a1.7 1.7 0 1 0 0 3.5 1.7 1.7 0 0 0 0-3.5ZM429.2 314.2a1.7 1.7 0 1 0 0 3.5 1.7 1.7 0 0 0 0-3.5ZM429.2 157.1a1.7 1.7 0 1 0 0 3.5 1.7 1.7 0 0 0 0-3.5ZM429.2 140.6a1.7 1.7 0 1 0 0 3.5 1.7 1.7 0 0 0 0-3.5ZM429.2 148.9a1.7 1.7 0 1 0 0 3.5 1.7 1.7 0 0 0 0-3.5ZM429.2 99.3a1.8 1.8 0 1 0 0 3.5 1.8 1.8 0 0 0 0-3.5ZM429.2 107.6a1.7 1.7 0 1 0 0 3.5 1.7 1.7 0 0 0 0-3.5ZM429.2 124a1.8 1.8 0 1 0 0 3.6 1.8 1.8 0 0 0 0-3.5ZM429.2 215a1.7 1.7 0 1 0 0 3.5 1.7 1.7 0 0 0 0-3.5ZM429.2 132.3a1.7 1.7 0 1 0 0 3.5 1.7 1.7 0 0 0 0-3.5ZM429.2 165.4a1.7 1.7 0 1 0 0 3.5 1.7 1.7 0 0 0 0-3.5ZM429.2 206.7a1.7 1.7 0 1 0 0 3.5 1.7 1.7 0 0 0 0-3.5ZM429.2 173.7a1.7 1.7 0 1 0 0 3.5 1.7 1.7 0 0 0 0-3.5ZM429.2 25a1.7 1.7 0 1 0 0 3.4 1.7 1.7 0 0 0 0-3.5ZM429.2 74.5a1.7 1.7 0 1 0 0 3.5 1.7 1.7 0 0 0 0-3.5ZM429.2 82.8a1.8 1.8 0 1 0 0 3.5 1.8 1.8 0 0 0 0-3.5ZM429.2 380.3a1.7 1.7 0 1 0 0 3.5 1.7 1.7 0 0 0 0-3.5ZM429.2 355.5a1.7 1.7 0 1 0 0 3.5 1.7 1.7 0 0 0 0-3.5ZM429.2 372a1.8 1.8 0 1 0 0 3.5 1.8 1.8 0 0 0 0-3.5ZM429.2 347.2a1.7 1.7 0 1 0 0 3.5 1.7 1.7 0 0 0 0-3.5ZM429.2 363.7a1.7 1.7 0 1 0 0 3.5 1.7 1.7 0 0 0 0-3.5ZM429.2 223.3a1.7 1.7 0 1 0 0 3.4 1.7 1.7 0 0 0 0-3.4ZM429.2 289.4a1.7 1.7 0 1 0 0 3.5 1.7 1.7 0 0 0 0-3.5ZM429.2 256.3a1.7 1.7 0 1 0 0 3.5 1.7 1.7 0 0 0 0-3.5ZM429.2 272.8a1.7 1.7 0 1 0 0 3.5 1.7 1.7 0 0 0 0-3.5ZM429.2 248a1.7 1.7 0 1 0 0 3.5 1.7 1.7 0 0 0 0-3.5ZM429.2 281.1a1.7 1.7 0 1 0 0 3.5 1.7 1.7 0 0 0 0-3.5ZM429.2 239.8a1.7 1.7 0 1 0 0 3.5 1.7 1.7 0 0 0 0-3.5ZM429.2 339a1.7 1.7 0 1 0 0 3.4 1.7 1.7 0 0 0 0-3.5ZM429.2 231.5a1.7 1.7 0 1 0 0 3.5 1.7 1.7 0 0 0 0-3.5ZM429.2 264.6a1.7 1.7 0 1 0 0 3.5 1.7 1.7 0 0 0 0-3.5ZM429.2 322.4a1.7 1.7 0 1 0 0 3.5 1.7 1.7 0 0 0 0-3.5ZM429.2 297.6a1.7 1.7 0 1 0 0 3.5 1.7 1.7 0 0 0 0-3.5ZM429.2 330.7a1.8 1.8 0 1 0 0 3.5 1.8 1.8 0 0 0 0-3.5ZM429.2 305.9a1.8 1.8 0 1 0 0 3.5 1.8 1.8 0 0 0 0-3.5ZM437.4 148.9a1.7 1.7 0 1 0 0 3.5 1.7 1.7 0 0 0 0-3.5ZM437.4 99.3a1.8 1.8 0 1 0 0 3.5 1.8 1.8 0 0 0 0-3.5ZM437.4 140.6a1.7 1.7 0 1 0 0 3.5 1.7 1.7 0 0 0 0-3.5ZM437.4 107.6a1.7 1.7 0 1 0 0 3.5 1.7 1.7 0 0 0 0-3.5ZM437.4 124a1.8 1.8 0 1 0 0 3.6 1.8 1.8 0 0 0 0-3.5ZM437.4 115.8a1.7 1.7 0 1 0 0 3.5 1.7 1.7 0 0 0 0-3.5ZM437.4 132.3a1.7 1.7 0 1 0 0 3.5 1.7 1.7 0 0 0 0-3.5ZM437.4 206.7a1.7 1.7 0 1 0 0 3.5 1.7 1.7 0 0 0 0-3.5ZM437.4 157.1a1.7 1.7 0 1 0 0 3.5 1.7 1.7 0 0 0 0-3.5ZM437.4 91a1.7 1.7 0 1 0 0 3.5 1.7 1.7 0 0 0 0-3.5ZM437.4 165.4a1.7 1.7 0 1 0 0 3.5 1.7 1.7 0 0 0 0-3.5ZM437.4 173.7a1.7 1.7 0 1 0 0 3.5 1.7 1.7 0 0 0 0-3.5ZM437.4 182a1.7 1.7 0 1 0 0 3.4 1.7 1.7 0 0 0 0-3.5ZM437.4 215a1.7 1.7 0 1 0 0 3.5 1.7 1.7 0 0 0 0-3.5ZM437.4 66.2a1.7 1.7 0 1 0 0 3.5 1.7 1.7 0 0 0 0-3.5ZM437.4 82.8a1.8 1.8 0 1 0 0 3.5 1.8 1.8 0 0 0 0-3.5ZM437.4 74.5a1.7 1.7 0 1 0 0 3.5 1.7 1.7 0 0 0 0-3.5ZM437.4 363.7a1.7 1.7 0 1 0 0 3.5 1.7 1.7 0 0 0 0-3.5ZM437.4 355.5a1.7 1.7 0 1 0 0 3.5 1.7 1.7 0 0 0 0-3.5ZM437.4 347.2a1.7 1.7 0 1 0 0 3.5 1.7 1.7 0 0 0 0-3.5ZM437.4 372a1.8 1.8 0 1 0 0 3.5 1.8 1.8 0 0 0 0-3.5ZM437.4 339a1.7 1.7 0 1 0 0 3.4 1.7 1.7 0 0 0 0-3.5ZM437.4 223.3a1.7 1.7 0 1 0 0 3.4 1.7 1.7 0 0 0 0-3.4ZM437.4 281.1a1.7 1.7 0 1 0 0 3.5 1.7 1.7 0 0 0 0-3.5ZM437.4 256.3a1.7 1.7 0 1 0 0 3.5 1.7 1.7 0 0 0 0-3.5ZM437.4 272.8a1.7 1.7 0 1 0 0 3.5 1.7 1.7 0 0 0 0-3.5ZM437.4 264.6a1.7 1.7 0 1 0 0 3.5 1.7 1.7 0 0 0 0-3.5ZM437.4 231.5a1.7 1.7 0 1 0 0 3.5 1.7 1.7 0 0 0 0-3.5ZM437.4 239.8a1.7 1.7 0 1 0 0 3.5 1.7 1.7 0 0 0 0-3.5ZM437.4 248a1.7 1.7 0 1 0 0 3.5 1.7 1.7 0 0 0 0-3.5ZM437.4 297.6a1.7 1.7 0 1 0 0 3.5 1.7 1.7 0 0 0 0-3.5ZM437.4 314.2a1.7 1.7 0 1 0 0 3.5 1.7 1.7 0 0 0 0-3.5ZM437.4 322.4a1.7 1.7 0 1 0 0 3.5 1.7 1.7 0 0 0 0-3.5ZM437.4 305.9a1.8 1.8 0 1 0 0 3.5 1.8 1.8 0 0 0 0-3.5ZM437.4 289.4a1.7 1.7 0 1 0 0 3.5 1.7 1.7 0 0 0 0-3.5ZM437.4 330.7a1.8 1.8 0 1 0 0 3.5 1.8 1.8 0 0 0 0-3.5ZM445.7 91a1.8 1.8 0 1 0 0 3.5 1.8 1.8 0 0 0 0-3.5ZM445.7 124a1.8 1.8 0 1 0 0 3.6 1.8 1.8 0 0 0 0-3.5ZM445.7 99.3a1.8 1.8 0 1 0 0 3.5 1.8 1.8 0 0 0 0-3.5ZM445.7 148.9a1.8 1.8 0 1 0 0 3.5 1.8 1.8 0 0 0 0-3.5ZM445.7 115.8a1.8 1.8 0 1 0 0 3.5 1.8 1.8 0 0 0 0-3.5ZM445.7 107.6a1.8 1.8 0 1 0 0 3.5 1.8 1.8 0 0 0 0-3.5ZM445.7 140.6a1.8 1.8 0 1 0 0 3.5 1.8 1.8 0 0 0 0-3.5ZM445.7 157.1a1.8 1.8 0 1 0 0 3.5 1.8 1.8 0 0 0 0-3.5ZM445.7 206.7a1.8 1.8 0 1 0 0 3.5 1.8 1.8 0 0 0 0-3.5ZM445.7 190.2a1.8 1.8 0 1 0 0 3.5 1.8 1.8 0 0 0 0-3.5ZM445.7 182a1.8 1.8 0 1 0 0 3.4 1.8 1.8 0 0 0 0-3.5ZM445.7 165.4a1.8 1.8 0 1 0 0 3.5 1.8 1.8 0 0 0 0-3.5ZM445.7 173.7a1.8 1.8 0 1 0 0 3.5 1.8 1.8 0 0 0 0-3.5ZM445.7 132.3a1.7 1.7 0 1 0 0 3.5 1.7 1.7 0 0 0 0-3.5ZM445.7 215a1.8 1.8 0 1 0 0 3.5 1.8 1.8 0 0 0 0-3.5ZM445.7 74.5a1.8 1.8 0 1 0 0 3.5 1.8 1.8 0 0 0 0-3.5ZM445.7 82.8a1.8 1.8 0 1 0 0 3.5 1.8 1.8 0 0 0 0-3.5ZM445.7 363.7a1.8 1.8 0 1 0 0 3.5 1.8 1.8 0 0 0 0-3.5ZM445.7 347.2a1.8 1.8 0 1 0 0 3.5 1.8 1.8 0 0 0 0-3.5ZM445.7 355.5a1.8 1.8 0 1 0 0 3.5 1.8 1.8 0 0 0 0-3.5ZM445.7 223.3a1.8 1.8 0 1 0 0 3.5 1.8 1.8 0 0 0 0-3.5ZM445.7 339a1.8 1.8 0 1 0 0 3.4 1.8 1.8 0 0 0 0-3.5ZM445.7 330.7a1.8 1.8 0 1 0 0 3.5 1.8 1.8 0 0 0 0-3.5ZM445.7 272.8a1.8 1.8 0 1 0 0 3.5 1.8 1.8 0 0 0 0-3.5ZM445.7 248a1.8 1.8 0 1 0 0 3.5 1.8 1.8 0 0 0 0-3.5ZM445.7 264.6a1.8 1.8 0 1 0 0 3.5 1.8 1.8 0 0 0 0-3.5ZM445.7 231.5a1.8 1.8 0 1 0 0 3.5 1.8 1.8 0 0 0 0-3.5ZM445.7 239.8a1.8 1.8 0 1 0 0 3.5 1.8 1.8 0 0 0 0-3.5ZM445.7 256.3a1.8 1.8 0 1 0 0 3.5 1.8 1.8 0 0 0 0-3.5ZM445.7 281.1a1.8 1.8 0 1 0 0 3.5 1.8 1.8 0 0 0 0-3.5ZM445.7 322.4a1.8 1.8 0 1 0 0 3.5 1.8 1.8 0 0 0 0-3.5ZM445.7 305.9a1.8 1.8 0 1 0 0 3.5 1.8 1.8 0 0 0 0-3.5ZM445.7 314.2a1.8 1.8 0 1 0 0 3.5 1.8 1.8 0 0 0 0-3.5ZM445.7 297.6a1.8 1.8 0 1 0 0 3.5 1.8 1.8 0 0 0 0-3.5ZM445.7 289.4a1.8 1.8 0 1 0 0 3.5 1.8 1.8 0 0 0 0-3.5ZM453.9 99.3a1.8 1.8 0 1 0 0 3.5 1.8 1.8 0 0 0 0-3.5ZM453.9 140.6a1.7 1.7 0 1 0 0 3.5 1.7 1.7 0 0 0 0-3.5ZM453.9 148.9a1.7 1.7 0 1 0 0 3.5 1.7 1.7 0 0 0 0-3.5ZM453.9 115.8a1.7 1.7 0 1 0 0 3.5 1.7 1.7 0 0 0 0-3.5ZM453.9 107.6a1.7 1.7 0 1 0 0 3.5 1.7 1.7 0 0 0 0-3.5ZM453.9 124a1.8 1.8 0 1 0 0 3.6 1.8 1.8 0 0 0 0-3.5ZM453.9 157.1a1.7 1.7 0 1 0 0 3.5 1.7 1.7 0 0 0 0-3.5ZM453.9 132.3a1.7 1.7 0 1 0 0 3.5 1.7 1.7 0 0 0 0-3.5ZM453.9 206.7a1.7 1.7 0 1 0 0 3.5 1.7 1.7 0 0 0 0-3.5ZM453.9 215a1.7 1.7 0 1 0 0 3.5 1.7 1.7 0 0 0 0-3.5ZM453.9 165.4a1.7 1.7 0 1 0 0 3.5 1.7 1.7 0 0 0 0-3.5ZM453.9 173.7a1.7 1.7 0 1 0 0 3.5 1.7 1.7 0 0 0 0-3.5ZM453.9 74.5a1.7 1.7 0 1 0 0 3.5 1.7 1.7 0 0 0 0-3.5ZM453.9 82.8a1.8 1.8 0 1 0 0 3.5 1.8 1.8 0 0 0 0-3.5ZM453.9 91a1.7 1.7 0 1 0 0 3.5 1.7 1.7 0 0 0 0-3.5ZM453.9 198.5a1.7 1.7 0 1 0 0 3.5 1.7 1.7 0 0 0 0-3.5ZM453.9 347.2a1.7 1.7 0 1 0 0 3.5 1.7 1.7 0 0 0 0-3.5ZM453.9 322.4a1.7 1.7 0 1 0 0 3.5 1.7 1.7 0 0 0 0-3.5ZM453.9 281.1a1.7 1.7 0 1 0 0 3.5 1.7 1.7 0 0 0 0-3.5ZM453.9 264.6a1.7 1.7 0 1 0 0 3.5 1.7 1.7 0 0 0 0-3.5ZM453.9 272.8a1.7 1.7 0 1 0 0 3.5 1.7 1.7 0 0 0 0-3.5ZM453.9 256.3a1.7 1.7 0 1 0 0 3.5 1.7 1.7 0 0 0 0-3.5ZM453.9 248a1.7 1.7 0 1 0 0 3.5 1.7 1.7 0 0 0 0-3.5ZM453.9 339a1.7 1.7 0 1 0 0 3.4 1.7 1.7 0 0 0 0-3.5ZM453.9 231.5a1.7 1.7 0 1 0 0 3.5 1.7 1.7 0 0 0 0-3.5ZM453.9 239.8a1.7 1.7 0 1 0 0 3.5 1.7 1.7 0 0 0 0-3.5ZM453.9 289.4a1.7 1.7 0 1 0 0 3.5 1.7 1.7 0 0 0 0-3.5ZM453.9 314.2a1.7 1.7 0 1 0 0 3.5 1.7 1.7 0 0 0 0-3.5ZM453.9 297.6a1.7 1.7 0 1 0 0 3.5 1.7 1.7 0 0 0 0-3.5ZM453.9 330.7a1.8 1.8 0 1 0 0 3.5 1.8 1.8 0 0 0 0-3.5ZM453.9 305.9a1.8 1.8 0 1 0 0 3.5 1.8 1.8 0 0 0 0-3.5ZM462 99.3a1.8 1.8 0 1 0 0 3.5 1.8 1.8 0 0 0 0-3.5ZM462 140.6a1.7 1.7 0 1 0 0 3.5 1.7 1.7 0 0 0 0-3.5ZM462 148.9a1.7 1.7 0 1 0 0 3.5 1.7 1.7 0 0 0 0-3.5ZM462 115.8a1.7 1.7 0 1 0 0 3.5 1.7 1.7 0 0 0 0-3.5ZM462 157.1a1.7 1.7 0 1 0 0 3.5 1.7 1.7 0 0 0 0-3.5ZM462 124a1.8 1.8 0 1 0 0 3.6 1.8 1.8 0 0 0 0-3.5ZM462 107.6a1.7 1.7 0 1 0 0 3.5 1.7 1.7 0 0 0 0-3.5ZM462 132.3a1.7 1.7 0 1 0 0 3.5 1.7 1.7 0 0 0 0-3.5ZM462 198.5a1.7 1.7 0 1 0 0 3.5 1.7 1.7 0 0 0 0-3.5ZM462 206.7a1.7 1.7 0 1 0 0 3.5 1.7 1.7 0 0 0 0-3.5ZM462 215a1.7 1.7 0 1 0 0 3.5 1.7 1.7 0 0 0 0-3.5ZM462 173.7a1.7 1.7 0 1 0 0 3.5 1.7 1.7 0 0 0 0-3.5ZM462 165.4a1.7 1.7 0 1 0 0 3.5 1.7 1.7 0 0 0 0-3.5ZM462 190.2a1.7 1.7 0 1 0 0 3.5 1.7 1.7 0 0 0 0-3.5ZM462 223.3a1.7 1.7 0 1 0 0 3.4 1.7 1.7 0 0 0 0-3.4ZM462 82.8a1.8 1.8 0 1 0 0 3.5 1.8 1.8 0 0 0 0-3.5ZM462 182a1.7 1.7 0 1 0 0 3.4 1.7 1.7 0 0 0 0-3.5ZM462 264.6a1.7 1.7 0 1 0 0 3.5 1.7 1.7 0 0 0 0-3.5ZM462 272.8a1.7 1.7 0 1 0 0 3.5 1.7 1.7 0 0 0 0-3.5ZM462 281.1a1.7 1.7 0 1 0 0 3.5 1.7 1.7 0 0 0 0-3.5ZM462 256.3a1.7 1.7 0 1 0 0 3.5 1.7 1.7 0 0 0 0-3.5ZM462 297.6a1.7 1.7 0 1 0 0 3.5 1.7 1.7 0 0 0 0-3.5ZM462 314.2a1.7 1.7 0 1 0 0 3.5 1.7 1.7 0 0 0 0-3.5ZM462 289.4a1.7 1.7 0 1 0 0 3.5 1.7 1.7 0 0 0 0-3.5ZM462 330.7a1.8 1.8 0 1 0 0 3.5 1.8 1.8 0 0 0 0-3.5ZM462 322.4a1.7 1.7 0 1 0 0 3.5 1.7 1.7 0 0 0 0-3.5ZM462 305.9a1.8 1.8 0 1 0 0 3.5 1.8 1.8 0 0 0 0-3.5ZM470.3 140.6a1.7 1.7 0 1 0 0 3.5 1.7 1.7 0 0 0 0-3.5ZM470.3 157.1a1.7 1.7 0 1 0 0 3.5 1.7 1.7 0 0 0 0-3.5ZM470.3 148.9a1.7 1.7 0 1 0 0 3.5 1.7 1.7 0 0 0 0-3.5ZM470.3 124a1.8 1.8 0 1 0 0 3.6 1.8 1.8 0 0 0 0-3.5ZM470.3 132.3a1.7 1.7 0 1 0 0 3.5 1.7 1.7 0 0 0 0-3.5ZM470.3 115.8a1.7 1.7 0 1 0 0 3.5 1.7 1.7 0 0 0 0-3.5ZM470.3 173.7a1.7 1.7 0 1 0 0 3.5 1.7 1.7 0 0 0 0-3.5ZM470.3 99.3a1.8 1.8 0 1 0 0 3.5 1.8 1.8 0 0 0 0-3.5ZM470.3 215a1.7 1.7 0 1 0 0 3.5 1.7 1.7 0 0 0 0-3.5ZM470.3 206.7a1.7 1.7 0 1 0 0 3.5 1.7 1.7 0 0 0 0-3.5ZM470.3 182a1.7 1.7 0 1 0 0 3.4 1.7 1.7 0 0 0 0-3.5ZM470.3 198.5a1.7 1.7 0 1 0 0 3.5 1.7 1.7 0 0 0 0-3.5ZM470.3 165.4a1.7 1.7 0 1 0 0 3.5 1.7 1.7 0 0 0 0-3.5ZM470.3 107.6a1.7 1.7 0 1 0 0 3.5 1.7 1.7 0 0 0 0-3.5ZM470.3 223.3a1.7 1.7 0 1 0 0 3.4 1.7 1.7 0 0 0 0-3.4ZM470.3 91a1.7 1.7 0 1 0 0 3.5 1.7 1.7 0 0 0 0-3.5ZM470.3 190.2a1.7 1.7 0 1 0 0 3.5 1.7 1.7 0 0 0 0-3.5ZM470.3 231.5a1.7 1.7 0 1 0 0 3.5 1.7 1.7 0 0 0 0-3.5ZM470.3 272.8a1.7 1.7 0 1 0 0 3.5 1.7 1.7 0 0 0 0-3.5ZM470.3 281.1a1.7 1.7 0 1 0 0 3.5 1.7 1.7 0 0 0 0-3.5ZM470.3 289.4a1.7 1.7 0 1 0 0 3.5 1.7 1.7 0 0 0 0-3.5ZM470.3 264.6a1.7 1.7 0 1 0 0 3.5 1.7 1.7 0 0 0 0-3.5ZM470.3 239.8a1.7 1.7 0 1 0 0 3.5 1.7 1.7 0 0 0 0-3.5ZM470.3 248a1.7 1.7 0 1 0 0 3.5 1.7 1.7 0 0 0 0-3.5ZM478.5 140.6a1.7 1.7 0 1 0 0 3.5 1.7 1.7 0 0 0 0-3.5ZM478.5 148.9a1.7 1.7 0 1 0 0 3.5 1.7 1.7 0 0 0 0-3.5ZM478.5 132.3a1.7 1.7 0 1 0 0 3.5 1.7 1.7 0 0 0 0-3.5ZM478.5 115.8a1.7 1.7 0 1 0 0 3.5 1.7 1.7 0 0 0 0-3.5ZM478.5 124a1.8 1.8 0 1 0 0 3.6 1.8 1.8 0 0 0 0-3.5ZM478.5 107.6a1.7 1.7 0 1 0 0 3.5 1.7 1.7 0 0 0 0-3.5ZM478.5 165.4a1.7 1.7 0 1 0 0 3.5 1.7 1.7 0 0 0 0-3.5ZM478.5 198.5a1.7 1.7 0 1 0 0 3.5 1.7 1.7 0 0 0 0-3.5ZM478.5 157.1a1.7 1.7 0 1 0 0 3.5 1.7 1.7 0 0 0 0-3.5ZM478.5 206.7a1.7 1.7 0 1 0 0 3.5 1.7 1.7 0 0 0 0-3.5ZM478.5 99.3a1.8 1.8 0 1 0 0 3.5 1.8 1.8 0 0 0 0-3.5ZM478.5 173.7a1.7 1.7 0 1 0 0 3.5 1.7 1.7 0 0 0 0-3.5ZM478.5 25a1.7 1.7 0 1 0 0 3.4 1.7 1.7 0 0 0 0-3.5ZM478.5 215a1.7 1.7 0 1 0 0 3.5 1.7 1.7 0 0 0 0-3.5ZM478.5 91a1.7 1.7 0 1 0 0 3.5 1.7 1.7 0 0 0 0-3.5ZM478.5 82.8a1.8 1.8 0 1 0 0 3.5 1.8 1.8 0 0 0 0-3.5ZM478.5 339a1.7 1.7 0 1 0 0 3.4 1.7 1.7 0 0 0 0-3.5ZM478.5 355.5a1.7 1.7 0 1 0 0 3.5 1.7 1.7 0 0 0 0-3.5ZM478.5 363.7a1.7 1.7 0 1 0 0 3.5 1.7 1.7 0 0 0 0-3.5ZM478.5 223.3a1.7 1.7 0 1 0 0 3.4 1.7 1.7 0 0 0 0-3.4ZM478.5 347.2a1.7 1.7 0 1 0 0 3.5 1.7 1.7 0 0 0 0-3.5ZM478.5 281.1a1.7 1.7 0 1 0 0 3.5 1.7 1.7 0 0 0 0-3.5ZM478.5 272.8a1.7 1.7 0 1 0 0 3.5 1.7 1.7 0 0 0 0-3.5ZM478.5 264.6a1.7 1.7 0 1 0 0 3.5 1.7 1.7 0 0 0 0-3.5ZM478.5 231.5a1.7 1.7 0 1 0 0 3.5 1.7 1.7 0 0 0 0-3.5ZM478.5 239.8a1.7 1.7 0 1 0 0 3.5 1.7 1.7 0 0 0 0-3.5ZM478.5 248a1.7 1.7 0 1 0 0 3.5 1.7 1.7 0 0 0 0-3.5ZM478.5 330.7a1.8 1.8 0 1 0 0 3.5 1.8 1.8 0 0 0 0-3.5ZM486.7 148.9a1.8 1.8 0 1 0 0 3.5 1.8 1.8 0 0 0 0-3.5ZM486.7 165.4a1.7 1.7 0 1 0 0 3.5 1.7 1.7 0 0 0 0-3.5ZM486.7 157.1a1.7 1.7 0 1 0 0 3.5 1.7 1.7 0 0 0 0-3.5ZM486.7 140.6a1.7 1.7 0 1 0 0 3.5 1.7 1.7 0 0 0 0-3.5ZM486.7 115.8a1.7 1.7 0 1 0 0 3.5 1.7 1.7 0 0 0 0-3.5ZM486.7 124a1.8 1.8 0 1 0 0 3.6 1.8 1.8 0 0 0 0-3.5ZM486.7 132.3a1.7 1.7 0 1 0 0 3.5 1.7 1.7 0 0 0 0-3.5ZM486.7 107.6a1.7 1.7 0 1 0 0 3.5 1.7 1.7 0 0 0 0-3.5ZM486.7 206.7a1.7 1.7 0 1 0 0 3.5 1.7 1.7 0 0 0 0-3.5ZM486.7 223.3a1.7 1.7 0 1 0 0 3.4 1.7 1.7 0 0 0 0-3.4ZM486.7 190.2a1.8 1.8 0 1 0 0 3.5 1.8 1.8 0 0 0 0-3.5ZM486.7 182a1.7 1.7 0 1 0 0 3.4 1.7 1.7 0 0 0 0-3.5ZM486.7 173.7a1.7 1.7 0 1 0 0 3.5 1.7 1.7 0 0 0 0-3.5ZM486.7 198.5a1.7 1.7 0 1 0 0 3.5 1.7 1.7 0 0 0 0-3.5ZM486.7 25a1.7 1.7 0 1 0 0 3.4 1.7 1.7 0 0 0 0-3.5ZM486.7 74.5a1.8 1.8 0 1 0 0 3.5 1.8 1.8 0 0 0 0-3.5ZM486.7 82.8a1.8 1.8 0 1 0 0 3.5 1.8 1.8 0 0 0 0-3.5ZM486.7 91a1.7 1.7 0 1 0 0 3.5 1.7 1.7 0 0 0 0-3.5ZM486.7 99.3a1.8 1.8 0 1 0 0 3.5 1.8 1.8 0 0 0 0-3.5ZM486.7 347.2a1.8 1.8 0 1 0 0 3.5 1.8 1.8 0 0 0 0-3.5ZM486.7 231.5a1.7 1.7 0 1 0 0 3.5 1.7 1.7 0 0 0 0-3.5ZM486.7 272.8a1.7 1.7 0 1 0 0 3.5 1.7 1.7 0 0 0 0-3.5ZM486.7 248a1.7 1.7 0 1 0 0 3.5 1.7 1.7 0 0 0 0-3.5ZM486.7 239.8a1.7 1.7 0 1 0 0 3.5 1.7 1.7 0 0 0 0-3.5ZM486.7 264.6a1.7 1.7 0 1 0 0 3.5 1.7 1.7 0 0 0 0-3.5ZM486.7 339a1.7 1.7 0 1 0 0 3.4 1.7 1.7 0 0 0 0-3.5ZM486.7 322.4a1.7 1.7 0 1 0 0 3.5 1.7 1.7 0 0 0 0-3.5ZM486.7 330.7a1.8 1.8 0 1 0 0 3.5 1.8 1.8 0 0 0 0-3.5ZM495 148.9a1.7 1.7 0 1 0 0 3.5 1.7 1.7 0 0 0 0-3.5ZM495 107.6a1.7 1.7 0 1 0 0 3.5 1.7 1.7 0 0 0 0-3.5ZM495 140.6a1.7 1.7 0 1 0 0 3.5 1.7 1.7 0 0 0 0-3.5ZM495 157.1a1.7 1.7 0 1 0 0 3.5 1.7 1.7 0 0 0 0-3.5ZM495 115.8a1.7 1.7 0 1 0 0 3.5 1.7 1.7 0 0 0 0-3.5ZM495 132.3a1.7 1.7 0 1 0 0 3.5 1.7 1.7 0 0 0 0-3.5ZM495 124a1.8 1.8 0 1 0 0 3.6 1.8 1.8 0 0 0 0-3.5ZM495 173.7a1.7 1.7 0 1 0 0 3.5 1.7 1.7 0 0 0 0-3.5ZM495 206.7a1.7 1.7 0 1 0 0 3.5 1.7 1.7 0 0 0 0-3.5ZM495 99.3a1.8 1.8 0 1 0 0 3.5 1.8 1.8 0 0 0 0-3.5ZM495 198.5a1.7 1.7 0 1 0 0 3.5 1.7 1.7 0 0 0 0-3.5ZM495 215a1.7 1.7 0 1 0 0 3.5 1.7 1.7 0 0 0 0-3.5ZM495 182a1.7 1.7 0 1 0 0 3.4 1.7 1.7 0 0 0 0-3.5ZM495 190.2a1.7 1.7 0 1 0 0 3.5 1.7 1.7 0 0 0 0-3.5ZM495 165.4a1.7 1.7 0 1 0 0 3.5 1.7 1.7 0 0 0 0-3.5ZM495 91a1.7 1.7 0 1 0 0 3.5 1.7 1.7 0 0 0 0-3.5ZM495 66.2a1.7 1.7 0 1 0 0 3.5 1.7 1.7 0 0 0 0-3.5ZM495 82.8a1.8 1.8 0 1 0 0 3.5 1.8 1.8 0 0 0 0-3.5ZM495 58a1.7 1.7 0 1 0 0 3.5 1.7 1.7 0 0 0 0-3.5ZM495 49.7a1.7 1.7 0 1 0 0 3.5 1.7 1.7 0 0 0 0-3.5ZM495 231.5a1.7 1.7 0 1 0 0 3.5 1.7 1.7 0 0 0 0-3.5ZM495 239.8a1.7 1.7 0 1 0 0 3.5 1.7 1.7 0 0 0 0-3.5ZM495 248a1.7 1.7 0 1 0 0 3.5 1.7 1.7 0 0 0 0-3.5ZM503.1 132.3a1.7 1.7 0 1 0 0 3.5 1.7 1.7 0 0 0 0-3.5ZM503.1 140.6a1.7 1.7 0 1 0 0 3.5 1.7 1.7 0 0 0 0-3.5ZM503.1 148.9a1.7 1.7 0 1 0 0 3.5 1.7 1.7 0 0 0 0-3.5ZM503.1 157.1a1.7 1.7 0 1 0 0 3.5 1.7 1.7 0 0 0 0-3.5ZM503.1 115.8a1.7 1.7 0 1 0 0 3.5 1.7 1.7 0 0 0 0-3.5ZM503.1 107.6a1.7 1.7 0 1 0 0 3.5 1.7 1.7 0 0 0 0-3.5ZM503.1 124a1.8 1.8 0 1 0 0 3.6 1.8 1.8 0 0 0 0-3.5ZM503.1 198.5a1.7 1.7 0 1 0 0 3.5 1.7 1.7 0 0 0 0-3.5ZM503.1 165.4a1.7 1.7 0 1 0 0 3.5 1.7 1.7 0 0 0 0-3.5ZM503.1 99.3a1.8 1.8 0 1 0 0 3.5 1.8 1.8 0 0 0 0-3.5ZM503.1 206.7a1.7 1.7 0 1 0 0 3.5 1.7 1.7 0 0 0 0-3.5ZM503.1 173.7a1.7 1.7 0 1 0 0 3.5 1.7 1.7 0 0 0 0-3.5ZM503.1 182a1.7 1.7 0 1 0 0 3.4 1.7 1.7 0 0 0 0-3.5ZM503.1 190.2a1.7 1.7 0 1 0 0 3.5 1.7 1.7 0 0 0 0-3.5ZM503.1 82.8a1.8 1.8 0 1 0 0 3.5 1.8 1.8 0 0 0 0-3.5ZM503.1 16.6a1.7 1.7 0 1 0 0 3.5 1.7 1.7 0 0 0 0-3.5ZM503.1 91a1.7 1.7 0 1 0 0 3.5 1.7 1.7 0 0 0 0-3.5ZM503.1 215a1.7 1.7 0 1 0 0 3.5 1.7 1.7 0 0 0 0-3.5ZM503.1 66.2a1.7 1.7 0 1 0 0 3.5 1.7 1.7 0 0 0 0-3.5ZM503.1 49.7a1.7 1.7 0 1 0 0 3.5 1.7 1.7 0 0 0 0-3.5ZM503.1 239.8a1.7 1.7 0 1 0 0 3.5 1.7 1.7 0 0 0 0-3.5ZM503.1 231.5a1.7 1.7 0 1 0 0 3.5 1.7 1.7 0 0 0 0-3.5ZM511.4 132.3a1.7 1.7 0 1 0 0 3.5 1.7 1.7 0 0 0 0-3.5ZM511.4 148.9a1.8 1.8 0 1 0 0 3.5 1.8 1.8 0 0 0 0-3.5ZM511.4 140.6a1.7 1.7 0 1 0 0 3.5 1.7 1.7 0 0 0 0-3.5ZM511.4 124a1.8 1.8 0 1 0 0 3.6 1.8 1.8 0 0 0 0-3.5ZM511.4 107.6a1.7 1.7 0 1 0 0 3.5 1.7 1.7 0 0 0 0-3.5ZM511.4 115.8a1.7 1.7 0 1 0 0 3.5 1.7 1.7 0 0 0 0-3.5ZM511.4 198.5a1.7 1.7 0 1 0 0 3.5 1.7 1.7 0 0 0 0-3.5ZM511.4 190.2a1.8 1.8 0 1 0 0 3.5 1.8 1.8 0 0 0 0-3.5ZM511.4 157.1a1.7 1.7 0 1 0 0 3.5 1.7 1.7 0 0 0 0-3.5ZM511.4 206.7a1.7 1.7 0 1 0 0 3.5 1.7 1.7 0 0 0 0-3.5ZM511.4 215a1.8 1.8 0 1 0 0 3.5 1.8 1.8 0 0 0 0-3.5ZM511.4 182a1.7 1.7 0 1 0 0 3.4 1.7 1.7 0 0 0 0-3.5ZM511.4 165.4a1.7 1.7 0 1 0 0 3.5 1.7 1.7 0 0 0 0-3.5ZM511.4 173.7a1.7 1.7 0 1 0 0 3.5 1.7 1.7 0 0 0 0-3.5ZM511.4 99.3a1.8 1.8 0 1 0 0 3.5 1.8 1.8 0 0 0 0-3.5ZM511.4 91a1.7 1.7 0 1 0 0 3.5 1.7 1.7 0 0 0 0-3.5ZM511.4 25a1.7 1.7 0 1 0 0 3.4 1.7 1.7 0 0 0 0-3.5ZM511.4 74.5a1.8 1.8 0 1 0 0 3.5 1.8 1.8 0 0 0 0-3.5ZM511.4 82.8a1.8 1.8 0 1 0 0 3.5 1.8 1.8 0 0 0 0-3.5ZM511.4 49.7a1.8 1.8 0 1 0 0 3.5 1.8 1.8 0 0 0 0-3.5ZM511.4 41.4a1.7 1.7 0 1 0 0 3.5 1.7 1.7 0 0 0 0-3.5ZM519.6 99.3a1.8 1.8 0 1 0 0 3.5 1.8 1.8 0 0 0 0-3.5ZM519.6 132.3a1.7 1.7 0 1 0 0 3.5 1.7 1.7 0 0 0 0-3.5ZM519.6 148.9a1.7 1.7 0 1 0 0 3.5 1.7 1.7 0 0 0 0-3.5ZM519.6 124a1.8 1.8 0 1 0 0 3.6 1.8 1.8 0 0 0 0-3.5ZM519.6 107.6a1.7 1.7 0 1 0 0 3.5 1.7 1.7 0 0 0 0-3.5ZM519.6 115.8a1.7 1.7 0 1 0 0 3.5 1.7 1.7 0 0 0 0-3.5ZM519.6 157.1a1.7 1.7 0 1 0 0 3.5 1.7 1.7 0 0 0 0-3.5ZM519.6 165.4a1.7 1.7 0 1 0 0 3.5 1.7 1.7 0 0 0 0-3.5ZM519.6 206.7a1.7 1.7 0 1 0 0 3.5 1.7 1.7 0 0 0 0-3.5ZM519.6 190.2a1.7 1.7 0 1 0 0 3.5 1.7 1.7 0 0 0 0-3.5ZM519.6 215a1.7 1.7 0 1 0 0 3.5 1.7 1.7 0 0 0 0-3.5ZM519.6 173.7a1.7 1.7 0 1 0 0 3.5 1.7 1.7 0 0 0 0-3.5ZM519.6 91a1.7 1.7 0 1 0 0 3.5 1.7 1.7 0 0 0 0-3.5ZM519.6 182a1.7 1.7 0 1 0 0 3.4 1.7 1.7 0 0 0 0-3.5ZM519.6 198.5a1.7 1.7 0 1 0 0 3.5 1.7 1.7 0 0 0 0-3.5ZM519.6 82.8a1.8 1.8 0 1 0 0 3.5 1.8 1.8 0 0 0 0-3.5ZM519.6 74.5a1.7 1.7 0 1 0 0 3.5 1.7 1.7 0 0 0 0-3.5ZM519.6 41.4a1.7 1.7 0 1 0 0 3.5 1.7 1.7 0 0 0 0-3.5ZM519.6 140.6a1.7 1.7 0 1 0 0 3.5 1.7 1.7 0 0 0 0-3.5ZM527.8 157.1a1.7 1.7 0 1 0 0 3.5 1.7 1.7 0 0 0 0-3.5ZM527.8 140.6a1.7 1.7 0 1 0 0 3.5 1.7 1.7 0 0 0 0-3.5ZM527.8 132.3a1.7 1.7 0 1 0 0 3.5 1.7 1.7 0 0 0 0-3.5ZM527.8 148.9a1.7 1.7 0 1 0 0 3.5 1.7 1.7 0 0 0 0-3.5ZM527.8 91a1.7 1.7 0 1 0 0 3.5 1.7 1.7 0 0 0 0-3.5ZM527.8 115.8a1.7 1.7 0 1 0 0 3.5 1.7 1.7 0 0 0 0-3.5ZM527.8 124a1.8 1.8 0 1 0 0 3.6 1.8 1.8 0 0 0 0-3.5ZM527.8 99.3a1.8 1.8 0 1 0 0 3.5 1.8 1.8 0 0 0 0-3.5ZM527.8 198.5a1.7 1.7 0 1 0 0 3.5 1.7 1.7 0 0 0 0-3.5ZM527.8 206.7a1.7 1.7 0 1 0 0 3.5 1.7 1.7 0 0 0 0-3.5ZM527.8 165.4a1.7 1.7 0 1 0 0 3.5 1.7 1.7 0 0 0 0-3.5ZM527.8 215a1.7 1.7 0 1 0 0 3.5 1.7 1.7 0 0 0 0-3.5ZM527.8 182a1.7 1.7 0 1 0 0 3.4 1.7 1.7 0 0 0 0-3.5ZM527.8 190.2a1.7 1.7 0 1 0 0 3.5 1.7 1.7 0 0 0 0-3.5ZM527.8 173.7a1.7 1.7 0 1 0 0 3.5 1.7 1.7 0 0 0 0-3.5ZM527.8 82.8a1.8 1.8 0 1 0 0 3.5 1.8 1.8 0 0 0 0-3.5ZM527.8 223.3a1.7 1.7 0 1 0 0 3.4 1.7 1.7 0 0 0 0-3.4ZM527.8 66.2a1.7 1.7 0 1 0 0 3.5 1.7 1.7 0 0 0 0-3.5ZM527.8 41.4a1.7 1.7 0 1 0 0 3.5 1.7 1.7 0 0 0 0-3.5ZM527.8 107.6a1.7 1.7 0 1 0 0 3.5 1.7 1.7 0 0 0 0-3.5ZM536 132.3a1.7 1.7 0 1 0 0 3.5 1.7 1.7 0 0 0 0-3.5ZM536 148.9a1.7 1.7 0 1 0 0 3.5 1.7 1.7 0 0 0 0-3.5ZM536 157.1a1.7 1.7 0 1 0 0 3.5 1.7 1.7 0 0 0 0-3.5ZM536 215a1.7 1.7 0 1 0 0 3.5 1.7 1.7 0 0 0 0-3.5ZM536 124a1.8 1.8 0 1 0 0 3.6 1.8 1.8 0 0 0 0-3.5ZM536 115.8a1.7 1.7 0 1 0 0 3.5 1.7 1.7 0 0 0 0-3.5ZM536 140.6a1.7 1.7 0 1 0 0 3.5 1.7 1.7 0 0 0 0-3.5ZM536 198.5a1.7 1.7 0 1 0 0 3.5 1.7 1.7 0 0 0 0-3.5ZM536 165.4a1.7 1.7 0 1 0 0 3.5 1.7 1.7 0 0 0 0-3.5ZM536 99.3a1.8 1.8 0 1 0 0 3.5 1.8 1.8 0 0 0 0-3.5ZM536 206.7a1.7 1.7 0 1 0 0 3.5 1.7 1.7 0 0 0 0-3.5ZM536 190.2a1.7 1.7 0 1 0 0 3.5 1.7 1.7 0 0 0 0-3.5ZM536 173.7a1.7 1.7 0 1 0 0 3.5 1.7 1.7 0 0 0 0-3.5ZM536 182a1.7 1.7 0 1 0 0 3.4 1.7 1.7 0 0 0 0-3.5ZM536 107.6a1.7 1.7 0 1 0 0 3.5 1.7 1.7 0 0 0 0-3.5ZM536 74.5a1.7 1.7 0 1 0 0 3.5 1.7 1.7 0 0 0 0-3.5ZM536 91a1.7 1.7 0 1 0 0 3.5 1.7 1.7 0 0 0 0-3.5ZM536 82.8a1.8 1.8 0 1 0 0 3.5 1.8 1.8 0 0 0 0-3.5ZM536 66.2a1.7 1.7 0 1 0 0 3.5 1.7 1.7 0 0 0 0-3.5ZM536 223.3a1.7 1.7 0 1 0 0 3.4 1.7 1.7 0 0 0 0-3.4ZM536 231.5a1.7 1.7 0 1 0 0 3.5 1.7 1.7 0 0 0 0-3.5ZM536 239.8a1.7 1.7 0 1 0 0 3.5 1.7 1.7 0 0 0 0-3.5ZM544.2 132.3a1.7 1.7 0 1 0 0 3.5 1.7 1.7 0 0 0 0-3.5ZM544.2 148.9a1.8 1.8 0 1 0 0 3.5 1.8 1.8 0 0 0 0-3.5ZM544.2 124a1.8 1.8 0 1 0 0 3.6 1.8 1.8 0 0 0 0-3.5ZM544.2 140.6a1.8 1.8 0 1 0 0 3.5 1.8 1.8 0 0 0 0-3.5ZM544.2 157.1a1.8 1.8 0 1 0 0 3.5 1.8 1.8 0 0 0 0-3.5ZM544.2 115.8a1.8 1.8 0 1 0 0 3.5 1.8 1.8 0 0 0 0-3.5ZM544.2 107.6a1.8 1.8 0 1 0 0 3.5 1.8 1.8 0 0 0 0-3.5ZM544.2 198.5a1.8 1.8 0 1 0 0 3.5 1.8 1.8 0 0 0 0-3.5ZM544.2 165.4a1.8 1.8 0 1 0 0 3.5 1.8 1.8 0 0 0 0-3.5ZM544.2 99.3a1.8 1.8 0 1 0 0 3.5 1.8 1.8 0 0 0 0-3.5ZM544.2 206.7a1.8 1.8 0 1 0 0 3.5 1.8 1.8 0 0 0 0-3.5ZM544.2 190.2a1.8 1.8 0 1 0 0 3.5 1.8 1.8 0 0 0 0-3.5ZM544.2 173.7a1.8 1.8 0 1 0 0 3.5 1.8 1.8 0 0 0 0-3.5ZM544.2 182a1.8 1.8 0 1 0 0 3.4 1.8 1.8 0 0 0 0-3.5ZM544.2 215a1.8 1.8 0 1 0 0 3.5 1.8 1.8 0 0 0 0-3.5ZM544.2 66.2a1.8 1.8 0 1 0 0 3.5 1.8 1.8 0 0 0 0-3.5ZM544.2 91a1.8 1.8 0 1 0 0 3.5 1.8 1.8 0 0 0 0-3.5ZM544.2 223.3a1.8 1.8 0 1 0 0 3.5 1.8 1.8 0 0 0 0-3.5ZM544.2 256.3a1.8 1.8 0 1 0 0 3.5 1.8 1.8 0 0 0 0-3.5ZM544.2 264.6a1.8 1.8 0 1 0 0 3.5 1.8 1.8 0 0 0 0-3.5ZM544.2 239.8a1.8 1.8 0 1 0 0 3.5 1.8 1.8 0 0 0 0-3.5ZM544.2 231.5a1.8 1.8 0 1 0 0 3.5 1.8 1.8 0 0 0 0-3.5ZM544.2 248a1.8 1.8 0 1 0 0 3.5 1.8 1.8 0 0 0 0-3.5ZM552.4 132.3a1.7 1.7 0 1 0 0 3.5 1.7 1.7 0 0 0 0-3.5ZM552.4 140.6a1.7 1.7 0 1 0 0 3.5 1.7 1.7 0 0 0 0-3.5ZM552.4 148.9a1.8 1.8 0 1 0 0 3.5 1.8 1.8 0 0 0 0-3.5ZM552.4 157.1a1.7 1.7 0 1 0 0 3.5 1.7 1.7 0 0 0 0-3.5ZM552.4 107.6a1.7 1.7 0 1 0 0 3.5 1.7 1.7 0 0 0 0-3.5ZM552.4 124a1.8 1.8 0 1 0 0 3.6 1.8 1.8 0 0 0 0-3.5ZM552.4 115.8a1.7 1.7 0 1 0 0 3.5 1.7 1.7 0 0 0 0-3.5ZM552.4 198.5a1.7 1.7 0 1 0 0 3.5 1.7 1.7 0 0 0 0-3.5ZM552.4 190.2a1.8 1.8 0 1 0 0 3.5 1.8 1.8 0 0 0 0-3.5ZM552.4 99.3a1.8 1.8 0 1 0 0 3.5 1.8 1.8 0 0 0 0-3.5ZM552.4 215a1.8 1.8 0 1 0 0 3.5 1.8 1.8 0 0 0 0-3.5ZM552.4 206.7a1.7 1.7 0 1 0 0 3.5 1.7 1.7 0 0 0 0-3.5ZM552.4 182a1.7 1.7 0 1 0 0 3.4 1.7 1.7 0 0 0 0-3.5ZM552.4 173.7a1.7 1.7 0 1 0 0 3.5 1.7 1.7 0 0 0 0-3.5ZM552.4 165.4a1.7 1.7 0 1 0 0 3.5 1.7 1.7 0 0 0 0-3.5ZM552.4 66.2a1.7 1.7 0 1 0 0 3.5 1.7 1.7 0 0 0 0-3.5ZM552.4 74.5a1.8 1.8 0 1 0 0 3.5 1.8 1.8 0 0 0 0-3.5ZM552.4 82.8a1.8 1.8 0 1 0 0 3.5 1.8 1.8 0 0 0 0-3.5ZM552.4 91a1.7 1.7 0 1 0 0 3.5 1.7 1.7 0 0 0 0-3.5ZM552.4 223.3a1.7 1.7 0 1 0 0 3.5 1.7 1.7 0 0 0 0-3.5ZM552.4 264.6a1.7 1.7 0 1 0 0 3.5 1.7 1.7 0 0 0 0-3.5ZM552.4 256.3a1.7 1.7 0 1 0 0 3.5 1.7 1.7 0 0 0 0-3.5ZM552.4 248a1.7 1.7 0 1 0 0 3.5 1.7 1.7 0 0 0 0-3.5ZM552.4 231.5a1.7 1.7 0 1 0 0 3.5 1.7 1.7 0 0 0 0-3.5ZM552.4 239.8a1.7 1.7 0 1 0 0 3.5 1.7 1.7 0 0 0 0-3.5ZM560.6 148.9a1.7 1.7 0 1 0 0 3.5 1.7 1.7 0 0 0 0-3.5ZM560.6 157.1a1.7 1.7 0 1 0 0 3.5 1.7 1.7 0 0 0 0-3.5ZM560.6 140.6a1.7 1.7 0 1 0 0 3.5 1.7 1.7 0 0 0 0-3.5ZM560.6 124a1.8 1.8 0 1 0 0 3.6 1.8 1.8 0 0 0 0-3.5ZM560.6 107.6a1.7 1.7 0 1 0 0 3.5 1.7 1.7 0 0 0 0-3.5ZM560.6 115.8a1.7 1.7 0 1 0 0 3.5 1.7 1.7 0 0 0 0-3.5ZM560.6 132.3a1.7 1.7 0 1 0 0 3.5 1.7 1.7 0 0 0 0-3.5ZM560.6 206.7a1.7 1.7 0 1 0 0 3.5 1.7 1.7 0 0 0 0-3.5ZM560.6 198.5a1.7 1.7 0 1 0 0 3.5 1.7 1.7 0 0 0 0-3.5ZM560.6 215a1.7 1.7 0 1 0 0 3.5 1.7 1.7 0 0 0 0-3.5ZM560.6 190.2a1.7 1.7 0 1 0 0 3.5 1.7 1.7 0 0 0 0-3.5ZM560.6 173.7a1.7 1.7 0 1 0 0 3.5 1.7 1.7 0 0 0 0-3.5ZM560.6 182a1.7 1.7 0 1 0 0 3.4 1.7 1.7 0 0 0 0-3.5ZM560.6 165.4a1.7 1.7 0 1 0 0 3.5 1.7 1.7 0 0 0 0-3.5ZM560.6 99.3a1.8 1.8 0 1 0 0 3.5 1.8 1.8 0 0 0 0-3.5ZM560.6 82.8a1.8 1.8 0 1 0 0 3.5 1.8 1.8 0 0 0 0-3.5ZM560.6 74.5a1.7 1.7 0 1 0 0 3.5 1.7 1.7 0 0 0 0-3.5ZM560.6 66.2a1.7 1.7 0 1 0 0 3.5 1.7 1.7 0 0 0 0-3.5ZM560.6 91a1.7 1.7 0 1 0 0 3.5 1.7 1.7 0 0 0 0-3.5ZM560.6 58a1.7 1.7 0 1 0 0 3.5 1.7 1.7 0 0 0 0-3.5ZM560.6 231.5a1.7 1.7 0 1 0 0 3.5 1.7 1.7 0 0 0 0-3.5ZM560.6 264.6a1.7 1.7 0 1 0 0 3.5 1.7 1.7 0 0 0 0-3.5ZM560.6 223.3a1.7 1.7 0 1 0 0 3.4 1.7 1.7 0 0 0 0-3.4ZM560.6 239.8a1.7 1.7 0 1 0 0 3.5 1.7 1.7 0 0 0 0-3.5ZM568.8 140.6a1.7 1.7 0 1 0 0 3.5 1.7 1.7 0 0 0 0-3.5ZM568.8 148.9a1.7 1.7 0 1 0 0 3.5 1.7 1.7 0 0 0 0-3.5ZM568.8 157.1a1.7 1.7 0 1 0 0 3.5 1.7 1.7 0 0 0 0-3.5ZM568.8 124a1.8 1.8 0 1 0 0 3.6 1.8 1.8 0 0 0 0-3.5ZM568.8 115.8a1.7 1.7 0 1 0 0 3.5 1.7 1.7 0 0 0 0-3.5ZM568.8 215a1.7 1.7 0 1 0 0 3.5 1.7 1.7 0 0 0 0-3.5ZM568.8 206.7a1.7 1.7 0 1 0 0 3.5 1.7 1.7 0 0 0 0-3.5ZM568.8 107.6a1.7 1.7 0 1 0 0 3.5 1.7 1.7 0 0 0 0-3.5ZM568.8 165.4a1.7 1.7 0 1 0 0 3.5 1.7 1.7 0 0 0 0-3.5ZM568.8 198.5a1.7 1.7 0 1 0 0 3.5 1.7 1.7 0 0 0 0-3.5ZM568.8 190.2a1.7 1.7 0 1 0 0 3.5 1.7 1.7 0 0 0 0-3.5ZM568.8 173.7a1.7 1.7 0 1 0 0 3.5 1.7 1.7 0 0 0 0-3.5ZM568.8 182a1.7 1.7 0 1 0 0 3.4 1.7 1.7 0 0 0 0-3.5ZM568.8 74.5a1.7 1.7 0 1 0 0 3.5 1.7 1.7 0 0 0 0-3.5ZM568.8 223.3a1.7 1.7 0 1 0 0 3.4 1.7 1.7 0 0 0 0-3.4ZM568.8 99.3a1.8 1.8 0 1 0 0 3.5 1.8 1.8 0 0 0 0-3.5ZM568.8 66.2a1.7 1.7 0 1 0 0 3.5 1.7 1.7 0 0 0 0-3.5ZM568.8 82.8a1.8 1.8 0 1 0 0 3.5 1.8 1.8 0 0 0 0-3.5ZM568.8 91a1.7 1.7 0 1 0 0 3.5 1.7 1.7 0 0 0 0-3.5ZM568.8 49.7a1.7 1.7 0 1 0 0 3.5 1.7 1.7 0 0 0 0-3.5ZM568.8 58a1.7 1.7 0 1 0 0 3.5 1.7 1.7 0 0 0 0-3.5ZM568.8 231.5a1.7 1.7 0 1 0 0 3.5 1.7 1.7 0 0 0 0-3.5ZM568.8 239.8a1.7 1.7 0 1 0 0 3.5 1.7 1.7 0 0 0 0-3.5ZM568.8 132.3a1.7 1.7 0 1 0 0 3.5 1.7 1.7 0 0 0 0-3.5ZM577 165.4a1.7 1.7 0 1 0 0 3.5 1.7 1.7 0 0 0 0-3.5ZM577 182a1.7 1.7 0 1 0 0 3.4 1.7 1.7 0 0 0 0-3.5ZM577 173.7a1.7 1.7 0 1 0 0 3.5 1.7 1.7 0 0 0 0-3.5ZM577 132.3a1.7 1.7 0 1 0 0 3.5 1.7 1.7 0 0 0 0-3.5ZM577 157.1a1.7 1.7 0 1 0 0 3.5 1.7 1.7 0 0 0 0-3.5ZM577 140.6a1.7 1.7 0 1 0 0 3.5 1.7 1.7 0 0 0 0-3.5ZM577 148.9a1.8 1.8 0 1 0 0 3.5 1.8 1.8 0 0 0 0-3.5ZM577 206.7a1.7 1.7 0 1 0 0 3.5 1.7 1.7 0 0 0 0-3.5ZM577 223.3a1.7 1.7 0 1 0 0 3.4 1.7 1.7 0 0 0 0-3.4ZM577 215a1.8 1.8 0 1 0 0 3.5 1.8 1.8 0 0 0 0-3.5ZM577 231.5a1.7 1.7 0 1 0 0 3.5 1.7 1.7 0 0 0 0-3.5ZM577 198.5a1.7 1.7 0 1 0 0 3.5 1.7 1.7 0 0 0 0-3.5ZM577 124a1.8 1.8 0 1 0 0 3.6 1.8 1.8 0 0 0 0-3.5ZM577 190.2a1.8 1.8 0 1 0 0 3.5 1.8 1.8 0 0 0 0-3.5ZM577 107.6a1.7 1.7 0 1 0 0 3.5 1.7 1.7 0 0 0 0-3.5ZM577 49.7a1.8 1.8 0 1 0 0 3.5 1.8 1.8 0 0 0 0-3.5ZM577 58a1.8 1.8 0 1 0 0 3.5 1.8 1.8 0 0 0 0-3.5ZM577 99.3a1.8 1.8 0 1 0 0 3.5 1.8 1.8 0 0 0 0-3.5ZM577 91a1.7 1.7 0 1 0 0 3.5 1.7 1.7 0 0 0 0-3.5ZM577 115.8a1.7 1.7 0 1 0 0 3.5 1.7 1.7 0 0 0 0-3.5ZM577 82.8a1.8 1.8 0 1 0 0 3.5 1.8 1.8 0 0 0 0-3.5ZM577 74.5a1.8 1.8 0 1 0 0 3.5 1.8 1.8 0 0 0 0-3.5ZM577 66.2a1.7 1.7 0 1 0 0 3.5 1.7 1.7 0 0 0 0-3.5ZM585.3 281.1a1.7 1.7 0 1 0 0 3.5 1.7 1.7 0 0 0 0-3.5ZM585.3 231.5a1.7 1.7 0 1 0 0 3.5 1.7 1.7 0 0 0 0-3.5ZM585.3 223.3a1.7 1.7 0 1 0 0 3.4 1.7 1.7 0 0 0 0-3.4ZM585.3 215a1.7 1.7 0 1 0 0 3.5 1.7 1.7 0 0 0 0-3.5ZM585.3 49.7a1.7 1.7 0 1 0 0 3.5 1.7 1.7 0 0 0 0-3.5ZM585.3 82.8a1.8 1.8 0 1 0 0 3.5 1.8 1.8 0 0 0 0-3.5ZM585.3 206.7a1.7 1.7 0 1 0 0 3.5 1.7 1.7 0 0 0 0-3.5ZM585.3 74.5a1.7 1.7 0 1 0 0 3.5 1.7 1.7 0 0 0 0-3.5ZM585.3 66.2a1.7 1.7 0 1 0 0 3.5 1.7 1.7 0 0 0 0-3.5ZM585.3 58a1.7 1.7 0 1 0 0 3.5 1.7 1.7 0 0 0 0-3.5ZM585.3 16.6a1.7 1.7 0 1 0 0 3.5 1.7 1.7 0 0 0 0-3.5ZM585.3 115.8a1.7 1.7 0 1 0 0 3.5 1.7 1.7 0 0 0 0-3.5ZM585.3 165.4a1.7 1.7 0 1 0 0 3.5 1.7 1.7 0 0 0 0-3.5ZM585.3 91a1.7 1.7 0 1 0 0 3.5 1.7 1.7 0 0 0 0-3.5ZM585.3 157.1a1.7 1.7 0 1 0 0 3.5 1.7 1.7 0 0 0 0-3.5ZM585.3 198.5a1.7 1.7 0 1 0 0 3.5 1.7 1.7 0 0 0 0-3.5ZM585.3 148.9a1.7 1.7 0 1 0 0 3.5 1.7 1.7 0 0 0 0-3.5ZM585.3 182a1.7 1.7 0 1 0 0 3.4 1.7 1.7 0 0 0 0-3.5ZM585.3 190.2a1.7 1.7 0 1 0 0 3.5 1.7 1.7 0 0 0 0-3.5ZM585.3 173.7a1.7 1.7 0 1 0 0 3.5 1.7 1.7 0 0 0 0-3.5ZM585.3 107.6a1.7 1.7 0 1 0 0 3.5 1.7 1.7 0 0 0 0-3.5ZM585.3 99.3a1.8 1.8 0 1 0 0 3.5 1.8 1.8 0 0 0 0-3.5ZM585.3 124a1.8 1.8 0 1 0 0 3.6 1.8 1.8 0 0 0 0-3.5ZM585.3 140.6a1.7 1.7 0 1 0 0 3.5 1.7 1.7 0 0 0 0-3.5ZM585.3 132.3a1.7 1.7 0 1 0 0 3.5 1.7 1.7 0 0 0 0-3.5ZM593.5 281.1a1.8 1.8 0 1 0 0 3.5 1.8 1.8 0 0 0 0-3.5ZM593.5 239.8a1.7 1.7 0 1 0 0 3.5 1.7 1.7 0 0 0 0-3.5ZM593.5 231.5a1.7 1.7 0 1 0 0 3.5 1.7 1.7 0 0 0 0-3.5ZM593.5 223.3a1.7 1.7 0 1 0 0 3.5 1.7 1.7 0 0 0 0-3.5ZM593.5 215a1.8 1.8 0 1 0 0 3.5 1.8 1.8 0 0 0 0-3.5ZM593.5 58a1.8 1.8 0 1 0 0 3.5 1.8 1.8 0 0 0 0-3.5ZM593.5 91a1.7 1.7 0 1 0 0 3.5 1.7 1.7 0 0 0 0-3.5ZM593.5 41.4a1.7 1.7 0 1 0 0 3.5 1.7 1.7 0 0 0 0-3.5ZM593.5 74.5a1.8 1.8 0 1 0 0 3.5 1.8 1.8 0 0 0 0-3.5ZM593.5 66.2a1.7 1.7 0 1 0 0 3.5 1.7 1.7 0 0 0 0-3.5ZM593.5 49.7a1.8 1.8 0 1 0 0 3.5 1.8 1.8 0 0 0 0-3.5ZM593.5 25a1.7 1.7 0 1 0 0 3.4 1.7 1.7 0 0 0 0-3.5ZM593.5 206.7a1.7 1.7 0 1 0 0 3.5 1.7 1.7 0 0 0 0-3.5ZM593.5 173.7a1.7 1.7 0 1 0 0 3.5 1.7 1.7 0 0 0 0-3.5ZM593.5 165.4a1.7 1.7 0 1 0 0 3.5 1.7 1.7 0 0 0 0-3.5ZM593.5 182a1.7 1.7 0 1 0 0 3.4 1.7 1.7 0 0 0 0-3.5ZM593.5 190.2a1.8 1.8 0 1 0 0 3.5 1.8 1.8 0 0 0 0-3.5ZM593.5 198.5a1.7 1.7 0 1 0 0 3.5 1.7 1.7 0 0 0 0-3.5ZM593.5 157.1a1.7 1.7 0 1 0 0 3.5 1.7 1.7 0 0 0 0-3.5ZM593.5 115.8a1.7 1.7 0 1 0 0 3.5 1.7 1.7 0 0 0 0-3.5ZM593.5 148.9a1.8 1.8 0 1 0 0 3.5 1.8 1.8 0 0 0 0-3.5ZM593.5 124a1.8 1.8 0 1 0 0 3.6 1.8 1.8 0 0 0 0-3.5ZM593.5 107.6a1.7 1.7 0 1 0 0 3.5 1.7 1.7 0 0 0 0-3.5ZM593.5 99.3a1.8 1.8 0 1 0 0 3.5 1.8 1.8 0 0 0 0-3.5ZM593.5 132.3a1.7 1.7 0 1 0 0 3.5 1.7 1.7 0 0 0 0-3.5ZM593.5 140.6a1.7 1.7 0 1 0 0 3.5 1.7 1.7 0 0 0 0-3.5ZM593.5 82.8a1.8 1.8 0 1 0 0 3.5 1.8 1.8 0 0 0 0-3.5ZM601.7 297.6a1.8 1.8 0 1 0 0 3.5 1.8 1.8 0 0 0 0-3.5ZM601.7 281.1a1.8 1.8 0 1 0 0 3.5 1.8 1.8 0 0 0 0-3.5ZM601.7 289.4a1.8 1.8 0 1 0 0 3.5 1.8 1.8 0 0 0 0-3.5ZM601.7 239.8a1.8 1.8 0 1 0 0 3.5 1.8 1.8 0 0 0 0-3.5ZM601.7 248a1.8 1.8 0 1 0 0 3.5 1.8 1.8 0 0 0 0-3.5ZM601.7 231.5a1.8 1.8 0 1 0 0 3.5 1.8 1.8 0 0 0 0-3.5ZM601.7 264.6a1.8 1.8 0 1 0 0 3.5 1.8 1.8 0 0 0 0-3.5ZM601.7 272.8a1.8 1.8 0 1 0 0 3.5 1.8 1.8 0 0 0 0-3.5ZM601.7 223.3a1.8 1.8 0 1 0 0 3.5 1.8 1.8 0 0 0 0-3.5ZM601.7 190.2a1.8 1.8 0 1 0 0 3.5 1.8 1.8 0 0 0 0-3.5ZM601.7 58a1.8 1.8 0 1 0 0 3.5 1.8 1.8 0 0 0 0-3.5ZM601.7 99.3a1.8 1.8 0 1 0 0 3.5 1.8 1.8 0 0 0 0-3.5ZM601.7 49.7a1.8 1.8 0 1 0 0 3.5 1.8 1.8 0 0 0 0-3.5ZM601.7 82.8a1.8 1.8 0 1 0 0 3.5 1.8 1.8 0 0 0 0-3.5ZM601.7 74.5a1.8 1.8 0 1 0 0 3.5 1.8 1.8 0 0 0 0-3.5ZM601.7 91a1.8 1.8 0 1 0 0 3.5 1.8 1.8 0 0 0 0-3.5ZM601.7 41.4a1.8 1.8 0 1 0 0 3.5 1.8 1.8 0 0 0 0-3.5ZM601.7 66.2a1.8 1.8 0 1 0 0 3.5 1.8 1.8 0 0 0 0-3.5ZM601.7 25a1.8 1.8 0 1 0 0 3.4 1.8 1.8 0 0 0 0-3.5ZM601.7 140.6a1.8 1.8 0 1 0 0 3.5 1.8 1.8 0 0 0 0-3.5ZM601.7 182a1.8 1.8 0 1 0 0 3.4 1.8 1.8 0 0 0 0-3.5ZM601.7 173.7a1.8 1.8 0 1 0 0 3.5 1.8 1.8 0 0 0 0-3.5ZM601.7 165.4a1.8 1.8 0 1 0 0 3.5 1.8 1.8 0 0 0 0-3.5ZM601.7 198.5a1.8 1.8 0 1 0 0 3.5 1.8 1.8 0 0 0 0-3.5ZM601.7 206.7a1.8 1.8 0 1 0 0 3.5 1.8 1.8 0 0 0 0-3.5ZM601.7 107.6a1.8 1.8 0 1 0 0 3.5 1.8 1.8 0 0 0 0-3.5ZM601.7 157.1a1.8 1.8 0 1 0 0 3.5 1.8 1.8 0 0 0 0-3.5ZM601.7 124a1.8 1.8 0 1 0 0 3.6 1.8 1.8 0 0 0 0-3.5ZM601.7 148.9a1.8 1.8 0 1 0 0 3.5 1.8 1.8 0 0 0 0-3.5ZM601.7 115.8a1.8 1.8 0 1 0 0 3.5 1.8 1.8 0 0 0 0-3.5ZM601.7 215a1.8 1.8 0 1 0 0 3.5 1.8 1.8 0 0 0 0-3.5ZM601.7 132.3a1.7 1.7 0 1 0 0 3.5 1.7 1.7 0 0 0 0-3.5ZM609.9 140.6a1.7 1.7 0 1 0 0 3.5 1.7 1.7 0 0 0 0-3.5ZM609.9 148.9a1.7 1.7 0 1 0 0 3.5 1.7 1.7 0 0 0 0-3.5ZM609.9 157.1a1.7 1.7 0 1 0 0 3.5 1.7 1.7 0 0 0 0-3.5ZM609.9 132.3a1.7 1.7 0 1 0 0 3.5 1.7 1.7 0 0 0 0-3.5ZM609.9 124a1.8 1.8 0 1 0 0 3.6 1.8 1.8 0 0 0 0-3.5ZM609.9 107.6a1.7 1.7 0 1 0 0 3.5 1.7 1.7 0 0 0 0-3.5ZM609.9 115.8a1.7 1.7 0 1 0 0 3.5 1.7 1.7 0 0 0 0-3.5ZM609.9 206.7a1.7 1.7 0 1 0 0 3.5 1.7 1.7 0 0 0 0-3.5ZM609.9 190.2a1.7 1.7 0 1 0 0 3.5 1.7 1.7 0 0 0 0-3.5ZM609.9 198.5a1.7 1.7 0 1 0 0 3.5 1.7 1.7 0 0 0 0-3.5ZM609.9 99.3a1.8 1.8 0 1 0 0 3.5 1.8 1.8 0 0 0 0-3.5ZM609.9 165.4a1.7 1.7 0 1 0 0 3.5 1.7 1.7 0 0 0 0-3.5ZM609.9 215a1.7 1.7 0 1 0 0 3.5 1.7 1.7 0 0 0 0-3.5ZM609.9 182a1.7 1.7 0 1 0 0 3.4 1.7 1.7 0 0 0 0-3.5ZM609.9 173.7a1.7 1.7 0 1 0 0 3.5 1.7 1.7 0 0 0 0-3.5ZM609.9 33.2a1.8 1.8 0 1 0 0 3.5 1.8 1.8 0 0 0 0-3.5ZM609.9 66.2a1.7 1.7 0 1 0 0 3.5 1.7 1.7 0 0 0 0-3.5ZM609.9 74.5a1.7 1.7 0 1 0 0 3.5 1.7 1.7 0 0 0 0-3.5ZM609.9 82.8a1.8 1.8 0 1 0 0 3.5 1.8 1.8 0 0 0 0-3.5ZM609.9 41.4a1.7 1.7 0 1 0 0 3.5 1.7 1.7 0 0 0 0-3.5ZM609.9 91a1.7 1.7 0 1 0 0 3.5 1.7 1.7 0 0 0 0-3.5ZM609.9 49.7a1.7 1.7 0 1 0 0 3.5 1.7 1.7 0 0 0 0-3.5ZM609.9 58a1.7 1.7 0 1 0 0 3.5 1.7 1.7 0 0 0 0-3.5ZM609.9 223.3a1.7 1.7 0 1 0 0 3.4 1.7 1.7 0 0 0 0-3.4ZM609.9 248a1.7 1.7 0 1 0 0 3.5 1.7 1.7 0 0 0 0-3.5ZM609.9 256.3a1.7 1.7 0 1 0 0 3.5 1.7 1.7 0 0 0 0-3.5ZM609.9 231.5a1.7 1.7 0 1 0 0 3.5 1.7 1.7 0 0 0 0-3.5ZM609.9 239.8a1.7 1.7 0 1 0 0 3.5 1.7 1.7 0 0 0 0-3.5ZM609.9 305.9a1.8 1.8 0 1 0 0 3.5 1.8 1.8 0 0 0 0-3.5ZM609.9 289.4a1.7 1.7 0 1 0 0 3.5 1.7 1.7 0 0 0 0-3.5ZM609.9 297.6a1.7 1.7 0 1 0 0 3.5 1.7 1.7 0 0 0 0-3.5ZM618.1 305.9a1.8 1.8 0 1 0 0 3.5 1.8 1.8 0 0 0 0-3.5ZM618.1 256.3a1.7 1.7 0 1 0 0 3.5 1.7 1.7 0 0 0 0-3.5ZM618.1 231.5a1.7 1.7 0 1 0 0 3.5 1.7 1.7 0 0 0 0-3.5ZM618.1 223.3a1.7 1.7 0 1 0 0 3.4 1.7 1.7 0 0 0 0-3.4ZM618.1 248a1.7 1.7 0 1 0 0 3.5 1.7 1.7 0 0 0 0-3.5ZM618.1 215a1.7 1.7 0 1 0 0 3.5 1.7 1.7 0 0 0 0-3.5ZM618.1 82.8a1.8 1.8 0 1 0 0 3.5 1.8 1.8 0 0 0 0-3.5ZM618.1 91a1.7 1.7 0 1 0 0 3.5 1.7 1.7 0 0 0 0-3.5ZM618.1 41.4a1.7 1.7 0 1 0 0 3.5 1.7 1.7 0 0 0 0-3.5ZM618.1 74.5a1.8 1.8 0 1 0 0 3.5 1.8 1.8 0 0 0 0-3.5ZM618.1 66.2a1.7 1.7 0 1 0 0 3.5 1.7 1.7 0 0 0 0-3.5ZM618.1 49.7a1.8 1.8 0 1 0 0 3.5 1.8 1.8 0 0 0 0-3.5ZM618.1 182a1.7 1.7 0 1 0 0 3.4 1.7 1.7 0 0 0 0-3.5ZM618.1 165.4a1.7 1.7 0 1 0 0 3.5 1.7 1.7 0 0 0 0-3.5ZM618.1 157.1a1.7 1.7 0 1 0 0 3.5 1.7 1.7 0 0 0 0-3.5ZM618.1 99.3a1.8 1.8 0 1 0 0 3.5 1.8 1.8 0 0 0 0-3.5ZM618.1 206.7a1.7 1.7 0 1 0 0 3.5 1.7 1.7 0 0 0 0-3.5ZM618.1 148.9a1.8 1.8 0 1 0 0 3.5 1.8 1.8 0 0 0 0-3.5ZM618.1 198.5a1.7 1.7 0 1 0 0 3.5 1.7 1.7 0 0 0 0-3.5ZM618.1 190.2a1.8 1.8 0 1 0 0 3.5 1.8 1.8 0 0 0 0-3.5ZM618.1 173.7a1.7 1.7 0 1 0 0 3.5 1.7 1.7 0 0 0 0-3.5ZM618.1 115.8a1.7 1.7 0 1 0 0 3.5 1.7 1.7 0 0 0 0-3.5ZM618.1 107.6a1.7 1.7 0 1 0 0 3.5 1.7 1.7 0 0 0 0-3.5ZM618.1 124a1.8 1.8 0 1 0 0 3.6 1.8 1.8 0 0 0 0-3.5ZM618.1 132.3a1.7 1.7 0 1 0 0 3.5 1.7 1.7 0 0 0 0-3.5ZM618.1 140.6a1.7 1.7 0 1 0 0 3.5 1.7 1.7 0 0 0 0-3.5ZM626.3 148.9a1.7 1.7 0 1 0 0 3.5 1.7 1.7 0 0 0 0-3.5ZM626.3 107.6a1.7 1.7 0 1 0 0 3.5 1.7 1.7 0 0 0 0-3.5ZM626.3 157.1a1.7 1.7 0 1 0 0 3.5 1.7 1.7 0 0 0 0-3.5ZM626.3 115.8a1.7 1.7 0 1 0 0 3.5 1.7 1.7 0 0 0 0-3.5ZM626.3 132.3a1.7 1.7 0 1 0 0 3.5 1.7 1.7 0 0 0 0-3.5ZM626.3 165.4a1.7 1.7 0 1 0 0 3.5 1.7 1.7 0 0 0 0-3.5ZM626.3 124a1.8 1.8 0 1 0 0 3.6 1.8 1.8 0 0 0 0-3.5ZM626.3 140.6a1.7 1.7 0 1 0 0 3.5 1.7 1.7 0 0 0 0-3.5ZM626.3 198.5a1.7 1.7 0 1 0 0 3.5 1.7 1.7 0 0 0 0-3.5ZM626.3 173.7a1.7 1.7 0 1 0 0 3.5 1.7 1.7 0 0 0 0-3.5ZM626.3 215a1.7 1.7 0 1 0 0 3.5 1.7 1.7 0 0 0 0-3.5ZM626.3 206.7a1.7 1.7 0 1 0 0 3.5 1.7 1.7 0 0 0 0-3.5ZM626.3 190.2a1.7 1.7 0 1 0 0 3.5 1.7 1.7 0 0 0 0-3.5ZM626.3 182a1.7 1.7 0 1 0 0 3.4 1.7 1.7 0 0 0 0-3.5ZM626.3 58a1.7 1.7 0 1 0 0 3.5 1.7 1.7 0 0 0 0-3.5ZM626.3 41.4a1.7 1.7 0 1 0 0 3.5 1.7 1.7 0 0 0 0-3.5ZM626.3 99.3a1.8 1.8 0 1 0 0 3.5 1.8 1.8 0 0 0 0-3.5ZM626.3 82.8a1.8 1.8 0 1 0 0 3.5 1.8 1.8 0 0 0 0-3.5ZM626.3 49.7a1.7 1.7 0 1 0 0 3.5 1.7 1.7 0 0 0 0-3.5ZM626.3 74.5a1.7 1.7 0 1 0 0 3.5 1.7 1.7 0 0 0 0-3.5ZM626.3 91a1.7 1.7 0 1 0 0 3.5 1.7 1.7 0 0 0 0-3.5ZM626.3 66.2a1.7 1.7 0 1 0 0 3.5 1.7 1.7 0 0 0 0-3.5ZM626.3 223.3a1.7 1.7 0 1 0 0 3.4 1.7 1.7 0 0 0 0-3.4ZM626.3 231.5a1.7 1.7 0 1 0 0 3.5 1.7 1.7 0 0 0 0-3.5ZM626.3 281.1a1.7 1.7 0 1 0 0 3.5 1.7 1.7 0 0 0 0-3.5ZM626.3 289.4a1.7 1.7 0 1 0 0 3.5 1.7 1.7 0 0 0 0-3.5ZM626.3 305.9a1.8 1.8 0 1 0 0 3.5 1.8 1.8 0 0 0 0-3.5ZM634.5 140.6a1.7 1.7 0 1 0 0 3.5 1.7 1.7 0 0 0 0-3.5ZM634.5 99.3a1.8 1.8 0 1 0 0 3.5 1.8 1.8 0 0 0 0-3.5ZM634.5 148.9a1.8 1.8 0 1 0 0 3.5 1.8 1.8 0 0 0 0-3.5ZM634.5 115.8a1.8 1.8 0 1 0 0 3.5 1.8 1.8 0 0 0 0-3.5ZM634.5 107.6a1.7 1.7 0 1 0 0 3.5 1.7 1.7 0 0 0 0-3.5ZM634.5 157.1a1.7 1.7 0 1 0 0 3.5 1.7 1.7 0 0 0 0-3.5ZM634.5 124a1.8 1.8 0 1 0 0 3.6 1.8 1.8 0 0 0 0-3.5ZM634.5 132.3a1.7 1.7 0 1 0 0 3.5 1.7 1.7 0 0 0 0-3.5ZM634.5 165.4a1.7 1.7 0 1 0 0 3.5 1.7 1.7 0 0 0 0-3.5ZM634.5 206.7a1.7 1.7 0 1 0 0 3.5 1.7 1.7 0 0 0 0-3.5ZM634.5 190.2a1.7 1.7 0 1 0 0 3.5 1.7 1.7 0 0 0 0-3.5ZM634.5 198.5a1.7 1.7 0 1 0 0 3.5 1.7 1.7 0 0 0 0-3.5ZM634.5 173.7a1.7 1.7 0 1 0 0 3.5 1.7 1.7 0 0 0 0-3.5ZM634.5 182a1.7 1.7 0 1 0 0 3.4 1.7 1.7 0 0 0 0-3.5ZM634.5 91a1.7 1.7 0 1 0 0 3.5 1.7 1.7 0 0 0 0-3.5ZM634.5 215a1.7 1.7 0 1 0 0 3.5 1.7 1.7 0 0 0 0-3.5ZM634.5 74.5a1.7 1.7 0 1 0 0 3.5 1.7 1.7 0 0 0 0-3.5ZM634.5 41.4a1.7 1.7 0 1 0 0 3.5 1.7 1.7 0 0 0 0-3.5ZM634.5 82.8a1.7 1.7 0 1 0 0 3.5 1.7 1.7 0 0 0 0-3.5ZM634.5 66.2a1.7 1.7 0 1 0 0 3.5 1.7 1.7 0 0 0 0-3.5ZM634.5 58a1.7 1.7 0 1 0 0 3.5 1.7 1.7 0 0 0 0-3.5ZM634.5 355.5a1.7 1.7 0 1 0 0 3.5 1.7 1.7 0 0 0 0-3.5ZM634.5 363.7a1.7 1.7 0 1 0 0 3.5 1.7 1.7 0 0 0 0-3.5ZM634.5 347.2a1.7 1.7 0 1 0 0 3.5 1.7 1.7 0 0 0 0-3.5ZM634.5 223.3a1.7 1.7 0 1 0 0 3.4 1.7 1.7 0 0 0 0-3.4ZM634.5 305.9a1.8 1.8 0 1 0 0 3.5 1.8 1.8 0 0 0 0-3.5ZM634.5 281.1a1.7 1.7 0 1 0 0 3.5 1.7 1.7 0 0 0 0-3.5ZM634.5 289.4a1.7 1.7 0 1 0 0 3.5 1.7 1.7 0 0 0 0-3.5ZM634.5 297.6a1.7 1.7 0 1 0 0 3.5 1.7 1.7 0 0 0 0-3.5ZM642.7 148.9a1.8 1.8 0 1 0 0 3.5 1.8 1.8 0 0 0 0-3.5ZM642.7 140.6a1.8 1.8 0 1 0 0 3.5 1.8 1.8 0 0 0 0-3.5ZM642.7 132.3c-1 0-1.7.8-1.7 1.8a1.8 1.8 0 1 0 1.7-1.8ZM642.7 107.6a1.8 1.8 0 1 0 0 3.5 1.8 1.8 0 0 0 0-3.5ZM642.7 157.1a1.8 1.8 0 1 0 0 3.5 1.8 1.8 0 0 0 0-3.5ZM642.7 115.8a1.8 1.8 0 1 0 0 3.5 1.8 1.8 0 0 0 0-3.5ZM642.7 190.2a1.8 1.8 0 1 0 0 3.5 1.8 1.8 0 0 0 0-3.5ZM642.7 206.7a1.8 1.8 0 1 0 0 3.5 1.8 1.8 0 0 0 0-3.5ZM642.7 215a1.8 1.8 0 1 0 0 3.5 1.8 1.8 0 0 0 0-3.5ZM642.7 99.3a1.8 1.8 0 0 0 0 3.5 1.8 1.8 0 0 0 0-3.5ZM642.7 165.4a1.8 1.8 0 1 0 0 3.5 1.8 1.8 0 0 0 0-3.5ZM642.7 173.7a1.8 1.8 0 1 0 0 3.5 1.8 1.8 0 0 0 0-3.5ZM642.7 198.5a1.8 1.8 0 1 0 0 3.5 1.8 1.8 0 0 0 0-3.5ZM642.7 182a1.8 1.8 0 1 0 0 3.4 1.8 1.8 0 0 0 0-3.5ZM642.7 91a1.8 1.8 0 1 0 0 3.5 1.8 1.8 0 0 0 0-3.5ZM642.7 66.2a1.8 1.8 0 1 0 0 3.5 1.8 1.8 0 0 0 0-3.5ZM642.7 74.5a1.8 1.8 0 1 0 0 3.5 1.8 1.8 0 0 0 0-3.5ZM642.7 82.8a1.7 1.7 0 1 0 0 3.5 1.7 1.7 0 0 0 0-3.5ZM642.7 58a1.8 1.8 0 1 0 0 3.5 1.8 1.8 0 0 0 0-3.5ZM642.7 124a1.8 1.8 0 1 0 0 3.6 1.8 1.8 0 0 0 0-3.5ZM642.7 388.5a1.8 1.8 0 1 0 0 3.5 1.8 1.8 0 0 0 0-3.5ZM642.7 380.3a1.8 1.8 0 1 0 0 3.5 1.8 1.8 0 0 0 0-3.5ZM642.7 372a1.8 1.8 0 1 0 0 3.5 1.8 1.8 0 0 0 0-3.5ZM642.7 355.5a1.8 1.8 0 1 0 0 3.5 1.8 1.8 0 0 0 0-3.5ZM642.7 363.7a1.8 1.8 0 1 0 0 3.5 1.8 1.8 0 0 0 0-3.5ZM642.7 347.2a1.8 1.8 0 1 0 0 3.5 1.8 1.8 0 0 0 0-3.5ZM642.7 339a1.8 1.8 0 1 0 0 3.4 1.8 1.8 0 0 0 0-3.5ZM642.7 281.1a1.8 1.8 0 1 0 0 3.5 1.8 1.8 0 0 0 0-3.5ZM642.7 314.2a1.8 1.8 0 1 0 0 3.5 1.8 1.8 0 0 0 0-3.5ZM642.7 289.4a1.8 1.8 0 1 0 0 3.5 1.8 1.8 0 0 0 0-3.5ZM651 91a1.7 1.7 0 1 0 0 3.5 1.7 1.7 0 0 0 0-3.5ZM651 124a1.8 1.8 0 1 0 0 3.6 1.8 1.8 0 0 0 0-3.5ZM651 140.6a1.7 1.7 0 1 0 0 3.5 1.7 1.7 0 0 0 0-3.5ZM651 99.3a1.8 1.8 0 1 0 0 3.5 1.8 1.8 0 0 0 0-3.5ZM651 148.9a1.8 1.8 0 1 0 0 3.5 1.8 1.8 0 0 0 0-3.5ZM651 107.6a1.7 1.7 0 1 0 0 3.5 1.7 1.7 0 0 0 0-3.5ZM651 115.8a1.7 1.7 0 1 0 0 3.5 1.7 1.7 0 0 0 0-3.5ZM651 132.3a1.8 1.8 0 1 0 0 3.6 1.8 1.8 0 0 0 0-3.6ZM651 182a1.7 1.7 0 1 0 0 3.4 1.7 1.7 0 0 0 0-3.5ZM651 173.7a1.7 1.7 0 1 0 0 3.5 1.7 1.7 0 0 0 0-3.5ZM651 157.1a1.7 1.7 0 1 0 0 3.5 1.7 1.7 0 0 0 0-3.5ZM651 165.4a1.7 1.7 0 1 0 0 3.5 1.7 1.7 0 0 0 0-3.5ZM651 82.8a1.7 1.7 0 1 0 0 3.5 1.7 1.7 0 0 0 0-3.5ZM651 223.3a1.7 1.7 0 1 0 0 3.4 1.7 1.7 0 0 0 0-3.4ZM651 66.2a1.7 1.7 0 1 0 0 3.5 1.7 1.7 0 0 0 0-3.5ZM651 74.5a1.8 1.8 0 1 0 0 3.5 1.8 1.8 0 0 0 0-3.5ZM651 58a1.8 1.8 0 1 0 0 3.5 1.8 1.8 0 0 0 0-3.5ZM651 380.3a1.7 1.7 0 1 0 0 3.5 1.7 1.7 0 0 0 0-3.5ZM651 372a1.8 1.8 0 1 0 0 3.5 1.8 1.8 0 0 0 0-3.5ZM651 347.2a1.8 1.8 0 1 0 0 3.5 1.8 1.8 0 0 0 0-3.5ZM651 355.5a1.7 1.7 0 1 0 0 3.5 1.7 1.7 0 0 0 0-3.5ZM651 363.7a1.7 1.7 0 1 0 0 3.5 1.7 1.7 0 0 0 0-3.5ZM651 339a1.7 1.7 0 1 0 0 3.4 1.7 1.7 0 0 0 0-3.5ZM651 231.5a1.7 1.7 0 1 0 0 3.5 1.7 1.7 0 0 0 0-3.5ZM651 248a1.7 1.7 0 1 0 0 3.5 1.7 1.7 0 0 0 0-3.5ZM651 289.4a1.7 1.7 0 1 0 0 3.5 1.7 1.7 0 0 0 0-3.5ZM651 297.6a1.7 1.7 0 1 0 0 3.5 1.7 1.7 0 0 0 0-3.5ZM659.2 148.9a1.8 1.8 0 1 0 0 3.5 1.8 1.8 0 0 0 0-3.5ZM659.2 157.1a1.7 1.7 0 1 0 0 3.5 1.7 1.7 0 0 0 0-3.5ZM659.2 132.3a1.7 1.7 0 1 0 0 3.5 1.7 1.7 0 0 0 0-3.5ZM659.2 140.6a1.7 1.7 0 1 0 0 3.5 1.7 1.7 0 0 0 0-3.5ZM659.2 107.6a1.7 1.7 0 1 0 0 3.5 1.7 1.7 0 0 0 0-3.5ZM659.2 124a1.8 1.8 0 1 0 0 3.6 1.8 1.8 0 0 0 0-3.5ZM659.2 99.3a1.7 1.7 0 1 0 0 3.5 1.7 1.7 0 0 0 0-3.5ZM659.2 190.2a1.7 1.7 0 1 0 0 3.5 1.7 1.7 0 0 0 0-3.5ZM659.2 182a1.7 1.7 0 1 0 0 3.4 1.7 1.7 0 0 0 0-3.5ZM659.2 165.4a1.8 1.8 0 1 0 0 3.5 1.8 1.8 0 0 0 0-3.5ZM659.2 173.7a1.7 1.7 0 1 0 0 3.5 1.7 1.7 0 0 0 0-3.5ZM659.2 91a1.7 1.7 0 1 0 0 3.5 1.7 1.7 0 0 0 0-3.5ZM659.2 66.2a1.7 1.7 0 1 0 0 3.5 1.7 1.7 0 0 0 0-3.5ZM659.2 82.8a1.7 1.7 0 1 0 0 3.5 1.7 1.7 0 0 0 0-3.5ZM659.2 74.5a1.7 1.7 0 1 0 0 3.5 1.7 1.7 0 0 0 0-3.5ZM659.2 58a1.7 1.7 0 1 0 0 3.5 1.7 1.7 0 0 0 0-3.5ZM659.2 115.8a1.8 1.8 0 1 0 0 3.5 1.8 1.8 0 0 0 0-3.5ZM659.2 363.7a1.7 1.7 0 1 0 0 3.5 1.7 1.7 0 0 0 0-3.5ZM659.2 372a1.8 1.8 0 1 0 0 3.5 1.8 1.8 0 0 0 0-3.5ZM659.2 355.5a1.7 1.7 0 1 0 0 3.5 1.7 1.7 0 0 0 0-3.5ZM659.2 347.2a1.7 1.7 0 1 0 0 3.5 1.7 1.7 0 0 0 0-3.5ZM659.2 264.6a1.7 1.7 0 1 0 0 3.5 1.7 1.7 0 0 0 0-3.5ZM659.2 339a1.7 1.7 0 1 0 0 3.4 1.7 1.7 0 0 0 0-3.5ZM659.2 272.8a1.7 1.7 0 1 0 0 3.5 1.7 1.7 0 0 0 0-3.5ZM659.2 330.7a1.8 1.8 0 1 0 0 3.5 1.8 1.8 0 0 0 0-3.5ZM667.4 165.4a1.7 1.7 0 1 0 0 3.5 1.7 1.7 0 0 0 0-3.5ZM667.4 148.9a1.7 1.7 0 1 0 0 3.5 1.7 1.7 0 0 0 0-3.5ZM667.4 157.1a1.7 1.7 0 1 0 0 3.5 1.7 1.7 0 0 0 0-3.5ZM667.4 140.6a1.7 1.7 0 1 0 0 3.5 1.7 1.7 0 0 0 0-3.5ZM667.4 115.8a1.8 1.8 0 1 0 0 3.5 1.8 1.8 0 0 0 0-3.5ZM667.4 107.6a1.7 1.7 0 1 0 0 3.5 1.7 1.7 0 0 0 0-3.5ZM667.4 124a1.8 1.8 0 1 0 0 3.6 1.8 1.8 0 0 0 0-3.5ZM667.4 132.3a1.7 1.7 0 1 0 0 3.5 1.7 1.7 0 0 0 0-3.5ZM667.4 198.5a1.7 1.7 0 1 0 0 3.5 1.7 1.7 0 0 0 0-3.5ZM667.4 173.7a1.7 1.7 0 1 0 0 3.5 1.7 1.7 0 0 0 0-3.5ZM667.4 190.2a1.7 1.7 0 1 0 0 3.5 1.7 1.7 0 0 0 0-3.5ZM667.4 66.2a1.7 1.7 0 1 0 0 3.5 1.7 1.7 0 0 0 0-3.5ZM667.4 99.3a1.7 1.7 0 1 0 0 3.5 1.7 1.7 0 0 0 0-3.5ZM667.4 91a1.7 1.7 0 1 0 0 3.5 1.7 1.7 0 0 0 0-3.5ZM667.4 82.8a1.8 1.8 0 1 0 0 3.5 1.8 1.8 0 0 0 0-3.5ZM667.4 74.5a1.7 1.7 0 1 0 0 3.5 1.7 1.7 0 0 0 0-3.5ZM667.4 372a1.8 1.8 0 1 0 0 3.5 1.8 1.8 0 0 0 0-3.5ZM667.4 355.5a1.7 1.7 0 1 0 0 3.5 1.7 1.7 0 0 0 0-3.5ZM667.4 363.7a1.7 1.7 0 1 0 0 3.5 1.7 1.7 0 0 0 0-3.5ZM667.4 347.2a1.7 1.7 0 1 0 0 3.5 1.7 1.7 0 0 0 0-3.5ZM667.4 289.4a1.7 1.7 0 1 0 0 3.5 1.7 1.7 0 0 0 0-3.5ZM667.4 330.7a1.8 1.8 0 1 0 0 3.5 1.8 1.8 0 0 0 0-3.5ZM667.4 339a1.7 1.7 0 1 0 0 3.4 1.7 1.7 0 0 0 0-3.5ZM667.4 297.6a1.7 1.7 0 1 0 0 3.5 1.7 1.7 0 0 0 0-3.5ZM675.6 132.3a1.8 1.8 0 1 0 0 3.6 1.8 1.8 0 0 0 0-3.6ZM675.6 140.6a1.7 1.7 0 1 0 0 3.5 1.7 1.7 0 0 0 0-3.5ZM675.6 148.9a1.8 1.8 0 1 0 0 3.5 1.8 1.8 0 0 0 0-3.5ZM675.6 107.6a1.7 1.7 0 1 0 0 3.5 1.7 1.7 0 0 0 0-3.5ZM675.6 115.8a1.8 1.8 0 1 0 0 3.5 1.8 1.8 0 0 0 0-3.5ZM675.6 165.4a1.7 1.7 0 1 0 0 3.5 1.7 1.7 0 0 0 0-3.5ZM675.6 173.7a1.7 1.7 0 1 0 0 3.5 1.7 1.7 0 0 0 0-3.5ZM675.6 99.3a1.8 1.8 0 1 0 0 3.5 1.8 1.8 0 0 0 0-3.5ZM675.6 198.5a1.7 1.7 0 1 0 0 3.5 1.7 1.7 0 0 0 0-3.5ZM675.6 124a1.8 1.8 0 1 0 0 3.6 1.8 1.8 0 0 0 0-3.5ZM675.6 91a1.7 1.7 0 1 0 0 3.5 1.7 1.7 0 0 0 0-3.5ZM675.6 82.8a1.8 1.8 0 1 0 0 3.5 1.8 1.8 0 0 0 0-3.5ZM675.6 66.2a1.7 1.7 0 1 0 0 3.5 1.7 1.7 0 0 0 0-3.5ZM675.6 74.5a1.8 1.8 0 1 0 0 3.5 1.8 1.8 0 0 0 0-3.5ZM675.6 157.1a1.7 1.7 0 1 0 0 3.5 1.7 1.7 0 0 0 0-3.5ZM675.6 347.2a1.7 1.7 0 1 0 0 3.5 1.7 1.7 0 0 0 0-3.5ZM675.6 355.5a1.7 1.7 0 1 0 0 3.5 1.7 1.7 0 0 0 0-3.5ZM675.6 372a1.8 1.8 0 1 0 0 3.5 1.8 1.8 0 0 0 0-3.5ZM675.6 363.7a1.7 1.7 0 1 0 0 3.5 1.7 1.7 0 0 0 0-3.5ZM675.6 339a1.7 1.7 0 1 0 0 3.4 1.7 1.7 0 0 0 0-3.5ZM675.6 289.4a1.7 1.7 0 1 0 0 3.5 1.7 1.7 0 0 0 0-3.5ZM675.6 297.6a1.7 1.7 0 1 0 0 3.5 1.7 1.7 0 0 0 0-3.5ZM675.6 330.7a1.8 1.8 0 1 0 0 3.5 1.8 1.8 0 0 0 0-3.5ZM675.6 322.4a1.7 1.7 0 1 0 0 3.5 1.7 1.7 0 0 0 0-3.5ZM683.8 157.1a1.7 1.7 0 1 0 0 3.5 1.7 1.7 0 0 0 0-3.5ZM683.8 115.8a1.8 1.8 0 1 0 0 3.5 1.8 1.8 0 0 0 0-3.5ZM683.8 165.4a1.7 1.7 0 1 0 0 3.5 1.7 1.7 0 0 0 0-3.5ZM683.8 148.9a1.8 1.8 0 1 0 0 3.5 1.8 1.8 0 0 0 0-3.5ZM683.8 140.6a1.7 1.7 0 1 0 0 3.5 1.7 1.7 0 0 0 0-3.5ZM683.8 124a1.8 1.8 0 1 0 0 3.6 1.8 1.8 0 0 0 0-3.5ZM683.8 107.6a1.7 1.7 0 1 0 0 3.5 1.7 1.7 0 0 0 0-3.5ZM683.8 198.5a1.7 1.7 0 1 0 0 3.5 1.7 1.7 0 0 0 0-3.5ZM683.8 190.2a1.8 1.8 0 1 0 0 3.5 1.8 1.8 0 0 0 0-3.5ZM683.8 99.3a1.8 1.8 0 1 0 0 3.5 1.8 1.8 0 0 0 0-3.5ZM683.8 82.8a1.7 1.7 0 1 0 0 3.5 1.7 1.7 0 0 0 0-3.5ZM683.8 74.5a1.8 1.8 0 1 0 0 3.5 1.8 1.8 0 0 0 0-3.5ZM683.8 91a1.7 1.7 0 1 0 0 3.5 1.7 1.7 0 0 0 0-3.5ZM683.8 66.2a1.7 1.7 0 1 0 0 3.5 1.7 1.7 0 0 0 0-3.5ZM683.8 380.3a1.7 1.7 0 1 0 0 3.5 1.7 1.7 0 0 0 0-3.5ZM683.8 363.7a1.7 1.7 0 1 0 0 3.5 1.7 1.7 0 0 0 0-3.5ZM683.8 372a1.8 1.8 0 1 0 0 3.5 1.8 1.8 0 0 0 0-3.5ZM683.8 355.5a1.7 1.7 0 1 0 0 3.5 1.7 1.7 0 0 0 0-3.5ZM683.8 330.7a1.8 1.8 0 1 0 0 3.5 1.8 1.8 0 0 0 0-3.5ZM683.8 322.4a1.7 1.7 0 1 0 0 3.5 1.7 1.7 0 0 0 0-3.5ZM683.8 347.2a1.8 1.8 0 1 0 0 3.5 1.8 1.8 0 0 0 0-3.5ZM683.8 297.6a1.7 1.7 0 1 0 0 3.5 1.7 1.7 0 0 0 0-3.5ZM683.8 339a1.7 1.7 0 1 0 0 3.4 1.7 1.7 0 0 0 0-3.5ZM692 148.9a1.8 1.8 0 1 0 0 3.5 1.8 1.8 0 0 0 0-3.5ZM692 140.6a1.7 1.7 0 1 0 0 3.5 1.7 1.7 0 0 0 0-3.5ZM692 107.6a1.7 1.7 0 1 0 0 3.5 1.7 1.7 0 0 0 0-3.5ZM692 115.8a1.8 1.8 0 1 0 0 3.5 1.8 1.8 0 0 0 0-3.5ZM692 190.2a1.7 1.7 0 1 0 0 3.5 1.7 1.7 0 0 0 0-3.5ZM692 99.3a1.8 1.8 0 1 0 0 3.5 1.8 1.8 0 0 0 0-3.5ZM692 173.7a1.7 1.7 0 1 0 0 3.5 1.7 1.7 0 0 0 0-3.5ZM692 182a1.7 1.7 0 1 0 0 3.4 1.7 1.7 0 0 0 0-3.5ZM692 66.2a1.7 1.7 0 1 0 0 3.5 1.7 1.7 0 0 0 0-3.5ZM692 74.5a1.7 1.7 0 1 0 0 3.5 1.7 1.7 0 0 0 0-3.5ZM692 82.8a1.7 1.7 0 1 0 0 3.5 1.7 1.7 0 0 0 0-3.5ZM692 91a1.7 1.7 0 1 0 0 3.5 1.7 1.7 0 0 0 0-3.5ZM692 49.7a1.7 1.7 0 1 0 0 3.5 1.7 1.7 0 0 0 0-3.5ZM692 388.5a1.7 1.7 0 1 0 0 3.5 1.7 1.7 0 0 0 0-3.5ZM692 380.3a1.7 1.7 0 1 0 0 3.5 1.7 1.7 0 0 0 0-3.5ZM692 372a1.8 1.8 0 1 0 0 3.5 1.8 1.8 0 0 0 0-3.5ZM692 347.2a1.7 1.7 0 1 0 0 3.5 1.7 1.7 0 0 0 0-3.5ZM692 355.5a1.7 1.7 0 1 0 0 3.5 1.7 1.7 0 0 0 0-3.5ZM692 363.7a1.7 1.7 0 1 0 0 3.5 1.7 1.7 0 0 0 0-3.5ZM692 297.6a1.7 1.7 0 1 0 0 3.5 1.7 1.7 0 0 0 0-3.5ZM692 339a1.7 1.7 0 1 0 0 3.4 1.7 1.7 0 0 0 0-3.5ZM692 305.9a1.8 1.8 0 1 0 0 3.5 1.8 1.8 0 0 0 0-3.5ZM700.2 99.3a1.7 1.7 0 1 0 0 3.5 1.7 1.7 0 0 0 0-3.5ZM700.2 107.6a1.7 1.7 0 1 0 0 3.5 1.7 1.7 0 0 0 0-3.5ZM700.2 115.8a1.7 1.7 0 1 0 0 3.5 1.7 1.7 0 0 0 0-3.5ZM700.2 91a1.7 1.7 0 1 0 0 3.5 1.7 1.7 0 0 0 0-3.5ZM700.2 74.5a1.7 1.7 0 1 0 0 3.5 1.7 1.7 0 0 0 0-3.5ZM700.2 82.8a1.8 1.8 0 1 0 0 3.5 1.8 1.8 0 0 0 0-3.5ZM700.2 66.2a1.8 1.8 0 1 0 0 3.5 1.8 1.8 0 0 0 0-3.5ZM700.2 388.5a1.7 1.7 0 1 0 0 3.5 1.7 1.7 0 0 0 0-3.5ZM700.2 380.3a1.7 1.7 0 1 0 0 3.5 1.7 1.7 0 0 0 0-3.5ZM700.2 363.7a1.7 1.7 0 1 0 0 3.5 1.7 1.7 0 0 0 0-3.5ZM700.2 347.2a1.7 1.7 0 1 0 0 3.5 1.7 1.7 0 0 0 0-3.5ZM700.2 372a1.8 1.8 0 1 0 0 3.5 1.8 1.8 0 0 0 0-3.5ZM700.2 355.5a1.7 1.7 0 1 0 0 3.5 1.7 1.7 0 0 0 0-3.5ZM700.2 339a1.7 1.7 0 1 0 0 3.4 1.7 1.7 0 0 0 0-3.5ZM700.2 330.7a1.8 1.8 0 1 0 0 3.5 1.8 1.8 0 0 0 0-3.5ZM700.2 322.4a1.7 1.7 0 1 0 0 3.5 1.7 1.7 0 0 0 0-3.5ZM700.2 305.9a1.8 1.8 0 1 0 0 3.5 1.8 1.8 0 0 0 0-3.5ZM700.2 297.6a1.7 1.7 0 1 0 0 3.5 1.7 1.7 0 0 0 0-3.5ZM708.4 107.6a1.7 1.7 0 1 0 0 3.5 1.7 1.7 0 0 0 0-3.5ZM708.4 99.3a1.7 1.7 0 1 0 0 3.5 1.7 1.7 0 0 0 0-3.5ZM708.4 74.5a1.8 1.8 0 1 0 0 3.5 1.8 1.8 0 0 0 0-3.5ZM708.4 66.2a1.7 1.7 0 1 0 0 3.5 1.7 1.7 0 0 0 0-3.5ZM708.4 82.8a1.7 1.7 0 1 0 0 3.5 1.7 1.7 0 0 0 0-3.5ZM708.4 49.7a1.8 1.8 0 1 0 0 3.5 1.8 1.8 0 0 0 0-3.5ZM708.4 91a1.7 1.7 0 1 0 0 3.5 1.7 1.7 0 0 0 0-3.5ZM708.4 115.8a1.7 1.7 0 1 0 0 3.5 1.7 1.7 0 0 0 0-3.5ZM708.4 405a1.7 1.7 0 1 0 0 3.6 1.7 1.7 0 0 0 0-3.5ZM708.4 388.5a1.7 1.7 0 1 0 0 3.5 1.7 1.7 0 0 0 0-3.5ZM708.4 380.3a1.8 1.8 0 1 0 0 3.5 1.8 1.8 0 0 0 0-3.5ZM708.4 355.5a1.7 1.7 0 1 0 0 3.5 1.7 1.7 0 0 0 0-3.5ZM708.4 363.7a1.7 1.7 0 1 0 0 3.5 1.7 1.7 0 0 0 0-3.5ZM708.4 347.2a1.8 1.8 0 1 0 0 3.5 1.8 1.8 0 0 0 0-3.5ZM708.4 372a1.8 1.8 0 1 0 0 3.5 1.8 1.8 0 0 0 0-3.5ZM708.4 305.9a1.8 1.8 0 1 0 0 3.5 1.8 1.8 0 0 0 0-3.5ZM708.4 314.2a1.7 1.7 0 1 0 0 3.5 1.7 1.7 0 0 0 0-3.5ZM708.4 339a1.7 1.7 0 1 0 0 3.4 1.7 1.7 0 0 0 0-3.5ZM716.6 107.6a1.7 1.7 0 1 0 0 3.5 1.7 1.7 0 0 0 0-3.5ZM716.6 115.8a1.7 1.7 0 1 0 0 3.5 1.7 1.7 0 0 0 0-3.5ZM716.6 99.3a1.7 1.7 0 1 0 0 3.5 1.7 1.7 0 0 0 0-3.5ZM716.6 74.5a1.7 1.7 0 1 0 0 3.5 1.7 1.7 0 0 0 0-3.5ZM716.6 66.2a1.7 1.7 0 1 0 0 3.5 1.7 1.7 0 0 0 0-3.5ZM716.6 82.8a1.7 1.7 0 1 0 0 3.5 1.7 1.7 0 0 0 0-3.5ZM716.6 91a1.7 1.7 0 1 0 0 3.5 1.7 1.7 0 0 0 0-3.5ZM716.6 355.5a1.7 1.7 0 1 0 0 3.5 1.7 1.7 0 0 0 0-3.5ZM716.6 363.7a1.7 1.7 0 1 0 0 3.5 1.7 1.7 0 0 0 0-3.5ZM716.6 372a1.8 1.8 0 1 0 0 3.5 1.8 1.8 0 0 0 0-3.5ZM716.6 380.3a1.7 1.7 0 1 0 0 3.5 1.7 1.7 0 0 0 0-3.5ZM716.6 305.9a1.8 1.8 0 1 0 0 3.5 1.8 1.8 0 0 0 0-3.5ZM724.8 115.8a1.7 1.7 0 1 0 0 3.5 1.7 1.7 0 0 0 0-3.5ZM724.8 107.6a1.7 1.7 0 1 0 0 3.5 1.7 1.7 0 0 0 0-3.5ZM724.8 99.3a1.7 1.7 0 1 0 0 3.5 1.7 1.7 0 0 0 0-3.5ZM724.8 82.8a1.7 1.7 0 1 0 0 3.5 1.7 1.7 0 0 0 0-3.5ZM724.8 74.5a1.7 1.7 0 1 0 0 3.5 1.7 1.7 0 0 0 0-3.5ZM724.8 66.2a1.7 1.7 0 1 0 0 3.5 1.7 1.7 0 0 0 0-3.5ZM724.8 91a1.7 1.7 0 1 0 0 3.5 1.7 1.7 0 0 0 0-3.5ZM724.8 372a1.8 1.8 0 1 0 0 3.5 1.8 1.8 0 0 0 0-3.5ZM724.8 355.5a1.7 1.7 0 1 0 0 3.5 1.7 1.7 0 0 0 0-3.5ZM724.8 305.9a1.8 1.8 0 1 0 0 3.5 1.8 1.8 0 0 0 0-3.5ZM733 132.3a1.7 1.7 0 1 0 0 3.5 1.7 1.7 0 0 0 0-3.5ZM733 140.6a1.7 1.7 0 1 0 0 3.5 1.7 1.7 0 0 0 0-3.5ZM733 124a1.8 1.8 0 1 0 0 3.6 1.8 1.8 0 0 0 0-3.5ZM733 99.3a1.8 1.8 0 1 0 0 3.5 1.8 1.8 0 0 0 0-3.5ZM733 91a1.7 1.7 0 1 0 0 3.5 1.7 1.7 0 0 0 0-3.5ZM733 66.2a1.7 1.7 0 1 0 0 3.5 1.7 1.7 0 0 0 0-3.5ZM733 74.5a1.8 1.8 0 1 0 0 3.5 1.8 1.8 0 0 0 0-3.5ZM733 82.8a1.8 1.8 0 1 0 0 3.5 1.8 1.8 0 0 0 0-3.5ZM741.3 132.3a1.8 1.8 0 1 0 0 3.5 1.8 1.8 0 0 0 0-3.5ZM741.3 124a1.8 1.8 0 1 0 0 3.6 1.8 1.8 0 0 0 0-3.5ZM741.3 115.8a1.7 1.7 0 1 0 0 3.5 1.7 1.7 0 0 0 0-3.5ZM741.3 99.3a1.8 1.8 0 1 0 0 3.5 1.8 1.8 0 0 0 0-3.5ZM741.3 91a1.7 1.7 0 1 0 0 3.5 1.7 1.7 0 0 0 0-3.5ZM741.3 82.8a1.7 1.7 0 1 0 0 3.5 1.7 1.7 0 0 0 0-3.5ZM741.3 74.5a1.7 1.7 0 1 0 0 3.5 1.7 1.7 0 0 0 0-3.5ZM741.3 314.2a1.7 1.7 0 1 0 0 3.5 1.7 1.7 0 0 0 0-3.5ZM749.5 107.6a1.7 1.7 0 1 0 0 3.5 1.7 1.7 0 0 0 0-3.5ZM749.5 99.3a1.8 1.8 0 1 0 0 3.5 1.8 1.8 0 0 0 0-3.5ZM749.5 91a1.7 1.7 0 1 0 0 3.5 1.7 1.7 0 0 0 0-3.5ZM749.5 74.5a1.8 1.8 0 1 0 0 3.5 1.8 1.8 0 0 0 0-3.5ZM749.5 82.8a1.8 1.8 0 1 0 0 3.5 1.8 1.8 0 0 0 0-3.5ZM749.5 413.3a1.7 1.7 0 1 0 0 3.5 1.7 1.7 0 0 0 0-3.5ZM757.7 408.6a1.7 1.7 0 1 0 0-3.5 1.7 1.7 0 0 0 0 3.5ZM757.7 94.5a1.7 1.7 0 1 0 0-3.5 1.7 1.7 0 0 0 0 3.5ZM757.7 86.3a1.7 1.7 0 1 0 0-3.5 1.7 1.7 0 0 0 0 3.5ZM757.7 102.8a1.7 1.7 0 1 0 0-3.5 1.7 1.7 0 0 0 0 3.5ZM757.7 111a1.7 1.7 0 1 0 0-3.4 1.7 1.7 0 0 0 0 3.5ZM765.9 107.6a1.7 1.7 0 1 0 0 3.5 1.7 1.7 0 0 0 0-3.5ZM765.9 99.3a1.7 1.7 0 1 0 0 3.5 1.7 1.7 0 0 0 0-3.5ZM765.9 91a1.7 1.7 0 1 0 0 3.5 1.7 1.7 0 0 0 0-3.5ZM765.9 74.5a1.7 1.7 0 1 0 0 3.5 1.7 1.7 0 0 0 0-3.5ZM765.9 82.8a1.8 1.8 0 1 0 0 3.5 1.8 1.8 0 0 0 0-3.5ZM765.9 388.5a1.7 1.7 0 1 0 0 3.5 1.7 1.7 0 0 0 0-3.5ZM765.9 396.8a1.8 1.8 0 1 0 0 3.5 1.8 1.8 0 0 0 0-3.5ZM765.9 380.3a1.7 1.7 0 1 0 0 3.5 1.7 1.7 0 0 0 0-3.5ZM774.1 94.5a1.7 1.7 0 1 0 0-3.5 1.7 1.7 0 0 0 0 3.5ZM774.1 86.3a1.8 1.8 0 1 0 0-3.5 1.8 1.8 0 0 0 0 3.5ZM774.1 102.8a1.7 1.7 0 1 0 0-3.5 1.7 1.7 0 0 0 0 3.5ZM774.1 78a1.7 1.7 0 1 0 0-3.5 1.7 1.7 0 0 0 0 3.5ZM774.1 392a1.7 1.7 0 1 0 0-3.5 1.7 1.7 0 0 0 0 3.5ZM774.1 383.8a1.7 1.7 0 1 0 0-3.5 1.7 1.7 0 0 0 0 3.5ZM782.3 82.8a1.8 1.8 0 1 0 0 3.5 1.8 1.8 0 0 0 0-3.5ZM782.3 66.2a1.7 1.7 0 1 0 0 3.5 1.7 1.7 0 0 0 0-3.5ZM790.5 82.8c-1 0-1.7.7-1.7 1.7a1.7 1.7 0 1 0 1.7-1.7ZM790.5 91a1.7 1.7 0 1 0 0 3.5 1.7 1.7 0 0 0 0-3.5ZM798.8 91a1.7 1.7 0 1 0 0 3.5 1.7 1.7 0 0 0 0-3.5Z" fill="white"/><path d="M626.3 57.7a1.7 1.7 0 1 0 0 3.5 1.7 1.7 0 0 0 0-3.5ZM634.5 57.7a1.7 1.7 0 1 0 0 3.5 1.7 1.7 0 0 0 0-3.5ZM642.7 57.7a1.8 1.8 0 1 0 0 3.5 1.8 1.8 0 0 0 0-3.5ZM651 57.7a1.7 1.7 0 1 0 0 3.5 1.7 1.7 0 0 0 0-3.5ZM659.2 57.7a1.7 1.7 0 1 0 0 3.5 1.7 1.7 0 0 0 0-3.5Z" fill="white"/></svg>