<svg xmlns="http://www.w3.org/2000/svg" width="25.733" height="24.485" viewBox="0 0 25.733 24.485">
  <g id="Icon_solar-pen-new-square-linear" data-name="Icon solar-pen-new-square-linear" transform="translate(-1.563 -1.562)">
    <path id="Path_27" data-name="Path 27" d="M26.357,12.109v1.7c0,5.329,0,7.994-1.748,9.649S20.052,25.11,14.429,25.11s-8.435,0-10.182-1.656S2.5,19.134,2.5,13.8s0-7.994,1.746-9.65S8.805,2.5,14.429,2.5h1.789" fill="none" stroke="#ddd" stroke-linecap="round" stroke-width="1.875"/>
    <path id="Path_28" data-name="Path 28" d="M20.815,4.319l.811-.811a3.441,3.441,0,0,1,4.866,4.868l-.812.811M20.815,4.32a5.478,5.478,0,0,0,1.622,3.244,5.478,5.478,0,0,0,3.244,1.622M20.815,4.32l-7.456,7.455a11.976,11.976,0,0,0-.975,1.036,5.736,5.736,0,0,0-.655,1.06,12.217,12.217,0,0,0-.49,1.335l-.724,2.169m15.166-8.19-7.456,7.456a11.976,11.976,0,0,1-1.036.975,5.738,5.738,0,0,1-1.06.655,12.217,12.217,0,0,1-1.335.49l-2.169.724m0,0-1.4.468a.928.928,0,0,1-1.174-1.175l.468-1.4m2.11,2.11-2.11-2.11" transform="translate(-1.143)" fill="none" stroke="#ddd" stroke-width="1.875"/>
  </g>
</svg>
