<svg xmlns="http://www.w3.org/2000/svg" width="32.5" height="32.5" viewBox="0 0 32.5 32.5">
  <path id="Icon_ion-reload-circle" data-name="Icon ion-reload-circle" d="M20,3.75A16.25,16.25,0,1,0,36.25,20,16.269,16.269,0,0,0,20,3.75Zm9.375,14.23a.673.673,0,0,1-.673.673H24.05a.673.673,0,0,1-.476-1.149l1.732-1.732-.437-.509a6.825,6.825,0,1,0,1.522,7.012,1.251,1.251,0,1,1,2.359.834A9.332,9.332,0,1,1,26.7,13.56l.044.048.337.391,1.147-1.147a.659.659,0,0,1,.469-.2.673.673,0,0,1,.678.674Z" transform="translate(-3.75 -3.75)" fill="#969393"/>
</svg>