<?xml version="1.0" encoding="UTF-8" standalone="no"?>
<svg
   xmlns:dc="http://purl.org/dc/elements/1.1/"
   xmlns:cc="http://creativecommons.org/ns#"
   xmlns:rdf="http://www.w3.org/1999/02/22-rdf-syntax-ns#"
   xmlns:svg="http://www.w3.org/2000/svg"
   xmlns="http://www.w3.org/2000/svg"
   id="svg4"
   xml:space="preserve"
   viewBox="0 0 1024 768"
   y="0px"
   x="0px"
   version="1.1"><metadata
     id="metadata10"><rdf:RDF><cc:Work
         rdf:about=""><dc:format>image/svg+xml</dc:format><dc:type
           rdf:resource="http://purl.org/dc/dcmitype/StillImage" /></cc:Work></rdf:RDF></metadata><defs
     id="defs8" /><path
     id="path2"
     d="m672.06 127.96c-1.4084 0-3.6808 0.0645-5.0508 0.14261-1.3686 0.0768-3.4798 0.24052-4.6934 0.36132-1.2121 0.12078-3.2611 0.38041-4.5527 0.57815-1.2904 0.19787-3.3087 0.54938-4.4824 0.78123-1.1737 0.232-3.2531 0.70205-4.623 1.0449-1.3686 0.34427-3.6086 0.97304-4.9785 1.3984-1.3686 0.42536-3.4513 1.1251-4.625 1.5547-1.1737 0.42967-3.3026 1.2787-4.7324 1.8848-1.4298 0.60605-3.8322 1.7257-5.336 2.4883-1.5052 0.76397-3.5992 1.8877-4.6562 2.4981-1.0571 0.61174-2.7989 1.6717-3.873 2.3574-1.0741 0.68571-2.9146 1.9316-4.0898 2.7695-1.1751 0.83794-3.0168 2.2271-4.0938 3.0879-1.0756 0.86073-2.6926 2.2098-3.5918 2.998-0.89911 0.78673-2.8886 2.684-4.418 4.2148-1.5308 1.5294-3.4261 3.5154-4.2129 4.416-0.78816 0.89911-2.1373 2.5182-2.998 3.5937-0.86073 1.0769-2.2519 2.9168-3.0898 4.0918-0.83793 1.1751-2.1016 3.0458-2.8086 4.1543-0.7085 1.1082-1.7704 2.8516-2.3594 3.873-0.59039 1.0215-1.6904 3.0804-2.4473 4.5742-0.75828 1.4938-1.8643 3.8622-2.459 5.2636-0.59465 1.4013-1.3344 3.2187-1.6445 4.041-0.30875 0.82088-0.89034 2.4857-1.293 3.6992-0.40121 1.2121-1.0147 3.2304-1.3633 4.4824-0.3471 1.252-0.89014 3.4276-1.2031 4.8359-0.31285 1.4084-0.75992 3.7451-0.99611 5.1934-0.23472 1.4468-0.5229 3.4634-0.63672 4.4805-0.11531 1.0172-0.2934 2.7768-0.39452 3.9121-0.13374 1.491-0.18355 5.3366-0.18355 13.871v11.809l0.37696 1.3613c0.2064 0.74975 0.57561 1.8421 0.8203 2.4297 0.24461 0.58613 0.75599 1.575 1.1387 2.1953 0.38129 0.61884 1.0303 1.511 1.4414 1.9805 0.41114 0.46948 1.1705 1.2274 1.6855 1.6855 0.51642 0.45669 1.4456 1.1446 2.0645 1.5273 0.62028 0.38128 1.6092 0.89399 2.1953 1.1387 0.58755 0.24462 1.6799 0.60039 2.4297 0.79103 0.80236 0.2047 2.0058 0.37989 2.9277 0.4297 0.9148 0.0498 2.0846 0.0171 2.8145-0.0822 0.68714-0.0911 1.8054-0.32752 2.4883-0.5254 0.68145-0.19787 1.7586-0.60502 2.3945-0.90235 0.63591-0.2975 1.5458-0.80348 2.0195-1.125 0.47377-0.32309 1.2271-0.90758 1.6738-1.2988 0.44675-0.39121 1.1611-1.1108 1.5879-1.6016 0.42536-0.4894 1.0866-1.3987 1.4707-2.0176 0.38269-0.62031 0.8959-1.6092 1.1406-2.1953 0.24462-0.58759 0.61049-1.68 0.81249-2.4297l0.3672-1.3613 0.0976-11.594c0.0597-7.331 0.15694-12.118 0.26372-13.018 0.0911-0.78247 0.28829-2.2562 0.43748-3.2735 0.14943-1.0172 0.46696-2.7783 0.70315-3.9121 0.23608-1.1353 0.7159-3.057 1.0644-4.2734 0.34997-1.2164 0.93217-3.0321 1.2949-4.0351 0.36419-1.003 0.98078-2.5666 1.3691-3.4785 0.38982-0.9105 1.2993-2.8082 2.0234-4.2168 0.72272-1.4084 1.8165-3.3624 2.4297-4.3398 0.61318-0.97881 1.5696-2.4187 2.123-3.2012 0.5534-0.78246 1.6254-2.19 2.3808-3.1289 0.75548-0.93896 2.081-2.4852 2.9473-3.4356 0.86499-0.95035 2.3949-2.4775 3.3965-3.3965 1.003-0.91907 2.6476-2.3327 3.6563-3.1406 1.0072-0.80949 2.7683-2.1045 3.9121-2.877 1.1424-0.77254 2.799-1.8308 3.6797-2.3516 0.88205-0.52069 2.5469-1.4185 3.6992-1.9961 1.1538-0.57616 2.7325-1.3184 3.5078-1.6484 0.77537-0.32854 2.2791-0.91876 3.3418-1.3086 1.0641-0.38839 2.9266-0.99328 4.1387-1.3418 1.2135-0.34857 3.1153-0.82279 4.2265-1.0547 1.1125-0.232 3.1294-0.57855 4.4824-0.77346 1.3529-0.19344 3.5806-0.42707 4.9492-0.51953 1.508-0.10099 3.7226-0.13237 5.6192-0.0781 1.7214 0.0484 3.7703 0.15592 4.5527 0.23848 0.78246 0.0826 2.2543 0.27259 3.2715 0.42185 1.0172 0.14943 2.8035 0.46962 3.9688 0.7129 1.1652 0.24189 3.0854 0.72157 4.2676 1.0644 1.1822 0.34287 2.8856 0.88608 3.7832 1.209 0.89768 0.32172 2.4034 0.90918 3.3437 1.3047 0.94039 0.39408 2.7663 1.2533 4.0567 1.9063 1.2918 0.65299 3.1836 1.6901 4.205 2.3047 1.02 0.61318 2.574 1.6203 3.4532 2.2363 0.87779 0.61605 2.348 1.7185 3.2656 2.4512 0.91764 0.73265 2.4815 2.0668 3.4746 2.9629 0.99443 0.89771 2.5879 2.4786 3.541 3.5156 0.95179 1.0371 2.3495 2.6547 3.1035 3.5938 0.75402 0.93895 1.7611 2.2551 2.2364 2.9238 0.47514 0.66865 1.2691 1.8527 1.7656 2.6309 0.4951 0.77816 1.2185 1.9592 1.6055 2.625 0.38695 0.66435 1.2578 2.3292 1.9336 3.6992 0.67715 1.3686 1.572 3.3532 1.9902 4.4102 0.41824 1.0556 1.0656 2.8471 1.4355 3.9824 0.37132 1.1338 0.90726 2.9916 1.1875 4.127 0.2818 1.1338 0.66981 2.9254 0.86328 3.9824 0.19208 1.0556 0.44639 2.6562 0.56446 3.5566 0.11668 0.89911 0.29034 2.757 0.38283 4.127 0.10371 1.5166 0.1368 3.7129 0.0839 5.6192-0.0467 1.7214-0.21391 4.2185-0.36914 5.5488-0.15489 1.3302-0.44587 3.3147-0.64648 4.4102-0.20197 1.0954-0.59721 2.9194-0.87891 4.0547-0.2801 1.1338-0.81617 2.9897-1.1875 4.125-0.36989 1.1338-1.0153 2.9273-1.4336 3.9844-0.41683 1.0556-1.3814 3.1668-2.1426 4.6934-0.76114 1.5251-1.7963 3.4597-2.3027 4.2949-0.50507 0.8365-1.3212 2.1153-1.8106 2.8438-0.48937 0.72983-1.3207 1.9078-1.8457 2.6191-0.52639 0.71133-1.6208 2.0903-2.4317 3.0606-0.81092 0.97168-2.4661 2.7582-3.6797 3.9746-1.2135 1.2164-3.0393 2.9036-4.0566 3.75-1.0172 0.84647-2.6419 2.1156-3.6094 2.8184-0.96741 0.7042-2.4412 1.707-3.2734 2.2305-0.83228 0.52356-2.0226 1.247-2.6484 1.6055-0.62597 0.3585-2.0444 1.1048-3.1485 1.6582-1.1054 0.5534-2.783 1.3302-3.7304 1.7285-0.94752 0.39834-2.512 1.0062-3.4766 1.3476-0.96454 0.34287-2.6776 0.88304-3.8086 1.2031-1.131 0.31865-2.9515 0.76954-4.0469 1-1.0954 0.23199-2.6316 0.52024-3.414 0.64258-0.78246 0.12248-2.2562 0.33264-3.2735 0.46484l-1.8476 0.24018-163.25 0.0508c-116.54 0.0355-163.96 0.007-165.74-0.10542-1.3686-0.0853-3.6022-0.3149-4.9609-0.50978-1.3601-0.1948-3.2428-0.51816-4.1875-0.71876-0.97488-0.20232-2.4887-0.55621-3.3945-0.78905-0.9058-0.23541-2.5023-0.71389-3.5488-1.0644-1.0491-0.34799-2.7429-0.96622-3.7715-1.3731-1.0261-0.40428-2.982-1.2874-4.3535-1.9629-1.3689-0.67551-3.2243-1.6631-4.125-2.1953-0.90065-0.53222-2.5711-1.6003-3.7148-2.373-1.1438-0.77274-2.9059-2.0664-3.9141-2.875-1.0082-0.80856-2.6658-2.2379-3.6816-3.1719-1.0184-0.93906-2.4332-2.338-3.1445-3.1133-0.70877-0.77786-1.8194-2.0443-2.4668-2.8144-0.6448-0.77274-1.651-2.0471-2.2344-2.8301-0.5834-0.78297-1.5271-2.1378-2.0977-3.0078-0.57061-0.86998-1.4257-2.2529-1.8965-3.0742-0.47337-0.82136-1.3126-2.3985-1.8653-3.5039-0.55269-1.1054-1.3253-2.7718-1.7168-3.7032-0.39149-0.93138-0.97448-2.428-1.2969-3.3262-0.3224-0.89557-0.8727-2.625-1.2207-3.8379-0.34854-1.2135-0.82832-3.1338-1.0645-4.2676-0.23608-1.1353-0.55176-2.895-0.70116-3.9121-0.1508-1.0172-0.35301-2.5872-0.45116-3.4863-0.10235-0.94323-0.17775-3.4737-0.17775-5.9746 0-2.5011 0.0754-5.0315 0.17775-5.9746 0.0983-0.90054 0.30023-2.4691 0.45116-3.4863 0.14943-1.0172 0.46501-2.7784 0.70116-3.9121 0.23609-1.1353 0.71594-3.057 1.0645-4.2735 0.35-1.2164 0.93411-3.0321 1.2969-4.0351 0.36423-1.003 0.98072-2.5685 1.3691-3.4805 0.38978-0.9105 1.2993-2.8082 2.0234-4.2168 0.72273-1.4084 1.8165-3.3605 2.4297-4.3379 0.61318-0.97881 1.5677-2.4187 2.1211-3.2012 0.5534-0.78247 1.6274-2.1919 2.3828-3.1308 0.75544-0.93896 2.0738-2.4751 2.9316-3.4141 0.85643-0.93896 2.2576-2.353 3.1113-3.1426 0.85504-0.78817 2.1829-1.9611 2.9512-2.6055 0.76967-0.64446 1.9861-1.6047 2.7031-2.1367 0.71846-0.53068 1.9778-1.4127 2.7988-1.959 0.82228-0.54775 2.215-1.4207 3.0957-1.9414 0.88205-0.52069 2.5469-1.4204 3.6992-1.998 1.1538-0.5762 2.7306-1.3184 3.5059-1.6484 0.77534-0.32854 2.281-0.91685 3.3437-1.3066 1.0641-0.38839 2.9266-0.99328 4.1387-1.3418 1.2135-0.34857 3.1153-0.8247 4.2266-1.0566 1.1125-0.23199 3.1294-0.57851 4.4824-0.77342 1.353-0.19344 3.5808-0.42704 4.9492-0.51953 1.508-0.10099 3.7228-0.13033 5.6192-0.0761 1.7214 0.0484 3.7703 0.15591 4.5527 0.23813 0.78246 0.0826 2.2542 0.27055 3.2715 0.41995 1.0172 0.14943 2.8035 0.47159 3.9688 0.71484 1.1652 0.24189 3.0854 0.72157 4.2676 1.0644 1.1822 0.34287 2.8856 0.88604 3.7832 1.209 0.89771 0.32138 2.3937 0.90566 3.3242 1.2969 0.93186 0.39125 2.5978 1.1634 3.7031 1.7168 1.104 0.55341 2.6831 1.3924 3.5039 1.8633 0.82231 0.47091 2.1994 1.3196 3.0645 1.8887 0.86499 0.56763 2.2406 1.5287 3.0586 2.1348 0.81805 0.60748 2.2883 1.7783 3.2656 2.6035 0.97881 0.82371 2.741 2.4627 3.916 3.6406 1.1751 1.178 2.8005 2.939 3.6113 3.9121 0.81235 0.97311 1.9391 2.3902 2.5039 3.1484 0.5634 0.75831 1.3993 1.9478 1.8574 2.6406 0.45669 0.69427 1.2379 1.9335 1.7344 2.7559 0.4965 0.82088 1.4348 2.548 2.0879 3.8398 0.65299 1.2904 1.4571 2.9847 1.7871 3.7656 0.33162 0.77964 0.91614 2.2686 1.2988 3.3086 0.38269 1.04 0.98362 2.8969 1.3379 4.1289 0.35283 1.232 0.86199 3.3298 1.1309 4.6602 0.26884 1.3302 0.58507 3.0897 0.70311 3.9121 0.11668 0.82088 0.28999 2.1336 0.38088 2.916 0.10678 0.90054 0.20061 5.6752 0.26167 13.018l0.0976 11.596 0.36716 1.3613c0.20197 0.74971 0.5678 1.8421 0.81252 2.4297 0.24462 0.58616 0.7579 1.575 1.1406 2.1953 0.38129 0.61885 1.0303 1.511 1.4414 1.9805 0.41114 0.46947 1.1686 1.2275 1.6836 1.6856 0.51642 0.45669 1.4476 1.1427 2.0664 1.5254 0.62031 0.38125 1.6092 0.89396 2.1953 1.1387 0.58759 0.24461 1.68 0.60035 2.4297 0.79099 0.80236 0.2047 2.0039 0.38187 2.9258 0.43165 0.91477 0.0498 2.0846 0.017 2.8144-0.0819 0.68714-0.0911 1.8074-0.32957 2.4902-0.52734 0.68145-0.19788 1.7657-0.60663 2.4101-0.90822 0.64449-0.30159 1.6532-0.88076 2.2422-1.2891 0.58896-0.40687 1.586-1.2545 2.2148-1.8848 0.62884-0.62884 1.4946-1.6689 1.92-2.3106 0.4268-0.64163 0.99726-1.6443 1.2676-2.2304 0.27191-0.58473 0.65272-1.6148 0.84766-2.2891 0.1948-0.67435 0.42936-1.7692 0.51758-2.4336 0.11225-0.84793 0.13886-4.5598 0.0918-12.488-0.0386-6.5471-0.1334-11.998-0.22449-12.988-0.0867-0.93896-0.29102-2.8286-0.45314-4.1973-0.16376-1.37-0.51219-3.7067-0.7754-5.1933-0.26338-1.4867-0.71297-3.6961-0.99607-4.9082-0.28453-1.2135-0.73856-3.005-1.0117-3.9824-0.26884-0.98-0.71256-2.486-0.98635-3.3457-0.27361-0.8623-0.85735-2.5586-1.2949-3.7715-0.44011-1.2128-1.2752-3.325-1.8535-4.6914-0.58083-1.3715-1.6263-3.6435-2.3223-5.0508-0.69598-1.4099-1.8432-3.5687-2.5469-4.7969-0.70362-1.2308-1.8522-3.1334-2.5508-4.2285-0.7011-1.0977-1.9596-2.9584-2.7988-4.1328-0.83671-1.1745-2.2256-3.0165-3.0879-4.0938-0.85974-1.0747-2.2107-2.6917-3.0039-3.5898-0.79321-0.89812-2.3286-2.5484-3.416-3.6641-1.0875-1.1182-2.8183-2.7939-3.8418-3.7266-1.026-0.93165-2.5693-2.283-3.4316-3-0.85974-0.71696-2.4276-1.9593-3.4844-2.7617-1.0542-0.80089-2.817-2.0695-3.9121-2.8164-1.0951-0.74688-2.8281-1.8699-3.8516-2.4961-1.0209-0.62586-2.9422-1.734-4.2676-2.4609-1.3254-0.72696-3.2394-1.7156-4.2578-2.1992-1.0184-0.4823-2.5524-1.1845-3.4121-1.5586-0.8623-0.37433-2.429-1.0166-3.4883-1.4278-1.0542-0.41121-2.8808-1.0708-4.0528-1.4648-1.1745-0.39558-3.1609-1.0085-4.4121-1.3613-1.2512-0.35414-3.0753-0.83255-4.0527-1.0645-0.97744-0.23199-2.639-0.58813-3.6856-0.79297-1.0491-0.20334-2.9384-0.52506-4.1973-0.71287-1.2589-0.18764-3.2513-0.44212-4.4258-0.56446-1.1737-0.12077-3.3174-0.28351-4.7656-0.36327-1.4468-0.0798-3.9759-0.13442-5.6192-0.12316l-0.0529 0.007c-1.6432 0.0102-3.8851 0.072-4.9804 0.13476-1.0954 0.0624-3.0156 0.21459-4.2676 0.3398s-3.3314 0.39013-4.623 0.5879c-1.2918 0.19788-3.3068 0.54938-4.4805 0.78127-1.1737 0.23199-3.2551 0.70202-4.625 1.0449-1.3686 0.34427-3.6086 0.97506-4.9785 1.4004-1.3686 0.42537-3.4513 1.125-4.625 1.5547-1.1737 0.42963-3.3056 1.2787-4.7383 1.8848-1.4341 0.60748-3.833 1.7272-5.334 2.4883-1.5023 0.76115-3.5664 1.8646-4.5879 2.4551-1.0215 0.58896-2.7668 1.6509-3.875 2.3594-1.1082 0.70707-2.9771 1.9706-4.1523 2.8086-1.1752 0.83794-3.0168 2.2291-4.0938 3.0898-1.0756 0.86073-2.6914 2.208-3.5918 2.9961-0.89911 0.78673-2.8886 2.684-4.418 4.2148-1.5308 1.5294-3.4261 3.5173-4.2129 4.418-0.78817 0.89914-2.1309 2.5086-2.9844 3.5742-0.85217 1.0656-2.2322 2.889-3.0644 4.0528-0.83367 1.1638-2.1044 3.0422-2.8242 4.1719-0.72129 1.1296-1.7938 2.8906-2.3828 3.9121-0.59042 1.0215-1.6904 3.0804-2.4472 4.5742-0.75831 1.4938-1.8643 3.8623-2.459 5.2637-0.59209 1.4022-1.3324 3.2216-1.6426 4.043-0.30875 0.82136-0.8902 2.4864-1.293 3.6992-0.40097 1.2128-1.0128 3.2292-1.3613 4.4804-0.34724 1.2512-0.89017 3.43-1.2031 4.8398-0.31285 1.4073-0.76186 3.7432-0.99805 5.1914-0.23472 1.4468-0.52096 3.4634-0.63478 4.4804-0.11531 1.0172-0.29306 2.7768-0.39258 3.9121-0.10815 1.2264-0.18081 4.1982-0.17774 7.3281 0.001 2.9592 0.0812 6.1038 0.17774 7.1836 0.0952 1.0556 0.27362 2.8167 0.39453 3.9121 0.12077 1.0954 0.4401 3.2973 0.70898 4.8906 0.26884 1.5934 0.71474 3.8975 0.99218 5.1211 0.276 1.2235 0.7857 3.248 1.1328 4.5 0.34714 1.2519 0.9931 3.365 1.4355 4.6953 0.44245 1.3302 1.1416 3.2809 1.5528 4.3379 0.41114 1.0556 1.1833 2.9134 1.7168 4.127 0.53352 1.2121 1.5259 3.2928 2.2031 4.623 0.67718 1.3302 1.73 3.2828 2.3418 4.3398 0.61031 1.0571 1.6697 2.7989 2.3555 3.873 0.68571 1.0741 1.9317 2.9146 2.7695 4.0898 0.83794 1.1751 2.2271 3.0168 3.0879 4.0938 0.86069 1.0755 2.2022 2.6778 2.9805 3.5586 0.7782 0.88205 2.1289 2.3493 3.0039 3.2598 0.87492 0.91194 2.4248 2.431 3.4434 3.377 1.0187 0.94609 2.497 2.2744 3.2852 2.9531 0.7896 0.67862 2.3345 1.937 3.4356 2.7949 1.1011 0.85926 2.9185 2.2 4.041 2.9824 1.1211 0.78247 2.7636 1.8778 3.6484 2.4356 0.88488 0.55767 2.5159 1.537 3.627 2.1758 1.1097 0.63877 3.2677 1.7838 4.7929 2.5449 1.5265 0.76111 3.7041 1.7825 4.8379 2.2676 1.1353 0.48653 2.8628 1.1878 3.8418 1.5605 0.9788 0.37132 2.7723 1.0006 3.9844 1.4004 1.2121 0.39977 2.9718 0.94738 3.9121 1.2148 0.93896 0.26884 2.7997 0.74917 4.1328 1.0664 1.3345 0.31728 3.5102 0.77267 4.8359 1.0117 1.3259 0.23916 3.6266 0.59009 5.1133 0.77933 1.4867 0.18935 3.7285 0.42881 4.9805 0.53123 1.8609 0.15216 32.411 0.1856 167.37 0.1856 133.55 0 165.5-0.0355 167.16-0.18355 1.1353-0.10099 3.1198-0.31012 4.4102-0.46679 1.2918-0.15523 3.3068-0.44283 4.4805-0.6406 1.1737-0.19788 3.1581-0.58183 4.4102-0.85353 1.252-0.27021 3.4295-0.80833 4.8379-1.1953 1.4084-0.38695 3.5227-1.0212 4.6992-1.4082 1.1751-0.38695 2.9666-1.0198 3.9824-1.4082 1.0144-0.38839 2.4852-0.97963 3.2676-1.3125 0.78246-0.33298 2.3672-1.0412 3.5195-1.5762 1.1524-0.53348 3.0726-1.4951 4.2676-2.1367 1.195-0.6402 3.1329-1.7436 4.3066-2.4492 1.1737-0.70567 2.8061-1.7321 3.6269-2.2812 0.82231-0.54771 2.2941-1.5767 3.2715-2.2852 0.9788-0.7085 2.5644-1.9143 3.5234-2.6797 0.95888-0.76394 2.495-2.0509 3.4141-2.8574 0.919-0.80661 2.4335-2.1971 3.3652-3.0918 0.93182-0.89484 2.468-2.4599 3.414-3.4785 0.94609-1.0187 2.2747-2.497 2.9531-3.2852 0.67858-0.7896 1.937-2.3345 2.7949-3.4356 0.85929-1.1011 2.2-2.9204 2.9824-4.043 0.78247-1.121 1.8778-2.7617 2.4355-3.6465 0.5577-0.88488 1.537-2.5178 2.1758-3.6289 0.6388-1.1097 1.7844-3.2677 2.5469-4.793 0.76115-1.5265 1.8595-3.895 2.4414-5.2636 0.58185-1.37 1.39-3.4068 1.7968-4.5293 0.40691-1.1225 0.99808-2.8516 1.3125-3.8418 0.31456-0.9902 0.78813-2.5687 1.0527-3.5078 0.26304-0.93896 0.73637-2.8286 1.0508-4.1973 0.31456-1.37 0.76582-3.6098 1.0019-4.9785 0.23609-1.37 0.55784-3.5475 0.7129-4.8379 0.15523-1.2918 0.3628-3.3068 0.46095-4.4805 0.0996-1.1907 0.17775-4.3686 0.17775-7.1855s-0.0781-5.9928-0.17775-7.1836c-0.0983-1.1737-0.30603-3.1901-0.46095-4.4805-0.15489-1.2918-0.47671-3.4692-0.7129-4.8379-0.23609-1.37-0.68752-3.6098-1.0019-4.9785-0.31455-1.37-0.78758-3.2582-1.0508-4.1973-0.26475-0.93896-0.73532-2.5106-1.0469-3.4922-0.31148-0.98021-0.86677-2.6127-1.2324-3.627-0.36559-1.0144-1.0435-2.7584-1.5058-3.875-0.46382-1.1168-1.3139-3.0371-1.8887-4.2676-0.5748-1.2306-1.5086-3.1027-2.0762-4.1582-0.56763-1.057-1.5834-2.8486-2.2578-3.9824-0.67292-1.1353-1.8888-3.0575-2.7012-4.2695-0.81235-1.2135-2.1991-3.1642-3.084-4.3379-0.88488-1.1737-2.1689-2.8081-2.8574-3.6289-0.68714-0.82231-2.0618-2.3889-3.0547-3.4844-0.993-1.0954-2.6943-2.8564-3.7812-3.9121-1.0235-1.0619-2.6607-2.5995-3.6074-3.4219-0.94674-0.82215-2.3535-2.0104-3.1211-2.6406-0.79321-0.63021-2.072-1.6261-2.8652-2.2148-0.76763-0.59056-2.4068-1.7486-3.6094-2.5723-1.2282-0.82392-3.1726-2.0725-4.3496-2.7754-1.177-0.70291-3.0962-1.7999-4.2988-2.4414-1.2026-0.64173-3.1474-1.6113-4.2988-2.1563-1.177-0.54348-2.9921-1.344-4.0156-1.7793-1.0343-0.43533-3.0038-1.1944-4.375-1.6894-1.3714-0.49367-3.4932-1.1963-4.7168-1.5605-1.2235-0.36277-3.2385-0.91498-4.4805-1.2266-1.242-0.31285-3.2341-0.76138-4.4277-0.9961-1.1936-0.23336-3.2105-0.57892-4.4824-0.76953-1.2718-0.18935-3.2716-0.44407-4.4453-0.56641-1.1737-0.12077-3.3174-0.28556-4.7656-0.36525-1.4468-0.0795-3.785-0.14397-5.1933-0.14261zm-240.28 224.08 0.003 0.007c-0.68005 0.0102-1.6184 0.0723-2.0879 0.14056-0.46947 0.0669-1.4204 0.28488-2.1133 0.48245-0.69281 0.19787-1.7269 0.57715-2.2988 0.84179-0.5719 0.26474-1.4788 0.76418-2.0137 1.1113-0.53495 0.34574-1.3496 0.9593-1.8105 1.3633-0.46092 0.40404-1.1865 1.1361-1.6133 1.627-0.42536 0.48937-1.0866 1.3987-1.4707 2.0176-0.38269 0.6203-0.8959 1.6072-1.1406 2.1934-0.24462 0.58755-0.61403 1.682-0.82033 2.4317l-0.37696 1.3613-0.0761 91.689-0.0781 91.689-0.30841 2.3477c-0.16922 1.2918-0.47125 3.2445-0.67186 4.3398-0.20197 1.0954-0.59725 2.9194-0.87891 4.0547-0.2801 1.1339-0.81617 2.9897-1.1875 4.125-0.36989 1.1339-1.0173 2.9286-1.4356 3.9844-0.41824 1.0556-1.313 3.0402-1.9902 4.4102-0.67575 1.3686-1.5466 3.0334-1.9336 3.6992-0.38695 0.66439-1.1115 1.8484-1.6094 2.6308-0.49793 0.78246-1.4631 2.1919-2.1445 3.1308-0.68288 0.93896-1.9339 2.5395-2.7832 3.5567-0.84794 1.0172-2.5351 2.8434-3.75 4.0586-1.2135 1.2164-3.0035 2.8727-3.9766 3.6836-0.97308 0.81092-2.3915 1.9352-3.1484 2.5-0.75685 0.5634-1.9126 1.3796-2.5684 1.8164-0.65586 0.43537-1.8971 1.2165-2.7578 1.7344-0.86069 0.51929-2.6205 1.4779-3.9121 2.1309-1.2903 0.65443-3.1285 1.5187-4.086 1.9199-0.95601 0.40261-2.5295 1.0121-3.4941 1.3535-0.96455 0.34288-2.6777 0.88304-3.8086 1.2031-1.131 0.31865-2.9515 0.76953-4.0468 0.99999-1.0954 0.23165-2.6316 0.52021-3.4141 0.64259-0.78243 0.12213-2.2867 0.31933-3.3437 0.43751-1.0556 0.11941-3.3293 0.25417-5.0508 0.30261-1.885 0.0525-4.1197 0.0205-5.6191-0.0781-1.3686-0.0925-3.6023-0.32514-4.9609-0.52148-1.3601-0.1948-3.2428-0.51618-4.1875-0.71679-0.94322-0.1989-2.4552-0.55436-3.3613-0.78908-0.90481-0.23472-2.5023-0.71256-3.5508-1.0625-1.0471-0.34857-2.7425-0.9656-3.7696-1.3711-1.0258-0.40544-2.9855-1.2891-4.3555-1.9648-1.3686-0.67435-3.2246-1.6633-4.125-2.1953-0.89914-0.53205-2.5723-1.6005-3.7148-2.373-1.1438-0.7725-2.905-2.0654-3.9121-2.875-1.0087-0.80808-2.6662-2.2377-3.6836-3.1738-1.0172-0.93756-2.4312-2.3379-3.1426-3.1133-0.7099-0.77677-1.8209-2.0433-2.4668-2.8145-0.64446-0.7725-1.6496-2.0461-2.2344-2.8301-0.5833-0.7839-1.5277-2.1367-2.0996-3.0058-0.5705-0.87066-1.4242-2.2552-1.8965-3.0762-0.47231-0.82231-1.3099-2.3979-1.8633-3.5019-0.55341-1.1054-1.3256-2.7712-1.7168-3.7031-0.39125-0.93042-0.97536-2.4265-1.2969-3.3242-0.32308-0.89771-0.87216-2.6277-1.2207-3.8398-0.34857-1.2135-0.82832-3.1338-1.0645-4.2676-0.23608-1.1353-0.55371-2.895-0.70311-3.9121-0.15079-1.0172-0.35304-2.5856-0.45119-3.4863-0.10235-0.94323-0.17775-3.4737-0.17775-5.9746 0-2.501 0.0754-5.0315 0.17775-5.9746 0.0983-0.90054 0.30057-2.4691 0.45119-3.4864 0.14943-1.0172 0.46696-2.7783 0.70311-3.9121 0.23609-1.1353 0.71591-3.057 1.0645-4.2734 0.34997-1.2164 0.9321-3.0322 1.2949-4.0352 0.3642-1.0029 0.98079-2.5666 1.3692-3.4785 0.38979-0.91051 1.3012-2.8082 2.0254-4.2168 0.72273-1.4084 1.8165-3.3624 2.4297-4.3398 0.61317-0.97877 1.5677-2.4187 2.1211-3.2012 0.5534-0.78246 1.6254-2.1899 2.3809-3.1289 0.75545-0.93896 2.0738-2.477 2.9316-3.416 0.85643-0.93896 2.2577-2.353 3.1113-3.1426 0.85503-0.78817 2.1849-1.9591 2.9531-2.6035 0.76967-0.64447 1.9861-1.6046 2.7031-2.1367 0.71846-0.53065 1.9778-1.4127 2.7988-1.959 0.82231-0.54771 2.215-1.4227 3.0957-1.9434 0.88205-0.52072 2.5449-1.4185 3.6972-1.9961 1.1538-0.57619 2.7325-1.3203 3.5078-1.6504 0.77534-0.32854 2.281-0.91682 3.3437-1.3066 1.0641-0.38839 2.9266-0.99324 4.1387-1.3418 1.2135-0.34854 3.0999-0.82068 4.1953-1.0469 1.0954-0.2279 2.8564-0.54327 3.9121-0.7012 1.0556-0.15932 2.5613-0.36453 3.3437-0.45702 0.90481-0.10679 5.6481-0.203 13.018-0.26373l11.596-0.0959 1.3613-0.36915c0.74975-0.20197 1.8421-0.56783 2.4297-0.81252 0.58612-0.24461 1.5751-0.75595 2.1953-1.1387 0.61887-0.38411 1.5322-1.0508 2.0273-1.4804 0.4951-0.43107 1.2526-1.1885 1.6836-1.6836 0.42967-0.49507 1.0963-1.4085 1.4805-2.0274 0.38269-0.62031 0.89396-1.6092 1.1387-2.1953 0.24461-0.58759 0.60035-1.6799 0.79099-2.4297 0.2047-0.80239 0.38187-2.0038 0.43164-2.9258 0.0498-0.91477 0.0171-2.0845-0.0819-2.8144-0.0911-0.68715-0.32854-1.8022-0.52345-2.4766-0.1948-0.67431-0.57592-1.7044-0.84766-2.2891-0.2702-0.58612-0.84077-1.5888-1.2676-2.2304-0.42537-0.64163-1.2892-1.6818-1.918-2.3106-0.6288-0.63024-1.6278-1.4779-2.2168-1.8848-0.58895-0.40835-1.5977-0.98744-2.2422-1.2891-0.64449-0.30159-1.7221-0.70938-2.3965-0.90429-0.67291-0.19481-1.7171-0.42387-2.3203-0.50783-0.69567-0.0965-4.701-0.15045-10.939-0.15045-5.4132 0.001-10.96 0.0645-12.33 0.1426-1.3686 0.0768-3.4817 0.24019-4.6953 0.36133-1.2121 0.12112-3.2611 0.37986-4.5527 0.5762-1.2918 0.19515-3.4354 0.57483-4.7657 0.84374-1.3302 0.26884-3.4114 0.74006-4.625 1.0488-1.2121 0.30876-3.3234 0.90863-4.6934 1.334-1.3686 0.42536-3.4513 1.127-4.625 1.5566-1.1737 0.42963-3.3057 1.2788-4.7383 1.8848-1.4341 0.60748-3.833 1.7272-5.334 2.4883-1.5024 0.76115-3.5684 1.8647-4.5898 2.4551-1.0215 0.58899-2.7648 1.6509-3.873 2.3594-1.1082 0.70703-2.9771 1.9706-4.1523 2.8086-1.1751 0.83794-3.0168 2.2291-4.0938 3.0898-1.0755 0.8607-2.6914 2.2079-3.5918 2.9961-0.89914 0.78673-2.8886 2.6839-4.418 4.2148-1.5308 1.5294-3.4261 3.5173-4.2129 4.418-0.78813 0.89911-2.1309 2.5066-2.9844 3.5723-0.85216 1.0656-2.2322 2.891-3.0644 4.0547-0.83371 1.1638-2.1044 3.0422-2.8242 4.1718-0.72129 1.1296-1.7938 2.8907-2.3828 3.9121-0.59039 1.0215-1.6904 3.0804-2.4472 4.5742-0.75828 1.4938-1.8643 3.8622-2.459 5.2636-0.59469 1.4013-1.3344 3.2186-1.6445 4.041-0.30875 0.82085-0.89041 2.4857-1.293 3.6992-0.40118 1.2121-1.0147 3.2304-1.3633 4.4824-0.3471 1.252-0.88819 3.4276-1.2012 4.8359-0.31285 1.4084-0.76189 3.7451-0.99805 5.1934-0.23472 1.4468-0.5229 3.4634-0.63672 4.4805-0.11531 1.0172-0.29101 2.7787-0.3906 3.9141-0.10815 1.2263-0.18048 4.1963-0.17775 7.3262 0.001 2.9592 0.0791 6.1038 0.1757 7.1836 0.0952 1.0556 0.27362 2.8167 0.39456 3.9121 0.12078 1.0954 0.44205 3.297 0.71093 4.8906 0.26884 1.5934 0.71477 3.8975 0.99218 5.1211 0.276 1.2235 0.78567 3.2482 1.1328 4.5 0.3471 1.252 0.99313 3.365 1.4356 4.6953 0.44245 1.3302 1.1415 3.2809 1.5527 4.3379 0.41114 1.0556 1.1833 2.9133 1.7168 4.127 0.53348 1.2121 1.524 3.2927 2.2012 4.623 0.67722 1.3302 1.7301 3.2828 2.3418 4.3398 0.61031 1.0556 1.6697 2.7989 2.3554 3.8731 0.68574 1.0741 1.9336 2.9146 2.7715 4.0898 0.83794 1.1751 2.2271 3.0168 3.0879 4.0938 0.86072 1.0756 2.2002 2.6779 2.9785 3.5586 0.7782 0.88205 2.1308 2.3492 3.0058 3.2597 0.87496 0.91194 2.4228 2.4308 3.4414 3.377 1.0186 0.94609 2.497 2.2747 3.2852 2.9531 0.78956 0.67862 2.3345 1.937 3.4355 2.7949 1.1012 0.85929 2.9204 2.2 4.043 2.9824 1.1211 0.78247 2.7617 1.8778 3.6465 2.4355 0.88492 0.55767 2.5178 1.537 3.6289 2.1758 1.1097 0.6388 3.2677 1.7838 4.793 2.5449 1.5266 0.76111 3.7042 1.7825 4.8379 2.2676 1.1353 0.48654 2.8628 1.1878 3.8418 1.5606 0.9788 0.37132 2.7723 1.0006 3.9844 1.4004 1.2121 0.39978 2.9718 0.94933 3.9121 1.2168 0.93896 0.26883 2.7997 0.74715 4.1328 1.0644 1.3345 0.31729 3.5083 0.77271 4.834 1.0117 1.326 0.23882 3.6286 0.59008 5.1152 0.7793 1.4867 0.189 3.7265 0.42683 4.9785 0.52928 1.3245 0.10815 4.3905 0.18423 7.3282 0.1815 2.8154-0.003 5.9639-0.0832 7.1132-0.1815 1.1353-0.0983 3.1198-0.30671 4.4102-0.46289 1.2918-0.15523 3.3068-0.44284 4.4805-0.64061 1.1737-0.19788 3.1582-0.57985 4.4102-0.85155 1.252-0.27021 3.4613-0.81652 4.9082-1.2149 1.4483-0.39692 3.6562-1.0642 4.9082-1.4824 1.2519-0.41831 3.1741-1.1084 4.2695-1.5352 1.0955-0.42679 2.9833-1.2107 4.1953-1.7441 1.2136-0.53348 3.2947-1.5259 4.625-2.2031 1.3302-0.67714 3.2822-1.727 4.3379-2.3359 1.0571-0.60748 2.7407-1.6238 3.7422-2.2598 1.0001-0.63593 2.7886-1.8496 3.9707-2.6934 1.1836-0.84507 2.8222-2.0615 3.6445-2.7031 0.82088-0.64307 2.397-1.9412 3.498-2.8887 1.1026-0.94605 2.9778-2.6624 4.1699-3.8164 1.1908-1.1524 2.9872-3.0031 3.9902-4.1113 1.0044-1.1082 2.3377-2.6246 2.9609-3.3672 0.62314-0.74405 1.7439-2.1535 2.4922-3.1308 0.74832-0.9788 1.8761-2.515 2.5078-3.4141 0.63024-0.90055 1.6567-2.4414 2.2812-3.4258 0.62597-0.98444 1.6682-2.7136 2.3184-3.8418 0.65016-1.1282 1.8032-3.3009 2.5644-4.8262 0.76257-1.5265 1.7824-3.7021 2.2676-4.8359 0.48514-1.1353 1.1878-2.8648 1.5605-3.8438 0.37133-0.97877 1.0006-2.7703 1.4004-3.9824 0.39978-1.2121 0.95608-3.0052 1.2364-3.9824 0.28044-0.97881 0.76514-2.867 1.0781-4.1973 0.31285-1.3302 0.78564-3.6345 1.0488-5.1211 0.26339-1.4867 0.61178-3.8246 0.77541-5.1933 0.16205-1.37 0.37235-3.2563 0.46484-4.1953 0.1293-1.2946 0.18184-23.743 0.21868-93.041 0.0341-64.729 0.003-91.679-0.10542-92.516-0.0853-0.64872-0.31285-1.73-0.50782-2.4043-0.19481-0.67431-0.57592-1.7043-0.84763-2.289-0.27634-0.59108-0.84869-1.5941-1.2734-2.2364-0.42731-0.64225-1.2805-1.6737-1.8945-2.293-0.61666-0.61921-1.6129-1.4696-2.2168-1.8867-0.6013-0.41452-1.6228-1.0028-2.2676-1.3047-0.64447-0.30159-1.7202-0.70748-2.3946-0.90235-0.67291-0.19481-1.7171-0.42585-2.3203-0.50978-0.60462-0.0839-1.6534-0.14465-2.332-0.13476zm160.05 0.007c-0.68005 0.0102-1.6204 0.0723-2.0898 0.14056-0.46948 0.0669-1.4185 0.28488-2.1113 0.48245-0.69281 0.19787-1.743 0.58373-2.332 0.85547-0.59042 0.27327-1.5947 0.84466-2.2364 1.2715-0.64159 0.42537-1.6929 1.3023-2.3359 1.9453-0.64303 0.64303-1.5199 1.6943-1.9453 2.3359-0.42677 0.64163-0.99726 1.6443-1.2676 2.2305-0.27157 0.58473-0.65275 1.6166-0.84766 2.291-0.19481 0.67432-0.42581 1.7555-0.50974 2.4043-0.10678 0.80949-0.14124 6.6986-0.11122 18.818l0.043 17.641 0.37497 1.3613c0.20607 0.74972 0.57562 1.8441 0.82034 2.4316 0.24461 0.58613 0.75595 1.5731 1.1387 2.1934 0.38125 0.61888 1.0302 1.511 1.4414 1.9805 0.41114 0.46948 1.1705 1.2294 1.6855 1.6875 0.51643 0.45668 1.4456 1.1427 2.0645 1.5254 0.62027 0.38125 1.6092 0.89395 2.1953 1.1387 0.58756 0.24462 1.68 0.60039 2.4297 0.791 0.80239 0.20504 2.0058 0.38183 2.9278 0.43164 0.91477 0.0498 2.0845 0.0136 2.8144-0.0839 0.68715-0.0911 1.8054-0.32752 2.4883-0.52539 0.68144-0.19788 1.7657-0.6066 2.4102-0.90822 0.64446-0.30159 1.6552-0.88267 2.2441-1.291 0.58903-0.40687 1.586-1.2545 2.2148-1.8848 0.62881-0.62881 1.4946-1.667 1.9199-2.3086 0.4268-0.64164 0.99726-1.6443 1.2676-2.2305 0.27157-0.58473 0.65026-1.6096 0.84374-2.2754 0.19344-0.66575 0.418-1.7034 0.50196-2.3066 0.10098-0.73122 0.15216-6.7899 0.15216-18.148 0-11.359-0.0512-17.419-0.15216-18.15-0.0839-0.60318-0.30842-1.6408-0.50196-2.3067-0.19344-0.66582-0.57203-1.6907-0.84374-2.2754-0.2702-0.58612-0.8408-1.5908-1.2676-2.2324-0.4268-0.64163-1.2819-1.6727-1.8965-2.293-0.61601-0.61887-1.6116-1.466-2.2148-1.8828-0.60322-0.41541-1.6231-1.005-2.2676-1.3067-0.6445-0.30159-1.7202-0.70939-2.3946-0.9043-0.67291-0.1948-1.7171-0.42386-2.3203-0.50779-0.60461-0.0839-1.6534-0.14465-2.332-0.13476zm-7.209 96.031-0.002 0.002c-49.788 0.007-90.435 0.0689-90.906 0.13681-0.46948 0.0669-1.4204 0.28453-2.1133 0.48241-0.69284 0.19787-1.7411 0.58373-2.3301 0.85547-0.59038 0.27328-1.5966 0.84466-2.2383 1.2715-0.64159 0.42534-1.6929 1.3023-2.3359 1.9453-0.64303 0.64303-1.5199 1.6944-1.9453 2.336-0.42679 0.64163-0.99726 1.6443-1.2676 2.2304-0.2719 0.58473-0.65275 1.6167-0.84766 2.291-0.1948 0.67438-0.43045 1.7875-0.5215 2.4746-0.0983 0.72986-0.13374 1.8996-0.0839 2.8145 0.0498 0.9219 0.22687 2.1234 0.43164 2.9258 0.19071 0.74975 0.54631 1.8421 0.79103 2.4297 0.24462 0.58612 0.7579 1.575 1.1406 2.1953 0.38129 0.61884 1.0303 1.511 1.4414 1.9805 0.41114 0.46948 1.1686 1.2274 1.6836 1.6855 0.51642 0.45672 1.4475 1.1446 2.0664 1.5274 0.62027 0.38129 1.6092 0.89396 2.1953 1.1387 0.58756 0.24461 1.6799 0.614 2.4297 0.8203l1.3613 0.37695 91.689 0.0802c69.04 0.0611 92.008 0.12077 92.973 0.24598 0.70423 0.0925 2.0169 0.27191 2.916 0.39845 0.90058 0.12521 2.7099 0.44597 4.0215 0.71484 1.3131 0.26748 3.3619 0.76899 4.5527 1.1133 1.1922 0.3457 2.9029 0.89187 3.8008 1.2148 0.89771 0.32138 2.4014 0.90918 3.3418 1.3047 0.94035 0.39405 2.7682 1.2533 4.0586 1.9063 1.2918 0.65296 3.1817 1.6901 4.2031 2.3047 1.02 0.61318 2.5759 1.6203 3.4551 2.2363 0.87778 0.61601 2.3481 1.7185 3.2656 2.4512 0.9176 0.73269 2.4795 2.0665 3.4726 2.9629 0.99443 0.89768 2.5879 2.4805 3.541 3.5176 0.95175 1.0371 2.3514 2.6527 3.1055 3.5918 0.75402 0.93896 1.7611 2.2551 2.2363 2.9238 0.47517 0.66865 1.2691 1.8527 1.7656 2.6309 0.49511 0.77817 1.2165 1.9592 1.6035 2.625 0.38695 0.66435 1.2578 2.3291 1.9336 3.6992 0.67718 1.3686 1.5739 3.3531 1.9922 4.4102 0.41827 1.0556 1.0657 2.849 1.4356 3.9844 0.37132 1.1338 0.90723 2.9897 1.1875 4.125 0.2818 1.1338 0.66978 2.9273 0.86328 3.9844 0.19208 1.0556 0.44635 2.6559 0.56443 3.5566 0.11668 0.89911 0.29033 2.7551 0.38282 4.125 0.10372 1.5166 0.13681 3.7129 0.0839 5.6192-0.0467 1.7214-0.21391 4.2185-0.36914 5.5488-0.15523 1.3302-0.44587 3.3147-0.64648 4.4102-0.20197 1.0954-0.59721 2.9193-0.87891 4.0547-0.2801 1.1338-0.81617 2.9897-1.1875 4.125-0.36989 1.1338-1.0153 2.9286-1.4336 3.9844-0.41684 1.0556-1.3815 3.1688-2.1426 4.6953-0.76115 1.5251-1.7963 3.4578-2.3027 4.293-0.50506 0.8365-1.3212 2.1173-1.8105 2.8457-0.4894 0.72982-1.3207 1.9078-1.8457 2.6192-0.52638 0.7113-1.6207 2.0883-2.4316 3.0586-0.81092 0.97168-2.4681 2.7601-3.6817 3.9765-1.2135 1.2164-3.0373 2.9036-4.0547 3.75-1.0172 0.84647-2.6419 2.1156-3.6094 2.8184-0.96741 0.7042-2.4412 1.707-3.2734 2.2305-0.83227 0.52352-2.0245 1.245-2.6504 1.6035-0.62598 0.35854-2.0425 1.1048-3.1465 1.6582-1.1054 0.55344-2.7849 1.3321-3.7324 1.7305-0.94752 0.39835-2.5101 1.0043-3.4746 1.3457-0.96458 0.34287-2.6776 0.88301-3.8086 1.2031-1.131 0.31865-2.9515 0.76954-4.0469 1-1.0954 0.23165-2.6316 0.52024-3.414 0.64258-0.78247 0.12214-2.2867 0.31933-3.3437 0.43751-1.0556 0.11941-3.3293 0.25417-5.0508 0.30262-1.885 0.0529-4.1197 0.0205-5.6192-0.0781-1.3686-0.0924-3.6022-0.32513-4.9609-0.52147-1.3601-0.19515-3.2448-0.51619-4.1894-0.71679-0.94322-0.19924-2.4552-0.55436-3.3613-0.78908-0.90484-0.23473-2.5004-0.71253-3.5488-1.0625-1.0471-0.34857-2.7424-0.96564-3.7695-1.3711-1.0258-0.40548-2.9855-1.2891-4.3555-1.9648-1.3686-0.67435-3.2243-1.6633-4.125-2.1953-0.89911-0.53205-2.5669-1.5955-3.7051-2.3652-1.1367-0.76824-2.8325-2.009-3.7656-2.7559-0.93469-0.74548-2.525-2.1029-3.5352-3.0176-1.0101-0.91477-2.6059-2.4982-3.5449-3.5196-0.93896-1.0214-2.3241-2.6254-3.0781-3.5644-0.75402-0.93896-1.7612-2.2551-2.2364-2.9238-0.47514-0.66866-1.2691-1.8527-1.7656-2.6309-0.4951-0.77816-1.216-1.9606-1.6016-2.625-0.38411-0.66579-1.1708-2.1458-1.7441-3.291-0.57473-1.1438-1.3627-2.8431-1.7539-3.7734-0.39125-0.93043-0.97731-2.4265-1.2988-3.3242-0.32309-0.89771-0.87216-2.6258-1.2207-3.8379-0.34854-1.2135-0.82828-3.1338-1.0644-4.2676-0.23609-1.1353-0.5518-2.8969-0.70117-3.9141-0.14943-1.0172-0.34843-2.489-0.43945-3.2715-0.10679-0.89911-0.20402-5.6865-0.26372-13.018l-0.0959-11.594-0.36914-1.3613c-0.20232-0.74975-0.56781-1.8421-0.81249-2.4297-0.24462-0.58612-0.75654-1.575-1.1407-2.1953-0.38268-0.61888-1.0687-1.557-1.5254-2.082-0.45525-0.52495-1.1782-1.2505-1.6035-1.6133-0.42537-0.36136-1.1539-0.91712-1.6191-1.2344-0.46519-0.31592-1.366-0.81787-2.0019-1.1152-0.63596-0.2975-1.7131-0.70267-2.3945-0.90041-0.68288-0.19788-1.8031-0.43434-2.4902-0.5254-0.72983-0.0983-1.8996-0.13373-2.8144-0.0839-0.92187 0.0498-2.1234 0.22687-2.9258 0.43164-0.74971 0.19071-1.8421 0.54631-2.4297 0.79099-0.58613 0.24462-1.575 0.75791-2.1953 1.1406-0.61887 0.38412-1.5322 1.0489-2.0274 1.4785-0.4951 0.43106-1.2525 1.1905-1.6836 1.6856-0.42963 0.4951-1.0963 1.4085-1.4805 2.0273-0.38272 0.62028-0.89399 1.6072-1.1387 2.1934-0.24461 0.58756-0.61597 1.6819-0.82228 2.4316l-0.37695 1.3613v11.807c0 8.5459 0.0519 12.379 0.18559 13.871 0.10235 1.1338 0.28419 2.9286 0.40234 3.9844 0.11804 1.0556 0.43427 3.2248 0.70314 4.8184 0.27021 1.5934 0.71673 3.8975 0.99413 5.1211 0.276 1.2235 0.78373 3.2482 1.1309 4.5 0.34714 1.252 0.9931 3.365 1.4356 4.6953 0.44246 1.3302 1.1416 3.2828 1.5527 4.3399 0.41114 1.0556 1.1833 2.9114 1.7168 4.125 0.53348 1.2121 1.5259 3.2927 2.2031 4.623 0.67719 1.3302 1.7301 3.2828 2.3418 4.3398 0.61035 1.0556 1.6697 2.7989 2.3554 3.8731 0.68575 1.0741 1.9317 2.9166 2.7696 4.0918 0.83794 1.1751 2.2271 3.0148 3.0879 4.0918 0.86073 1.0756 2.2148 2.6885 3.0059 3.582 0.79243 0.89484 2.1431 2.362 3.0039 3.2597 0.8607 0.89771 2.3994 2.4074 3.418 3.3535 1.0186 0.94606 2.497 2.2747 3.2852 2.9531 0.78956 0.67858 2.3345 1.937 3.4355 2.7949 1.1011 0.85926 2.9185 2.2 4.041 2.9824 1.121 0.78247 2.7636 1.8778 3.6484 2.4355 0.88489 0.55771 2.5158 1.537 3.6269 2.1758 1.1097 0.6388 3.2677 1.7838 4.793 2.5449 1.5265 0.76114 3.7041 1.7824 4.8379 2.2676 1.1353 0.48653 2.8628 1.1878 3.8418 1.5606 0.97878 0.37132 2.7723 1.0006 3.9844 1.4004 1.2121 0.39978 2.9718 0.94933 3.9121 1.2168 0.93896 0.26884 2.7997 0.74719 4.1328 1.0644 1.3344 0.31728 3.51 0.77271 4.8359 1.0117 1.3259 0.23881 3.6267 0.59008 5.1133 0.77929 1.4867 0.18901 3.7285 0.42687 4.9804 0.52928 1.3245 0.10781 4.3885 0.18423 7.3262 0.18151 2.8154-0.003 5.9639-0.0833 7.1133-0.18151 1.1353-0.0983 3.1198-0.3067 4.4102-0.46289 1.2918-0.15489 3.3087-0.44287 4.4824-0.64061 1.1737-0.19787 3.1582-0.57984 4.4102-0.85155 1.252-0.2702 3.4276-0.8103 4.836-1.1973 1.4084-0.38695 3.5227-1.0193 4.6992-1.4062 1.1751-0.38699 2.9686-1.0218 3.9844-1.4102 1.0144-0.38841 2.4852-0.97959 3.2676-1.3125 0.78247-0.33298 2.3652-1.0412 3.5176-1.5762 1.1524-0.53352 3.0746-1.4951 4.2695-2.1367 1.195-0.6402 3.131-1.7436 4.3047-2.4492s2.8081-1.7321 3.6289-2.2812c0.82228-0.54775 2.2941-1.5767 3.2715-2.2852 0.97881-0.70847 2.5644-1.9143 3.5234-2.6797 0.95885-0.76397 2.495-2.0509 3.414-2.8574 0.91904-0.80665 2.4335-2.197 3.3652-3.0918 0.93186-0.89484 2.468-2.46 3.4141-3.4785 0.94606-1.0186 2.2746-2.497 2.9531-3.2852 0.67862-0.78956 1.9351-2.3345 2.793-3.4355 0.85926-1.1012 2.202-2.9185 2.9844-4.041 0.78247-1.1211 1.8779-2.7636 2.4356-3.6484 0.55767-0.88492 1.537-2.5158 2.1758-3.6269 0.6388-1.1097 1.7824-3.2677 2.5449-4.793 0.76114-1.5265 1.8615-3.897 2.4434-5.2656 0.58185-1.37 1.39-3.4068 1.7969-4.5293 0.40688-1.1225 0.99809-2.8516 1.3125-3.8418 0.31421-0.99017 0.78809-2.5687 1.0527-3.5078 0.26304-0.93895 0.73634-2.8286 1.0508-4.1973 0.31456-1.37 0.76582-3.6098 1.002-4.9785 0.23609-1.37 0.55784-3.5462 0.7129-4.8379 0.15524-1.2918 0.36277-3.3068 0.46092-4.4805 0.0996-1.1908 0.17775-4.3667 0.17775-7.1836s-0.0781-5.9947-0.17775-7.1855c-0.0983-1.1737-0.30568-3.1901-0.46092-4.4805-0.15488-1.2918-0.47674-3.4692-0.7129-4.8379-0.23608-1.37-0.68755-3.6098-1.002-4.9785-0.31455-1.37-0.78758-3.2582-1.0508-4.1973-0.26474-0.93895-0.73531-2.5106-1.0469-3.4922-0.31148-0.98023-0.8668-2.6126-1.2324-3.6269-0.36562-1.0144-1.0455-2.7581-1.5078-3.875-0.46379-1.1168-1.312-3.0371-1.8867-4.2676-0.57477-1.2306-1.5105-3.1027-2.0781-4.1582-0.56766-1.057-1.5835-2.8487-2.2578-3.9824-0.67291-1.1339-1.8868-3.0559-2.6992-4.2695-0.81235-1.2135-2.1991-3.1642-3.084-4.3379-0.88488-1.1737-2.1708-2.8065-2.8594-3.6289-0.68714-0.82231-2.0618-2.389-3.0547-3.4844-0.993-1.0954-2.6923-2.8564-3.7793-3.9121-1.0855-1.057-2.7428-2.5936-3.6817-3.416-0.93752-0.82228-2.3465-2.0105-3.1289-2.6406-0.78247-0.63023-2.0632-1.6278-2.8457-2.2168-0.78246-0.59043-2.4134-1.7466-3.6269-2.5703-1.2121-0.82375-3.1662-2.0725-4.3398-2.7754-1.1737-0.70277-3.1098-1.8017-4.3047-2.4433-1.195-0.64163-3.149-1.6199-4.3398-2.1719-1.1922-0.5534-3.1271-1.4026-4.3008-1.8906-1.1737-0.48797-3.0619-1.2135-4.1973-1.6133-1.1338-0.40118-2.67-0.91955-3.414-1.1543-0.74262-0.23336-2.1591-0.65173-3.1465-0.92774-0.98733-0.27737-2.5879-0.69086-3.5567-0.91992-0.96884-0.23063-2.6194-0.58619-3.6679-0.79103-1.0485-0.20333-2.9381-0.52369-4.1973-0.7129-1.2605-0.18935-3.2825-0.44208-4.4961-0.56442-1.2121-0.12112-3.3254-0.28454-4.6953-0.36133-1.5991-0.0911-34.7-0.13681-92.543-0.12692z"
     fill="#ffffff" /></svg>